<mxfile host="app.diagrams.net" modified="2024-06-09T13:18:55.051Z" agent="Mozilla/5.0 (Windows NT 10.0; Win64; x64; rv:126.0) Gecko/20100101 Firefox/126.0" etag="nSXqQXNNmAjl0ouwDjMI" version="24.5.2" type="device">
  <diagram name="Page-1" id="ZwOlUbrmu6FtMHdMSIF2">
    <mxGraphModel dx="1195" dy="628" grid="1" gridSize="10" guides="1" tooltips="1" connect="1" arrows="1" fold="1" page="1" pageScale="1" pageWidth="827" pageHeight="1169" math="0" shadow="0">
      <root>
        <mxCell id="0" />
        <mxCell id="1" parent="0" />
        <mxCell id="vtJU19JeG5nQ4g9oRzDV-27" style="edgeStyle=orthogonalEdgeStyle;rounded=0;orthogonalLoop=1;jettySize=auto;html=1;exitX=0.5;exitY=1;exitDx=0;exitDy=0;entryX=0.5;entryY=0;entryDx=0;entryDy=0;" edge="1" parent="1" source="vtJU19JeG5nQ4g9oRzDV-22" target="vtJU19JeG5nQ4g9oRzDV-24">
          <mxGeometry relative="1" as="geometry" />
        </mxCell>
        <mxCell id="vtJU19JeG5nQ4g9oRzDV-22" value="" style="rounded=0;whiteSpace=wrap;html=1;" vertex="1" parent="1">
          <mxGeometry x="270" y="140" width="140" height="60" as="geometry" />
        </mxCell>
        <mxCell id="vtJU19JeG5nQ4g9oRzDV-1" value="Agent architecture diagram" style="text;html=1;align=center;verticalAlign=middle;whiteSpace=wrap;rounded=0;" vertex="1" parent="1">
          <mxGeometry x="30" y="10" width="170" height="30" as="geometry" />
        </mxCell>
        <mxCell id="vtJU19JeG5nQ4g9oRzDV-30" style="edgeStyle=orthogonalEdgeStyle;rounded=0;orthogonalLoop=1;jettySize=auto;html=1;exitX=1;exitY=0.5;exitDx=0;exitDy=0;" edge="1" parent="1" source="vtJU19JeG5nQ4g9oRzDV-2">
          <mxGeometry relative="1" as="geometry">
            <mxPoint x="800" y="281.16666666666674" as="targetPoint" />
          </mxGeometry>
        </mxCell>
        <mxCell id="vtJU19JeG5nQ4g9oRzDV-2" value="" style="shape=image;verticalLabelPosition=bottom;labelBackgroundColor=default;verticalAlign=top;aspect=fixed;imageAspect=0;image=data:image/png,iVBORw0KGgoAAAANSUhEUgAAADUAAAA3CAYAAACsLgJ7AAAQ8klEQVRoQ72aB3RU1RaGd0JJoQgJHZSqUgWRoqggoiLP8qxIExVUrKiAjaooVUUQsWBHijx7QVBEQQSVaqE+QAFZCgkQIJCEFHjn25l9ORlmAhHXO2tlJTO5987Z7d//v8/EHHZLTmD5t/P3oUOHJDY2VmJiYoKn+n+Hf1xeXl6h1/+drcX8XaNsc2zYjClWrFiwBzZrr/m/XccF/O3/n/d84/xn/1+MCvc0kbHN79ixQ5YuXSoXXnihJCYmSm5urkaBH98wDChevLhkZmbKF198Ieecc45Urly5gHNOxLAiRcr/IIzhNQbl5OTI22+/LX379pUDBw5IzZo1ZerUqXLeeeepoy0qfnQwvkuXLvLbb79J6dKl5eWXX5Zu3brp9eHOsOgeb9SO2yjzNMawuRIlSuhnLFmyRG666SZZt26dXHLJJXL33XfLQw89JOvXr5fBgwfLoEGDJD4+XjdKdLKysmTo0KHy1FNPSd26dfU3BhExnPDCCy9IkyZN9Nk4i3ssdf3aLMzAYxplxpgH+RDWli1bZNiwYfLWW2/p5iZMmCCXXXaZ/u/gwYNqzDPPPCMNGjSQN954Q1q3bi0rV66UW265RX7++We5//77ZeTIkZKQkKD3TJs2Tfr37y+k8H333SdDhgyR5OTkApE+3pSMaJRfN1bUvIdBu3fvlnHjxsmLL76otUI07rzzTilZsqQiHz9m+OLFi+Xee++VFStWSMeOHTUazZo1k1deeUVatGhxVKrt27dPnn/+eXnsscfUWH4TeZ5dlJSMapSF3IqaHbz66qsagZSUFN3Q9OnTpWvXrpqOLINyHGD3ZWdnyyOPPCLPPvus3HjjjTJ58mRNx/DU8gFnw4YNGqmZM2fKmWeeqVlw/vnnB06gjgtLyajp56fdsmXLtA5mz54tl19+uVxxxRVyxx13KDjccMMNChjUWHiEMQgvb9y4UU4//XTd5HXXXafpGRcXd9T13E9ErF4/++wzefDBB7VeyYbhw4dLhQoVgvui1VhEo/AaKyMjQ43By+XLl5dJkyZpZFatWqXFTB2AWOb18OK1Rrx8+XJp2bKlvPbaa1pThoKRmjItOy83TzdevGQJyXR7GDV6tDzxxBNSrlw5efLJJ+W2224LACSSYRGNMqT65ZdfpGnTpuolHpaUlKQ18+OPP0qbNm0Co+z6cKPsfWrqrLPOkjfffFORMvx6v4f5m8S1saGHAi6DBg6SWZ/PkjVr1igAhTdw+/yIRll3//XXXzWn2RTGETkKmB4DmllNESlLPz8K9jeo17x586hGsZkgdR1py1y2TbI3p0l8kyoSV7+iZGe5dE2Ilz+2bpVatWvrfs4444ygbsOdGdUoitEiNX/+fC1UPEyNEKmzzz47iJTVCMYCBl999ZXUqFFD0xJjj2WUGnTI/Tj6lPb2Ctk/d4MUS0qUvLRMKde1qZT9V32BoK7ZsE4an9ZAW4IZ5VOzY0bKN2rhwoXaGK3wabhEymqKhgqiff3119KhQwfZtGmT1KlTJ7j+WEYdynMkuFisHNy4U7YPnitJvVtIqba1Ze/7q2T/vI0S36KaJBSPk1+3bZA2w7v+s0ZZLcDZoDdE46STTgpqZMGCBcr7MKpWrVrHHylnVIwzKvOXvyTlyW+k0tAOktC4sqQ7g9LeWCbFqpeRxBIJsmrHRmn7ap+iG+XLB8JMTbFZ0i+SrPCv/+abbzRSv//+e9GMIvWoq+xcSRk5X3J3HpD4RpUlY8kfknjOKZJ0eyvtgWvWrpVGDRtqOlPjkfbDc4Ka8ikIaUb64XH6C+lGofuczx7IQ7geFgF0U2tEEVJrPcfQD7p088036/vWQAOQwK5YJ0nSMmTPtJ8ke8seBYpy1zeRw3HFnFExsm7tOmnUqJGiX7169Y7qj4acMW5z6ibeCKc5H3zwgVx77bUBanEdG+JaPGf9zIqVPnbPPfcUqCmA4qeffgognb7mN+vwXhWp72jaFysuq9eslsaNG8snn3yiBMD24zOMIFI+reFNmuvTTz+tZJUI8NDrr79eHn74Yd0cy+8RpB0N+tNPP1VO9+WXX2qjtEiBiq1atVLOd+uttwaRNZ0VoFZIcAJ1MS4yhxURj8B9amqq9kcy4dFHH1UCDOn1ZZD2PCJl3oGO4G1IJf2IG6+++mqBrowdO1bS0tIUsmHRGEdaYsw777wjVapUUaNvv/12FYgWRTb8559/KnpChnkOFMv3ssK5ulhTxmzMfyv02tId3jnaMQw+t2LFijJixAhlGKygxpzHD4NmyAguxFL41oABA/QmWxgEsUT/0ITRTkSkTJky8vjjj0ufPn3UGJbPGy2ieBej33vvPencubMy/erVq2v/KWgGDyj4pq/liC4Lh0LhYP5kAXu49NJLNYMUKEC3Cy64QMkpnjzllFP0Rpqq1YvJie3bt8uoUaPkueee06IfM2aMVKpUKfC8edY+3GrVXk+ZMkUjxWuc2KtrT8lc6hjEtr0SVyfZod3J+dEKGRY+2wiv+/fff1+dBaghdQAqTT/Ydq9evVSCI7GJBM3UNmLeB+Vg12sdtFKwH374oVx55ZWqZnnfL3L1mNuc/Zg8wUmkUN97+8rM/8yU9g1by5RWAyQ2OVFy/tonZTudLuV7nCmHXe8CDSOS3tDghmfCcJAzZAoqgCzQSEE0Yc8Iv969ewfUf8aMGUocEXZWjHyIEVqcAZr5/QJFzJwC6GWZcQYKvj57d9pM2T5pkdw1eajENkqW9C83yJ4ZP0vVUR2leJWyLo3zx23hksbSERrGfsgaQIOogQFqFChHKr3++utqHOhH5EAtIJqbfE+Tz8b9TCTycKJw1VVXyccff6y6idSELplxJiKRFqBb7M5c2T10rpQefK6UrFFOm+3OCYuk8ohLJK5WUoB+4UDi4uey84gQJY379eunRl1zzTUFI8XQA0BA3SLGXnrpJZ070GvYkBlG30EfEW76mEl4PAjSoZuYP5CuOAkVW9uxa0tjq5fczGxJGT5PZH+OxDerJhnfb5W4BpWkYj+mUGw7X02HL4tULoMZt7fx48fLAw88UNAoZDqwiKfZ+F133aVgULZs2WAjbNyargEL95GufkO2Gti1a5dCLx/IJtBkICc1wMLbiKW81AzZ/dZyydnqGIQzqFz3ZhJbJl8V6zVuZSzaIlmrd0hC82qS2LKGGsvKZarl+mhEo/AsTbFt27aKfjBwvSlEZ6yJksP0MWYOLF4PHDhQZTbG8BrH+MMXGib9js8gLQEWI8Y+9B/OdU4rnh8VdSCGuyilOcqUPnu9xDWsJAfXpEjp9nWl/M3NFSHz8hzTiBYpqymTEkB54NFQ84Nv4e1vv/1WEQYYRSQyBoPs0rDROBZRNmdoCdOg1uB+NG8zSuE6xBr8v41R5O46IH89PEeSejkp0qampH+9SfZMXSnVxl8usaXjhPQr4ST/sy4botYUNUTE/BphY6QZo65q1arJxIkTtRhtzZkzR3r27ClEhObMlNa8bagIivbo0UNbBmjpUyy/D2lahjgoUcpL3S9/PfqFJPdprWl3YPEW2f3KEqkwoK0kOBafK27kfShGJlBT/ftpY6fGC6AfeI9RBgg0XFINFGNToAwAgqFWO4AIBjGcJHIYTIOFZhl8Y1T37t11+sRzos00zFGmhNFYu19fli8Um1aVg+tSJaaEg/jsPCnVro4ktKslCbWTZdzE8dK/rwcUNF/SDwgnIgxGzMMgD7KBWQWQzzLpbhvwNwgPY7hpyhf6RVOmSQPxRArjjsuoEKPAgPTZ/5WcP/ZIyTpJipJZy7dJ+lebJGvHXql6RTN5bdVnct/YgfLuu+8egXRqCQ+SWvQlv2Ha5gEBjAQIqK+9e/dqrzKGz/umpxhGoqeMYlkfOd5I+RGLNtvL2ZMhBxZulnKrM2TinKnSd8EEmTnjHenc5YZ8mgSfu/jii3VoCLHF2zzMoBqDoE0sDKduYBk//PCD9jCbrpry3bZtm5JVhqAQY1oAK9qILCjQ0B++YA2GMlpw+Rfk5riBZ1x+axg5fIQMGTZYaro+yMCHfhgDSycCO3fuVHhG8yAraKwM/m1tdeMp2AOkEX5Ic4X4WmFz3aJFi6R9+/ZqDCcZ1OjJJ5+s71FnpDmgcqz0i2SkAYo5cLVjPT173iQrVq6QXrf2llEjRiqxVvSFJvnSfN68eYpQGIlQRB9Bn/A40gJYBp5ZlnpGkYD7du3aBaoYaQDQ4EH6U3hN+UNMDYSJxNDfvnF+9OColAnDVZzVqVMnvTTgoCYSffWImEMeUHhEi8JnUzRQ0I+aM9i3nMdYDOdei6RRI4yhP/k1VUCCm0hkZyFm7hthvW///v0K2XPnztXnwSQwLJw0F5hRhMt6NgoqwiKgTprPoRmFgcBHH32k0eCQjbkBPA9eyDJJQiqTumqUQ7+c0CGAzyjCo+IDhKUrkqehmyaR1qZ2/SFO4AjSz1LJUsDojk2TYOtMk+wB1OD333+vgMIAE+VJL0NossxzFk36FCmNUd27hSCdQ2/mEDl5kvHdlnyRWDdZElpWd73I/c8TiTYGB8jQcTgQ9m/TLT+qaoMZ5RtmuQkbxxjGzvBCm9AixUk1YJuDMeth4cTWxs7MMIjUtJnTpVtnd57lPszO8VPHLZTMlX9KyVOTJds111IX1XO0yEWaM2WmVt5JvkWK3mkaz1fYFu1CZ+kMM7k5fOwMMUVTAf92goi3wmVCwCimu0h17yaTbhwivdpcLXsy9umU6tDBXEdSU6XC/edKgmMM6W6GnjZlhVQZfamUrH6S44UOyUKSh3Q3o/6RWXphE1pLSYt0uKRn8zPMqB5D5JbW/5Y9WelujufY/ME8yd6wSyoOOF9lx/4Fv8nuyUulypiOKhoNIIwr0vRJv79tFF63oxyaLL3LctiGH4ZgfkvwYdoidST9XMQ6dymQfimj50vW2hRJaFZV0zDRsXEIrOsXKi9M0rAfeiVoTFlw6Gc9K7yvFXroxs3M0gtDG3/mgGrmxDFQpqGvGRQKFC4FMxZvlaz1qRLvDgVKudm5OCJry38+SMsMglk6ZRGtiRd66EYDZuBPxOgPUKSqVavqpn0kBJWAfnoUjjAtFhH9QoTWDukicTue7w9zoHGoAFoDs31qnH5ZpEj59ZGenq4sgqks30yBJSDITOEi+4F2/oceY3YYDFhC309CkkCY6f789vVUPhU48p0vJhO8sj4I0kLfUAcwHKQRx0fRetxRkG4htxv8WmH0ZWOo0047TSPDoB4uyAdx0Mzo2XoGz2IjEGGuI23sdN6fE/qf5Y8BmLwSHbKAHseZszEU21c0wwr9cohxMT+vabawCxogCx5ms3E2axBvE100FaoZikWUGQ/bshT2n0/D53q+3gAoEP2LLrpIb4nIHsJm71Ej5UdMLwpJbDxDWtCESSXmgZs3b9bZBXIEuWGLb69Ar5ggcT3zC1hI/fr1tb8ROQSkLeQK6cVIgLrlGpo612CM/20021M46hXafMMv9mHaL06igPfZDGnG3JA5IV4mVRmToXiRKaeeeqoSUSZP3333nZ40MkJDlnA90WfczeEEBpUqVUq3YRTJsiaaaPT3fMwvXEWKWjjxXb16tX5z7PPPPw9kBzwQY+08y6/PWbNm6REMkbPDO1QA12N8UVItUrSO26jjMY5ZBDKDtPFP+gwNMYxlyMbojDTmQI+x24kaU6T0i5SOwQNC9cZrn/uZPvPf89WrTXvtOWZwpAOBaLVzQjUV7WYfvrnGNhZuoBV2Ua8vqjEnFKnCgMSP4LFEoG9kUYDgWMb+DxCaouk2xuKdAAAAAElFTkSuQmCC;" vertex="1" parent="1">
          <mxGeometry x="555" y="254" width="53" height="55" as="geometry" />
        </mxCell>
        <mxCell id="vtJU19JeG5nQ4g9oRzDV-3" value="AWS Bedrock Anthropic Claude Sonet" style="text;html=1;align=center;verticalAlign=middle;whiteSpace=wrap;rounded=0;" vertex="1" parent="1">
          <mxGeometry x="548" y="320" width="77" height="30" as="geometry" />
        </mxCell>
        <mxCell id="vtJU19JeG5nQ4g9oRzDV-4" value="" style="shape=image;verticalLabelPosition=bottom;labelBackgroundColor=default;verticalAlign=top;aspect=fixed;imageAspect=0;image=data:image/png,iVBORw0KGgoAAAANSUhEUgAAACsAAAApCAYAAACsldDLAAAJ+UlEQVRYR9VZe2ybdxU9fsVJ7Nh5Oc+laZukS9pOZQOBYLCxB5RJiBYGWofE2q2l3WBDiD+QGBNjgLTCGGUbCKiAinVtGe2g64O1aExslWAMhNppfaVpk+bpxK84L7++z+bcaydLkzSptyGVX2M5dezvO797zz333J8tGS78nyyLgB09MYb+XwZgd9mQSWdg4b+rYlkBc9yE5yYXau6ugoIdOhjC6S+ch6Pcjox5FYG1AUbIQNXmcrQ+05wFGzwawdn7OuEouwrBhg341peh5fElObBHCHZDfmCF6hbL/HS5kvfMSzeJrIDdQLA/zBPsJTcnn65oSfnyMVnHC23wkmu+E7B6IwZRb8SfTDKDdCKNTCr7evaPuduotgg6PlktsBbyUZDdWd6Rzhfs1A20MgVgGgW1DhSvKEJRSyGcdQ44Kh2wFllhsVmQTqZhDBtI+g3EL8Qx/lYMie4kLHZqzBy0mXcD+YLNxomRJFD3B4pRvd4HV1shzFgaqcEU4r0p8iqFdIyhFNlzWmH32lDATTivKUBBtQOj/xlH18N9WaVhtKeWJEA+cznu5wVWLmYh0HgatfdXoXZjJYL7hxE+NIzYuQSMqKkANeWTrUWw6MOi4AoXFyjokX+MEZi+nF1CEYfQhCmTz85Vq3mB5QVUlD/ixtInG9C+uQtj/xpnym2wOplWpvZyS4BW31sJ1zJmYSINm5ugZAPadIjPACJ/G0H4cBQ2Umhqs9MvmBdYXiMVSjGq1fDdWYrjt5yFw0OgrtzFJyM6vWHLBsdMeG8tQRM3OLgzlE3ztMgL+PoHqzD4XAgXv9evzQiM+qyVF1jew4hS5+6qQMtTjZDm0fekX4smk2SgGFlrASPMwtJwSdHzkSaYtj80IfraKC4+2gd7aRZMRjBTRZyLCrB8X7NmKt6VhI08n3PlBZbXEFGu2exD5WdKEf3nOCrXliHZl8TI62OYOBVHojfB6JO7BrlNKUsFUij7lBeNj9Th5NoO5bvSRSLLm6cCBhq/UwfXyiKc+eJ52GQj/PichZYXWIlsJEsD70fdOPm5DhS1FqLkBhfKPulB4RInrMXWbHQJKPhiBBe/24/rjizD8Csj6P3JYDbFBDOpKgJq5f4WdD3Wh/Cfo7CTVha7FTZeZ1ah5QU2x9n6h2rgfn8xAvvCaPhGDfy/CyH4QpiamoGjwq4FIjxO+pMo+ZAbix+tx1trzlHOGNXJomL1G6MmSm8pwfJdzYi8FoUZMXWTkVdHENgTJmCim87/vMBKsZB/7huKsPSJBnRvHVCdFEr0PTOo8mUl3zKkgFS/NIS255sQOjiM/qeGYK+0wyoSJdXOlZaGQt313lSiGy2/w4uK1aU4s+kCIkepCu8K7GRDYITafr8UJde7Mbg7iBDTFz9PnY0YLBiGQgqMq/Q2Rm1nM4aPjWgTkS4d+UuUGYmQLqQKK0w6VqInCe/NJVi2fbGqQejA8NuKMF0N54ps4KUw2jd0zfazwlmmrmy1R9Pf+UgvKtaUwcNUS7EYQQMpPhL9SQz8KqARFG7b3DalQN1XqhRs57epCGXkplCBG/R8zI1rdyxFF683tDusVJLszOpkM8EahpEJ0iJ2bOymxPCv0mUm24lwlmpQ+2Ufqu+pxPGbT8Nk13I2FKCYhabegL8LSP9vAmy/hiqCyJNweMWLLej+QT9GXx9n1dvUSEvLbn2uSV8fJPcVKCkka0GwYr5jx5L4951vwllRcOmkkNPZqnUVaNq2CCNvjOr4M3JsTCVInJdEy8K2aZOqliZFZZColn/ai7qvVuMUFUR02Bgx4bquiHRqQs8TA/BvD9IA5fT3ct54ZmQPHzmc6d7bhw++fCOSTroj8mp6ZEVna7f4SAUvQoeHUfOlSk3Z+OkYJs7EVXNTjJg5SuC8uBicCTaN5p81anF2kQIWYpIstO1rwsDPh9D3FCWNTk0bxXwmfiZYDomZfV/fj4ZdTUjaE5qKKbASWTqq2gdEZ0tw6u4OFDbSmCxyouxWj2qu6qT4BEZPJCx8ZBi92wax8tAy9Gxl8RyMwrWqCMv3NjMrQ+h5fIDXcPLCWTc3rxmfCXbPgT2ZdXXr8OrqN1DkK7yUBqqzBtNZBc+H3RjaFcSih+vovCLw7wiyWEy1gwJSqKAdigUnxkc62Jt3tKtUrfhTMwa2BxB+KYoScjZ0IEqeZ9Vh3jWXGvgPBXB+U8/sAhOdjZsoonNqYVoHfh1Asp/tlJTw/zaIRCd1VjQ0l065sdCm6aeLVEd7fjSAVa+0IvjHCMEOYfkLzfp7HyNv53A6p3mZz3WZppkJUQ3a77s4G2xOZ2WMad29FO5VLkT+GtUITZyKafWbLBzhsE429KbSNq/duQRDdFQ1G30Y/fsYetlAVh5sQWGDEyduP8MJguZFfOxCa2Zk0+l0JnR0GGfWX0BBuWMONTBR8dlS1D1QhXObO1FBI1N6m0c1WdyVGHAZY8Sf+ncE9LnlF40KQ/zBhW/2qrwJReq2VMHhszMwnKRzBZY3DbQp3MumMPPcYFJnN/lQS+d14vazSHQl9IZSJIVNTgUi+iyfFe9QysJr/FY9Bp4NcJTpVaMjs1sqmEIrG4GYn5Nrz2Vt40IHV7MiSxsUYgXPeW6gOmvCt64cTT9ehNiFmHJV+rgMgTJ36YQrGRUaUGNXHmpBrD2Ojge7YSuxaedyX1+MGm647OMehF+Oon1jJ1XkHXBWT2Qud8ihFpE6e7+PbsmjClD/ULWKeexiArGz9LPs81JUQok0O1FxW5H+3+HjBMzBsnCxU3kc2BtWr+C90Y3Td52fMuR502BesFM661Ze28USsvdLul0cx2WKVekSg80fAS3ZNTgOiSsbOz6BsRMTiJ+Lo+5rNahc48Wpz3dQ8tgU8qXBvJFVzqa0MMTW+XcGseT716g5EeGXUVxSLzZRnrM+kD/sYqoQwg4ecNjE67LT1dMMiWkXzjoqsh3svYus3JseVWamVsqRWL0RmhJxVoHnwxxpUm87/Jl3FdAy6nCskfx7mH5pwX3b/Bh8NvQ/oIEeAYkBNzkpuLD4sXr6VBNhRnb8JPnKIhMXJh5AIylyywqWswAZvYUirvcVZ1szG8sAi3OQ7kxPb6R7LdDA1IbmczCnRoPOSgDJuZW4+7JPeDXaknppCnruRX2VCIpHkNeF12JgUkOGDpchHo7IJCte4opX3mBzh2wCQnynOSZpBezlPCLimZc8hH829no5ZRHgIncpf4qmPEWwKT3Is/JUXQ5GFnRa87XbeQss90FxR5piOazIdUmdu8Ro6/wl5M6Vtrg2RkQjTHOjBkePYLLjthbdAue6U3jzjez0jWbPWOU0MPeqPF+Od9POvy7Z7BVzgG98N2Dzuc978t45wV7t3yncw2P6rblj+qv+25ot/Lbm6Wb8FwTKmeDMwdBWAAAAAElFTkSuQmCC;" vertex="1" parent="1">
          <mxGeometry x="560" y="80" width="43" height="41" as="geometry" />
        </mxCell>
        <mxCell id="vtJU19JeG5nQ4g9oRzDV-5" value="AWS DynamoDB" style="text;html=1;align=center;verticalAlign=middle;whiteSpace=wrap;rounded=0;" vertex="1" parent="1">
          <mxGeometry x="538" y="50" width="87" height="30" as="geometry" />
        </mxCell>
        <mxCell id="vtJU19JeG5nQ4g9oRzDV-9" value="Prompt + message history + other agents responses" style="text;html=1;align=center;verticalAlign=middle;whiteSpace=wrap;rounded=0;rotation=0;" vertex="1" parent="1">
          <mxGeometry x="590" y="160" width="160" height="30" as="geometry" />
        </mxCell>
        <mxCell id="vtJU19JeG5nQ4g9oRzDV-10" value="" style="endArrow=none;startArrow=classic;html=1;rounded=0;entryX=1;entryY=0.5;entryDx=0;entryDy=0;endFill=0;exitX=-0.006;exitY=0.455;exitDx=0;exitDy=0;exitPerimeter=0;" edge="1" parent="1" source="vtJU19JeG5nQ4g9oRzDV-2" target="vtJU19JeG5nQ4g9oRzDV-24">
          <mxGeometry width="50" height="50" relative="1" as="geometry">
            <mxPoint x="550" y="279" as="sourcePoint" />
            <mxPoint x="440" y="21" as="targetPoint" />
          </mxGeometry>
        </mxCell>
        <mxCell id="vtJU19JeG5nQ4g9oRzDV-11" value="RAG Embeddings" style="text;html=1;align=center;verticalAlign=middle;whiteSpace=wrap;rounded=0;" vertex="1" parent="1">
          <mxGeometry x="410" y="240" width="120" height="30" as="geometry" />
        </mxCell>
        <mxCell id="vtJU19JeG5nQ4g9oRzDV-12" value="POLICY DOCUMENTATION " style="rounded=0;whiteSpace=wrap;html=1;fillColor=#4BAB85;" vertex="1" parent="1">
          <mxGeometry x="40" y="140" width="120" height="60" as="geometry" />
        </mxCell>
        <mxCell id="vtJU19JeG5nQ4g9oRzDV-13" value="" style="endArrow=classic;html=1;rounded=0;" edge="1" parent="1">
          <mxGeometry width="50" height="50" relative="1" as="geometry">
            <mxPoint x="160" y="170" as="sourcePoint" />
            <mxPoint x="270" y="170" as="targetPoint" />
          </mxGeometry>
        </mxCell>
        <mxCell id="vtJU19JeG5nQ4g9oRzDV-15" value="Agent Response" style="text;html=1;align=center;verticalAlign=middle;whiteSpace=wrap;rounded=0;" vertex="1" parent="1">
          <mxGeometry x="690" y="290" width="90" height="30" as="geometry" />
        </mxCell>
        <mxCell id="vtJU19JeG5nQ4g9oRzDV-16" value="" style="shape=image;verticalLabelPosition=bottom;labelBackgroundColor=default;verticalAlign=top;aspect=fixed;imageAspect=0;image=data:image/png,iVBORw0KGgoAAAANSUhEUgAAAHAAAABvCAYAAAA0YEQFAAAUAUlEQVR4Xu1deXQURR6u/mPdA/A9XUDBFYVVCLccEdYD8EAI9yWHICool3s9lAUBOWVZOQTxAJIgIoiCKJeAimgC6qIk4MXtiqLiQXB9T9Cn+8fu76vqrq7qrpnMJN0zPezUe3lJJpPu6vrq+35H/arGGljY8r+MWQzNEt+0pr9mv895h/H9/hflK8oP/tfERbX/tm+uv+Z9n/tXU/+dC1r6lWM8L73L8EyyX55Ol9sv+w3GSyb0bO5Ax+yXANAduiyImQWi5QKYBdGVnswB0RpADNQpnpVTR5EyQU45gD7bk7WJNhmjz0RrQAEBaDS2WSZmAhMFgAoFs3Jq8sYjzEQJYBbEOOGTGJwo2kSXgZ7YLsvEzGCi1b+gBXmhnlAzaxMlG/2sixYTOYC2QHhSMIbMSNY7jZx3KgHMgujm8TIq7dY/nxioKGhWTmXwoCsS8PUlNdMvpxYH0BPJZ0HMHBCtmwlA08pAFsTMAJEDqBEwK6dqTtsWJ8MSWUTkVAKYBdG8Hhr59cSbl3qdGOkpu7FQNk6MLBMtDqDPiYkmiJecX59VOacaX7avc1599hv6OdbKvs+FtKOEH34+zY7/+wi/RtnpL9mpM1/6HjaTVvatfkuvcDMxmv1LH4gAin/9tgH/LsCqasIkkNdOnfmKlRGQx789QuAe5aAe/mav/9oyQxUdm8gB1IL4NIBYs2ot1rBWK9aqTgfW8MJWoYKVDOKfEZgAEqAe/novBzlqNlECmGoQa1StzVpd0oG1v6w7q3P+5cmMKztEg4kGCTx5+oSUCmfucYmkVofYa2o5F7TiOIDVF5+X+L3B1H2fF7NDBOq+z3difcJ3+VQH+xqAqQCxNUC7vDuxrX1c0GCrPiVJO/hVKf/+439O85/V5rd/ypCa8/Pi3z0VYbClmESQ6upVanHgG9RsEbd/6M+bH29hrx5eK5iptFSC6AMwLBDb1+/O+rUYwaqTXJra8W+PsgME0PFvD7ODX5ayk55BEeNumPHOxRQ0Yzk2ehmgXXFgmBHO+8DUBhe0ZDn0FQ/Qt45tZZs+WKYBmTIQ+y0hG+gfF1ceKmkTG5FtG91uuhE4MGvnRy+y0k+LbCn0DKqpXykG0TF6kNuWF7dnV9frGhNMsHHTh4UM6qEQXeVm4IvCFgdQ0M6v54ZimWTSbre1vZflNR6kXRcPV0KAPb8vX9qvTCsehsz2bHona3FxO/brX+je8WfffcSe2D2TwQFKBYhWXwIwXiwlrUqSTBzdfjrZum4aeABt64fPkD37vhzjH10mqqCAlR0bDGQ9mg7Xngf2cc6Ou1MCIgdQI2AATOzXciTr13KEfCg4H4uLp+kyaZRHv0GKO7nSJKdeZtUhT3ZY2/s1jxYe6/SXhoYupwRgc3dvhM8hcAc0USZWPedctmxokfxHyOW8V+/xKLTNsLMIRDzwcALxqnpd5LOv2fsw2354jfw9FMem72ICkA9kArKVgE3sUL8HOS3TeKfhpMx4cQQ7Y0umjtfZCeKcnuvZb6tcyJ//8Df72FySUk1XfJO2covCFgdQ4ld5EG/m8jmSX3Ib2bsVu+eJ/tsdP9tBnJb3lJRSE4Be+XUGp6Ili1YfAlC3M5UD8eZWLoDwOOdtH8sOUFz3/wAiQoxhbSdLwgHAOTvGhJqx4QAqBLGZUnEQG9VqzaZ2y9dkY93efGLjanbmZ/I+z0ImwhtFWNExZ4D23Ei3PbprvD13DUmIAORUAhgUiI0NAOLaYGPxkc1s6/7VbvynWwfxoBnk2FxCqTew7prfd/XFg3gWZGc2flAYbgLcYaAzlkHI6dq7DEsxCliQ1OKjm3lA/wNYKVv0HRvkSwEYsjKOs6LNQ+WXR3eO50lv3XwEy0SNgUGBqAIIsJBOi9WQ/yz5pIjnQT89dVh6O1FhInK3yInmXNiStSLQvJkX9bkQwKt/RzCPZSjP/AzUJlq9Hycnxhi827etQIgxrVuBBG3Yivasxrm1WZcmt/BViPIagv6T34tlIoQhYOgnp8R3v8QmYKuTCPYBEpa5BGgt6Tv9bIcE8foNZ2Xj+wU88Q1b6LThq//g/zfpAwTDRA5gTNujUTKBwbI9lGndXQCnUxx44MsSbgdQDoFVCcSKWGlPth38ylkHPCHt6BksOxHAiWRscE9nZd8BCn0AWMk2sG3vZ8XslYNr2PHvxPrjhI6LZaIbmZhxG3qbk9cBgkgANot/SkUFQEQogS+0udvvIYl8XVxFmXQ1q13EcmltEOuD8SQ22YEN8/0ABQqxl+wawNM4RL+oAIKVD24fY1ANVdn4pjVfl5PK2AgA3dENQk77txolAXxu71L2XOlSI0PUzgPES6kGpka12vQdNTEN0lpagTIK1Mg4tTKf0ir/KaoAkM1wTMjyIbvln7cfWsOeKV3ofbsOVgBMtBmo0czsyifBxMa1WzPYQbStFP89+U+RjTHJXHkV4IKdlmQppA8gozUkm1WRJivT6J9PEihlZG+d12B7y05/FVOSddbpZkUFEOBtP/SsJjthVLtZvR5r5nFi4rjyCYIIJs3ti84znoWZ9uJd7kzU54oNrEdGKhHsC+a65YZlZ2AvvSUPBtny9Su58oyGZEfHd3xcPueDr45RPFD3fkGDyAHk7PAKuu810bdE48TnRuzj74eDMe75gZr9qwgT1btHJcRwZ6XFHaEJCoBwYCC/CnTq2/3CUUE5lQAGDeKK23dJG9Y/35Y6ZZKcbSD2an4X69XMDSHuWNXWkDYMnokagEGCOL17obRbY57pysoottMpXDGbGFUmqgDCW713fS/teUNjoiOhKqeDkNO7r5tB8Z4I3GED958oCaxQKh6IcHLa1xelHLC/TuyYSJyojUGSNnHCTYtlPHnoa4QQo93L+Wx6cEy0ej7W1H/IQQA2sX9rN5R4rGgqKzqyySag30MJSk7bUaZn1LVTNfuy9I3pbOfRFw32WzdDlS1ZvE8B8BUKIVaXLPDFiZoPoVpHv0+VcAKcAyguXF5AmZx32ubS69i4Tg/xUUIcuLZ0iWvEE1jZN/YpjneK2HF2r9U+5wDhwV+e6+7WpviYpRAlibSb1xysuPVteaEN7xcyfOmA8UH2vFZ5Jlo9HyUAE/aAEgcRseB0SqmhFdEy0mNFU7TBTbTGprw40RkSFFH1pcJhU3vh3XxexphQ2UgFQVQB/Mcro0X5f0JnglYORAGgMlWCYmIVKm5acYdYSoEtmrrZ9dBcEgQnpyjjiAUg7reLCohFLapwpoK0iUiCQ0KdJgHkN9KDfX2s3ZGQPyUrpxLAEEBcN/Jd3i/I2G3Lrw2leNh5XmRs7u+iVwKY2Aggi8kmIqcZFIheAG9b2cZj/8ID0WWgZzIEwcQZPZfJUII2kjpq5xvXoOQUJfztPMXERk2lF+Gd7vxoM9tlOzgGFyDhvRh9EAM2FwqDVYpRz96gszxEJlo9SEJ9rA3IJo7vvJDlXtqBP8zUzXexAxRK+J/MeSkYOcWaI3KlZ37CbqYSVuWX1Vg72sIWC1hsUXvpwDPcU/3BWDFucO48k7138xGstw0gkuCzyQbK9Ut1BoUgp1aPR4QTEwaIAyiUQDiBNuflsewdWlaKK1sheKeOT4L4ECDmNb7FuMoBmS89XsTBxEKyPu7xQZzYaYm2pggQHy4ax/cvKpbJnqnByqkA0L5L0CB2azaY3XHVOH55hBFrS5bqD2Qw2EHJqUp11bFEohsbbsDUWFvdIK+7SF6xc0qSLY53OrGzDqAjpQVvzmCltG4YKog9HmkiF3SDZiJCiRk9RDy05YOn2fK35tJPnhmYBhAdUFAdkNdoUMydvGAlnB7YSrAyVrD/1G3vaIxVf9n72U5W8NYMLqnaowYkp8RAAKjMkQDltCbZosWDt/KrHzhRyqZsol08/CmiAyLGEfvywchrL9N3U6lAYAMqd3r+tcVTScfYSgVArNSjCEo9lKGMcqOQVCwQBw2iAmA4ID4/SoQSKFQa/XSeMleiBSI6JuT1FnJ6usWUV7wPIJUcLyabWcxreyZ2cmNAeKAAb8TVUzW7CO907Au9AmeiB8DgQVwyeBt5hWJbNW1lS3g90Zn9YdtEeR+dGqw1nZjR+pL2cVmJ/wUz1UMahq64UnqEqneK975B7IWcKqNsT+iKOzZWd5LQmD5WAHI6k2LBxrVFXei96wawY2WHMwZE9BmVdACyc6NbEjpNY/17BZyZzkkZYCIKgdHUGDEoEK3ui8gGmoBSXPrKeKfDrh7H4I2iTdl0J19W0jofQZvosNJrq6EkOMsGcWUiR6PACfIeUIQsjdoqaxMFgPaIhsHEAbmjGeJBtLUlS9ga+nLl0f4pg0B05nUNKv4FmJ3Ji40VjmhI0S9IcM9+mdYJPQNdKRAlgCGB2Kbu9Wx85wVGADOViSoAkzovldVxzgFEpkJhOD75b85kPzp7QQIC0WWgQosgmdgEsSDZQbT9TijhmZp6diZ63qnorrlfC/ttkgyE/XvhXbGEBo8WHiriP4QPquGPlY2qCBOtbiShJhsXFIhVf1WNrRz2Bn8o7HEYu7Z/petOxXDaPVQ6ahqYRNcT+TVNSQWPd+pVjVW375HTcdU7D7GXD4pySrX5+5VcyaKhC3I+WN0ebkxOjGHtIUDHZv2Y9+Tz9Fl8hZjPpsFSVCBqwb4LiMtEsCx/8GvyT7NeGiWWqSq4KKw9vvwlfoghALRHNCwmLui/ll1avQG/zahVeewbu0It00FsRBmcSXmuUzZp02CZCE8ZiBLAEEF8oBdiwdYcwCkbh7MPeShhz6wMZiJScJMVAIc8matLZwqY6DJQoWzQTBx+zd9kLPjo61PYa4c22nfLbBD7thjJ+lwhtg0g5hux+jq//QsZRKsrSagfsGBt4kDEgrkiFlyzB7GgmzvMZCaiBqfPFaKQCktQs7bRljqjIxTTJay0d8oB5OrpnTsBOjZNL8plSKmhvXPsdTZ7218D34vhOgCp807H3jBfnnuKZaelu6aLbqQQRAlgmCDWrZ7D4MigIZU2eYM4HC6ICnDjYKUoxEARlbPFDfEfqt5ixXjieUNgYteFCCNc+oXFxA1j3pe2YnDh1fKGmQxi4ZAimetcsONevsSkESEFTLQ4gB76hQFiwdCX5MZM2pevCXYmgogYsHCIvXWcnuYBsn/iSGhP3BYyiFaXhY3if+yANC6Vc2xm9X5ChhLIxmBZSW2ZBiLqUCfniRoftMHLRZgkWupA5ACKW8Yx/gGA+OcbHmDX5/TgV5pMseD+L+wSQ/WxTWmriMaJODbl1jZjee8RQty5qoPZpuuYeiZt5W2iBDBsEAdeOZohnEB7ds9i/hVE8XC6amyGtr1HHieNEGLmVhFOGJUkTBAdBrr3CIeJbetdz+7LE6c2OABqkybDmDila4H0QLECP58OtVWESn0aRVSlugbGRI2BYYLY5He5bBal1NAQSkxaP0zZbmWQkojL6bJbi6UHivBB7H5yW6qYaOUtICfGaGeCZ+LGP4pQQgIoKGjP0MwBEXUyy24tkmgt2UmbSKnk0NtSASIHkI9jCkB0AMT9aGu3Ml0zC0R4oFOUnVAzt47kW+gqsp7oBz05x0YCmAoQZ/VezppcJNxtDcAMYyI8UDgxThu+skOc0+nDdWw0AMMGcWLXRaxNXZGxn0TptP1fuKvZto5mhJzyDzRp4n6gyaBlznGadvxnDN5VrgUYJzoSql0+JDkddOUYhnCCA7ge64J7DEn06MvplK75ct8j9kxMWK9+Ok1qQbQ6P9SQnJjyHAjPoFYwd3pDw54MAT3a5veeZoW7HuROjD91F20QnxjqeqA4qHbGlhGeZ0gdiBxAIZ3hg3gBHfxaMPRlSfZFO+5nOw7S4m4GgTiGf6SQe3DtU7vn83PAFTNuP19qQJQApgrEvyuODO6JnOjm91axHbRKH2Um5tKxKTgDVT2oFim0Pz3bLa2n8WsApgLEKlRmCBDr2kVODh2/+f4Ee/vj1wnMlVT05HwqJ6QhPXKKWC+XHK7GFDIAPG+JPMCDdH7Cz/nWSJdaOXUkVHdiwpVTgDipyyIZUqj3xs8nCcDdBCacnA/JU+WfN8GxLK9fcWRLG2S/FwjAUHiFL3z2BQ4OitXguDxePJWDF3bdqbcPXlPnY6B8zhTYRJRawDN1YsNYA4bZfqzsEP8zJPfMT99zUJ3XAIeodBMwCyXRrwZgnJdqki2uQUc+AzQogThE1vzJoupVcMbMOjp1ih8bpjlynpv5k1gx++Xva3IhhtUJXmiMkUuFY4N7NyEg4aG2rSc2R0apAbQ9dDjDHvpohP04vF1Cof5gUIcUgWh1mk9eqMkLdOZzCpioTiCACWbie3nMDBpoMB2yiFwtvh+jL8h5VMr4TXIqALSnVbqZqHdQ9KZujRyG8ANSh+O76tUQFd4olKoIW7HVG04SNp1Agvl32rPxCUmz/BSZZBMZ6ZTTTvNz4p9SkSYmqvasvDgRh/moXq0+/ha3j5lexi+fyWtuBYCKskdITsvtV5pCDN0QarW5UkRS5Z2ShDoAZkFMV3mG3xO1p67GNrN36gEwC2KmgWjdNC/HsCLv+sBRdGzKs4l+b019peLBvu+6KaoAj7eyzwE0UzgLYkL1nWkGUQKYBdHll+7xJZAZSSeIDgOd7vvd7SwTo8xEjYFZEE2pBHqNz+FoMtHqCCfGa53RXd+LWSZGEUSr49wG5lMqsiAqQbmTjooeEwWAtgeTZWIGhhgSwCyIKs0yJnfqMlDxYLJMzBwmWjeShPr9FVPxQtaxkXNc+yG93ikHUMmAKtFsFsRY5RnaeKU5xLBunAMv1M5+G5KIWTmNuJxyAPVFCE80m2VilJn4P/2fKy7X1ZhFAAAAAElFTkSuQmCC;" vertex="1" parent="1">
          <mxGeometry x="119.63999999999999" y="80" width="40.36" height="40" as="geometry" />
        </mxCell>
        <mxCell id="vtJU19JeG5nQ4g9oRzDV-17" value="" style="endArrow=classic;html=1;rounded=0;" edge="1" parent="1">
          <mxGeometry width="50" height="50" relative="1" as="geometry">
            <mxPoint x="160" y="100" as="sourcePoint" />
            <mxPoint x="340" y="139" as="targetPoint" />
            <Array as="points">
              <mxPoint x="340" y="100" />
            </Array>
          </mxGeometry>
        </mxCell>
        <mxCell id="vtJU19JeG5nQ4g9oRzDV-18" value="AWS S3" style="text;html=1;align=center;verticalAlign=middle;whiteSpace=wrap;rounded=0;" vertex="1" parent="1">
          <mxGeometry x="109.82000000000005" y="50" width="60" height="30" as="geometry" />
        </mxCell>
        <mxCell id="vtJU19JeG5nQ4g9oRzDV-19" value="Client information" style="text;html=1;align=center;verticalAlign=middle;whiteSpace=wrap;rounded=0;" vertex="1" parent="1">
          <mxGeometry x="210.00000000000006" y="70" width="60" height="30" as="geometry" />
        </mxCell>
        <mxCell id="vtJU19JeG5nQ4g9oRzDV-20" value="" style="shape=image;verticalLabelPosition=bottom;labelBackgroundColor=default;verticalAlign=top;aspect=fixed;imageAspect=0;image=data:image/png,iVBORw0KGgoAAAANSUhEUgAAAOMAAADdCAYAAABJ/sWRAAAgAElEQVR4Xu29B4Bc13nfe1F20XshegcIgAA72Ek1kqpUcyxHenKSF1uy4qenSLEcO0qUqDm25CSWkudYVknsR0syLauTqpRIimKFWEASIIheSFSi957/7/vOuXNmdnZ3dnYW4OzeoaBtc+/ce+75f+X/tX7n9MqKV7ECxQpc8BXoV4Dxgj+D4gKKFbAVqApGlGW/fv2yM+fOZmcLxVlslWIFGr4C/YWvAf36ZxFr7YKx4Z9cnLBYgWIFOl2Bqprx9Nmz2cD+/bM7N67KHtyxMRvQ0iot2em5ijcUK1CsQCcrMKBflp05dTK7edLs7LdnL84i1trVjCfPnM5aBwzM3vPwPdk3nns4y4YMy6RPi4UuVqBYge6ugMzT7NiR7N1Lbsi+fsObs4i1dsF46uyZrKX/gOwDy+/Nvrp6edYyeEh2ugBjdx9DcXyxAtlAgfHU8WPZ7yxcln1x2a1ZxFqnYHz/8p9lX37+cYFxaAHGYiMVK9CAFXAwHs3et+ia7EvLbivA2IA1LU5RrEBdK1CAsa5lKw4qVqDxK1CAsfFrWpyxWIG6VqAAY13LVhxUrEDjV6AAY+PXtDhjsQJ1rUABxrqWrTioWIHGr0ABxsavaXHGYgXqWoECjHUtW3FQsQKNX4ECjI1f0+KMxQrUtQIFGOtatuKgYgUavwIFGBu/psUZixWoawUKMNa1bMVBxQo0fgUKMDZ+TYszFitQ1woUYKxr2YqDihVo/AoUYGz8mhZnLFagrhUowFjXshUHFSvQ+BUowNj4NS3OWKxAXStQgLGuZSsOKlag8StQgLHxa1qcsViBulagAGNdy1YcVKxA41egAGPj17Q4Y7ECda1AAca6lq04qFiBxq9AAcbGr2lxxmIF6lqBAox1LVvjDqIXu/pIZ5U92ePv+Fq8+sYKFGC8AM/ZAKgu7OfUtLafYEhDdr4zVPLib5Ug5c/n9O5+mgKWv/ECXHzxkT22AgUYe2xpOzpxhJqPKWHEQqeaMUVnoS4vyFPr6Q8twNjTK5wru4A603z5/+U2KtouB6WrzqAxg7KsZsvyJzvIz11g9Dw9zB76mAKMPbSwVU8bQIMRKqyZmZpp6KyDqX82WNO9GEJ76syZ5PfYp/0D2MyotWG1xav3rUABxh58pj55FkVY0l7RJ4wfywMYNrA1m6hpXhcNGmbvP3L6dHbw1InsmMbvnRY4+fno6VOaFC3g5jjsAJDmXwL24Iv24D0Wp27cChRgbNxa5mcy7RVQ41owaDQs1GhWhjF6EzXf8tpxk+3fJaPGZWNbBmXHpRm3HD2UbTt2KNt14li2Yt/u7Il9O7NjGqSZvzhP+Fcig0p/Tj/XTNicMOqBGy5O2ZAVKMDYkGVMQeBayZWh6cQEgGi2/tlQmaNjW4dk04cNz5aMnJBdN35ydtXYi7J5w0dLS7bYcbs1Gmz78SPZ7pPHsmf3v5w9sXenfj6cHTp1yjTmfmnOlwXU49KYOQsUfchKzRiBGFnawsxt8FNvzOkKMDZgHZ2PcV8OIKWBQ1eEHsIYoB+GCmzThozIrhgzMXv95FnSiJMMmAB0kIbQRn+QEdKYqHw9oQG1h06fzDYfOWj/dp04mq08uDd7fM/27CVp0OMC51kLkfApCIJgo4YAiZmrFYC02y40ZgOefuNOUYCxIWtZijtE/zAHJn6eoDispTWbM2xUdplAiDm6eORYA+T0oSPMuWuXmImxD53liACJNtwvc/Wlo4eztYf2ZRuPHJA5ezjbc/J4tlPa9CWZtvv1fSYQ+0tI7I9+LvmYOQGUnLshy1CcpFsrUICxzuXzuGBkSfgaNr7TNf43aZ6WfgOy0fID5wwfld0wfkr2hsmzs0tGjsvGtA7OWgb0NyWG9nQN6NrQzdt+2UCBqFXacqBM2whu14Cc/ZxNjN6pGfDrD+/PNh89mK0+uC97av8uac8DAuSJ7FTQrPYVzajzRyD65SbEUhEeqXMnNO6wAozdXkvPlgnYM6CYVtI3LTJJl44en904fmq2bOwk04gzho0UEAfJZO2f+5Sgd8uRQ9lT+3ZlW2V24hMOkdmK1rxk1Hh9HZ4N0s8R4w5FsKSx0zJhD5w8mR08fcIAiAkL+bPp8AHzObdKU64RSLcLtKd13ty/DNoy+rRFsKTbG6HbJyjA2IUlLI8PxpyZyJYAyHMCzQDzAUcJcJMHD8tumjA1e+1FM7LLRk/IxrQMlm/nZiuvE2JN98mkhJgBiL/a/VK2QVrtiEgZfMu5InSuGnNRtmDE6GzioKHZCJm6wwa0ZMP1FbDKwzRf0YzQQMrw5aDAuUma8kWBcr1A+eyB3aY9dx0/Zr4nbO2BU8dF/gicKZkTNGV34phpqp9Lptpfqc/dF1MYCjDWsFciK8rGde/Qgxdm6Zml6maqjMls5rARAt9MacKLsvkC0fShI7MJAEngsk0eiB7MUoD38Mvbsp/t2GyAwe8jpnjmrMgeaa4hAvZIgXqsQAywMXUXS7sulbacre8B/QAUccrehmsEaMfPwryeMXDvkJZcf2i/acp1AujDLwv48jndp1RSgcUwuYP6XtFrDkaCEUZlQK/htB6XDUZ+IML6EigLMNawSeJb2mhGy57RX7WZx8oHXDRinIUpXjVxWnbpqAnZZMUQWwWoaBoStD8o8mWbTEbIF0IWj+/dnj26Z0e2WySMI8GyBII/RyYOKB8grTgomyZzdY605fzhY6Q1R9nPo/R7NOYkgXXCoCFuzkaNFPPrgk+6Q5+xS6EStOWPtm3MHti91a4FNtY+ObDB3dWMpYRbhFT4Vy37Nk1ggNlN2GgDYYrwLjynZn1rAcYqTy4PVaADg9ZL3xbNQumTrEVABCiLBcR3zViQvU5a8SJl0wyROTlAfzOfTP+d1abEp1snEN4nEPx8xxZpqP2mDS00EUiZ+DklDcXR/Y0QbZHmgsxp0Q+jBP5pQ4brs4Zls+SHEiK5dPRE/Tw0G0yIRP8RSmGD9zdteU4a103kA4pR3q9r+P5L67N7dR07ZM6adgS8kDx8X+MrajML6Tiic2HA3fPZ/EODcy0h+KL79bVlXTj0jBFTwf9OF8EUbL36usabeIW8rQBjBw8iZtJEFtJB6ht6tMCAqbhYzCjm6IIRY7Or5d/xu4HazPnGAoTa/KsFwmeUSfOMzNGn5R+uVpxwn37v5iF+Z1tTMQoFV5khVGE2KdqyfzZcaXT8G6drgRiaIZN48pCh2ZTBw7Op0pqAdKpIoJF6T6r1Tsp0/fXeHdn3BMa7tr6QbRbBYwAM113P5m8DSoF6iDT23BGjFNIZbVbCaJnbrfqMM1qToxJABwjHKFSzTcJgo+KnB0Q+2VpImBgJxrKwLn7HdZvQrxCsdXoZBRjDErlcD6lruTYsJ2fYKBA0E+SrzR85JrtOKWyvmjA9WyI/Dr+QxYzawTSiNt1pnRNf7Ztb12T37tws83R/tleb8PS5M6YNTVdQo2i+Z/BBwzW5VkW7hQqOoOFikrlp6KCROA9aGuJopkCIkIA0WiI2d67AMEHaenB/kT46B5r4mQMvZ/e8tCH7uy3PZxsFRoDYFTM1gsOTHErakHMM0rlGD/RwznUK51xt/vMYM6UhngjfwADjx26S37zq4B5lGO3S15ezPSeOW5JD+oq+dld90E53/yvsDX0ejAknmktg/yZlArGjtEG0yS4bMyl7tXzCa2QWLlLgnmwaYoaYpLkG1bH9gwYgUM9G++9rnzSiBmIFkyzGQmLeqmfDBEAmAsIyZwyQfk2VgC1dpx/M5w4XWQTxM1Lm8ywRSjcKEDeNn2ZJBviXBsb9u7N75Df+3aZVRuSYZuyKzxhAmKf8hZ9hexEGr5443XxnUvwwnbmWwRJkxE4xUQnJEMKBXIJR3iztiLb+zovr7NqiUDPCywRWoRnTHWnrwyK2yIx4//KfZV9+/vGsRQtNQLkZXybd7dpLvqHt+bDx+QZtw8bGFCSD5oYJUxS8n2oxQ7QhRpRtSJw68/vCPtIXQLdXkp6QxWdXL88e37XVTDA2vvtYrgrLksorjLFKDRTZ25RlLPNx4xWYI3YmGyZS53al3f3GtPlKv5uZjdc1A0aSz+/ZhmZcJc24v8tgLF2X30YM6ywUufRqhXLepOQGkt9HCvwm28Lb2tsnJ2WWoiERDj/cvjHbKJLpxBnl3QYztY2mbMYN18k190nNmG6MaJ6GHWUVFmYcQpgIOONbh2aLRo3NbtMGe/2kWdkk+T7UHWJuQabEbBn0F+YVcT/MQfxGBNcupaj9ctdL2V+seSJbrnCCESWB1nFt2LVWGjmjW/FgcyFitm8wl/X5owS+2wXCd0ydn90ucmmczFXXjDJTAeNmacboM9agGdszTzHfJ+mz3jJ1bvbPZi3OLpbVgJbELIakcU2X/5+vsWPYvkLy4FuvlPn8fcznzc9n2wTITOftivnczBjt02CMGiVqKKc00XL95WMNVXhivPyuiQZGpPySkeNzLWDaVP8dlpm1QZsG3+ek/EBqEjlu9KDB5httVw7pL3e9mH1h3ZMC43aT9D2xuVzLO3Obx+oExrECyG0BjLcJjGN1Xd0GozGgEfT6qnWbICH1GpmmvzFtQfaGKbPMLD3nTnF2QNlBW5VhRBgFJhdWeFRrq2lp/MjxsjrimhyWNrxv59bsf6x9SmGfHWbGAuY87MF99lJ2tU+CMcbBcvOOPSOFRYoaYYGxMu0wQ98+dV5284Rp2jBDTcojvY391/stDU0xQ3JC75Uv+KgqKDBpIXV+a8ZC85sI7ENSGBjXPJk9Ls3ovlkwU43q7/4rmtt5rWQ8pa5xTArGSdKMurfugDFfuxQgus8l8kc/OP/y7DZ9xlSFXMipRRghrFYf2mumOmVgZAVhWZDqd7FInWVaL1hozNnIyMI0f0PE0g+3b1Isdnd2kjiosc2uYbsSeun+6p6/M/Q5MLbxbsMDhgGcLbIBYoaAPeTMQjGSUyXxB8nsjBEwpDJVERT7Pili5nltHMIVOwU6sm1er82Imca5Tp8RGE8cyR4AjCJwlivbpqc0Y9wyZVksPaEZTdlBJDmDioCCmHm1WOU/XnyNCSOLKwo8BxRX/eXuF7P75SsjrDYpfAGhhQlPSIZECYied824WOs9Rr8bZPFU4rGsLabqN7eszo5I6PXTZ8RYZqEZw9NuegInBJbdx2JDnbWgPVL6JhEztwpMsI5oQ2PxgjlGbOyQNgVARNL/ZMcmS2XDRIUNRNoTSrhDPtP/NRPNOKpcMwqMj+v9FjerwTerVx73OBgxg0k8Cg5fi0BCqh6Ezb9ZeLWFMEguAJBk+nxx3YrsB9vWWx3mCWm4snQ3netSacXfEhg5fonMe/cxMwv/fHH9iuy/PL88O6hYZL+BEohRMxZmqm+PZgejP8/g79gP52wT/N68y7LXTpxhCdn4MwNlZp0TUL1rWz8RMUeUzL07e0iS/nGZW2sP77PE62Pycc6ItRyscAJgfKtM2/fMWmQB9zIztbeA0dZEZrYtI/fdajHNt0yZk/3LOZdY4gFNtUhGf0za8M9f+LVlGxFXzYkrjPMArKEyTy+RFfLB+Vdk/1TmPaa+77Oz2f9c/3T2iWce9mQArW9uphZg7CVg9KidSVmk9xCZoLcoHvaJJdfLRJ2cS1/MUjYUxbwU8K48sCdbIf+F6vo1CtwflbkVHBjTrkMCGN8ydU723pmLeq9mlNryaIPWUGb4kJaW7Epptzt03+8WmMgEAkh7tG4PSHD9uUI6T8hf7EfObGIR5Bk7ei9k2R8vvlaAvEy+5kAl34iTFl6/tP6Z7OMC4x4JQjNTLSvHhWNvfPU9nzGksyFlBxodP8xM049cfKVVQ8DcAVLCFFtEzjy0e5vSxtapquJl82Vg9yjWdbqef9qZeu9gbUqY17eamQoYe6tmjH19dOsCJkLocpn1d0gzct+A8aRAulu+Mr7iX4i4egLzHEvDtGkp9AKkCA/NUGLCH1x8dfa7c5daMTYJ9ST//a8Nz2afXPmopcuRzGCsqsmBAoy9w0w1yY5mPKsHPzCbNRzSZVb2+zJTF8pc4oEj2ckI+cmOjdlPtm9SZshOM1NjmVG6GYxyJw8zaEb3GXsxGHHotH4WRtF9D24ZKCEmX1lg/GezMVNHmJlKKdivxB5/4rlHsl/v2iKfT8H/Cs0IMGlHQgsSzNR3a93I0AG1uENfWv9s9qmVj6iiJWjGwmcsNwia32cMMSs97FaZTnOVMfIGgfH98y41MLKRyJt8UmwpsS5S2E5aMN+lukl3i2+ExO2Q4N1dMObB9HbsL09FCHHzDmy0Hidwgh/tWu6s1tCLoN8sAuYDEmjko3rBcz9La/u0wPQjZdRg8tsh4R7MTZC2A7x0QsC0f50SKyzJXv/tkxUC+fO5QOBkInA8ebwwU/PH37vA6BvpjUoXe99cByOxMWoOH1eN4eeU7nefwOiVBJijUSuEthcBmI3SjL5Rq0Eu1o/4Y+gIlJVgtDjjpBmWgUMMsLtxRrvzRHLAfhKSIKTz7xTawGSNpj7WBCVa33pxrQHymLKRyKixlwX+ByvRfpqxqaQY0l4EFwFXYL389L/Z8Fz2FWnHw2JWCzY1L1IrieJeA8Zgps4OZipSnSr6M2L9Dp46bdkfgPEXMlNNGptpG5OWS2xgd83UVFPk4ZYccrZrfe/GkAymXgcaso1mVIXJbcqIefsUwDij22A0LOZ5bKE5sq7tOoHp3y662uKGlGwBKnxrSwcUkXPXljVWUI2wA80j9J6ZYl5fc9H07M1T5hoQiU1ipdL57n4d84+qdPkJIFavWANxYaaW20S9BozSchA4FOjeLqn+/yp7ZIlCE2amohkNjMuz+wyM1PoFAIasmbJWHHX6jDnUgi9loO9AMzooS0isqkMRGIHgOBcycLi/d0ybp/zaWQ1IhwvlXuFzrPj6zLlstoL275q+QCGOuerbM9HirmhI1pO6TZpkvaAECRpvIV8mKhNorupAZw8d5QXRej9rijH7tDrc3blxlUrOKMDe57NHQpKBK9Xai5/Ld+8r+6c+yKbGPEf5OyJw5qj4FQLn9+QzLlK8jM1zUJI414wK7rufEpLC40ZPmL26zVR0RAC3mZ9B8rfdMiXYeY5m2JtVNGS5ZjytIuih1hALMNImcnx30+FMr+mF/wYouBj9G6HKFiyLdyjOSrwQX7Dk53oeL31d6VjH70eJuJmoZAHSDFXvb+uLoF8j7flTuQbUfz4nBrvITXWzXpZR293RezTjGRUKt9gGetPkOdk/n73Ys0cqwRg0Y26mNhCMUdrnieNadOoNrTI/JKLzII4oc4VBOGQB5cXI7WS1Vpqpo2Sm3qIOdeTZ3jFtrpV9dSs3NUiKNpX9ghT5qLdK+/7u3CXW1Y4Eilb1hnX0okCBnf9QaguCK+7Chh49dB/4vqpJqG3cq1ilM9cB1ongemXruPquru9qRkn2FmNTg2YUgbPIfMZqmrFtpUXDzFQ2IgyiTLEWMYZvlPYiNYyNHUuPHtmzzZKm8b+sZwzb0yMAbSBZCcbRAsRrlNSAxnrjFDRjY8AYt5sVVIfCajTkJGlEOuNdN25Kdr2ac/H9cCo4Un8v8X/Pyl3Yo7aR9AYiY+cn0opPickm2QLw5uq1BMki6B8Xv9doRj3ogQow02ENn+pDinNdohYV5xWMwd40zai43GBpxX9/yXXZHyrH08Ho7Orfq0/Nf171uBEgkCK5VuoUjKfVhUD1jCJw3jFFPqPuk4qUntGMCAiPuZKvSoocHRFulwtAuiFJ4dQ8QtKg5yByyPXFdF2rxly0jvyVEiyeV4HxXnWwMxRGPzEJ8vfOcL+jq89rxtlK6IaW/1diUy+IZjSbjdSyU5bn+fElN2QfvfgqK2yOoPsHgfEzqx61zuCnhNBYs1iLZiS0wf3hM2JCdreesZoBlrfeiPFXIYaZk+NlIlPMfLOYVvxIXIJhNF+WJmXKFmVVaH2qXjYcOqSJW0cMoNbFLhJl4QN7c+ZNXNO+C0aFMFr7t1iPFoL+70uC/m0JnHrN1DPWVv9BVfp/3oqLy6s23HeKYDydDUIzLro2+6g0Y2QXAdzfq4zoTxVmWaP2GDZvyvsN12CmisBRut/rFD7ATH19gwicFJCplo6hB9doukhAJX/3CoU7Pqbc01sUUxwbRhswxoD7otsA3dQBYViM0ulTcquKFVCfZ/bKPaoPg1HmlJKS58lnfANB/zld9xkdR26alZdQJelwytGMxcXL5ROl9YyVYEQzYqYaGDFTw74pgbGrZqq33bhFDanerqD/HdPmNIzAaQNI/aJNcTOEk0B5tTTjh5X7S4B/ooQDA382Hz6YfU0tP+4WGJ9Wps4x5kxWmqXJz73ZPC00I0F/gXE+mtHAuDRb2B0CR8ws2SdvFWNJate0kKOJOXa/iovpgVNZz9gGjGjGxQGMIe5WrhkjGLtG4OC7oRnf1AMETlWzNZI6FvY4my2TMPjX8skB4yTFdUl5o76R4uEfiD0lbc7ASLtIyB1A3EtjiR3p5T6sGd1MJZfSc1PlM4bc1JrMVGsmjKLD3/OqDYgK2FASxUmzgyjZgZkqcuIv1z2dPSH/yCZy5N3hys1UI3AaCkYRONJEEDce9O9+OlxHm8nzVUMcg7UxYDkYP7zgquxmCQUKkSMYvxbASGkaYDQrI/2AXh7KqFzLPgxG14z0YqFr2gcXXG7j12pnU92ItGSAwCBOUYuO60Xpv3P6/GyeGgcfPXvawhH4RASxV6sjW9os+HxoRhpS3aqGVO+0dLjuN6SqxeMqi0FGzbjAzVQaUHWqGYP5X8tn9ab39GEwKrQhv8zBOEPpcF0MbSTB61iozChw66ItQKIBqPagG9pmpYDRM4egdqw6yAtlHdHSriG00VDNSHc45abKDG9YbmoNuz+PdQbNeI2ZqVdaEXcKxjaaMWT0eBy1L3iJ5YvZh8HompHGxK/XZv1AF4P+uT1lKate9EoEDSKHth1WsS6tQOD6uDTkIaXYAU7HXuitw/c9DEZCG8RR3y4z9fYeCm1U4rMqGKUZYVMLMLYvzfowGJPQRlJCVbOZWqEZ80BDyNXME0hzAR9GniVSvyyLp0c0I6EN5aaqt097ual3itFk1kaX2/t3oCELMNZgPlR5Sx8GYxLaIM7YVc2YLGYa9M5LncLfy2ZjBKr+fGrGUTJTb1FoIQ1tMOPCZ22oc7fa6cfBN9UyXuraVnkme8Km4jMq3lhoxkIz5itQIheYGUJowyv92wb9t2efpbh4+yaPDQYGtENfpqNCQ64gbtII1GDe5j6j4owfC+lw1YP+9YU2XitfDTMVprfRuanVtlahGesSYX0rHS6n3k1DlUIbbUuoTippeafqGR9Tpb/AyLzADgLQZelgbQtd8idT2da/zEwVtW8ZOCJw/nDRsnYycLoKRkIb+IwicJLQBprxWbWdvHv7huxOacZNPWymWpyx0IydIrTXm6mmrGD1iFnFagGUlP7z0IYSxUVsdBraMMUWaiHjueqIg8Xric2ZuBIri7IOc7XGGcN1RAKo0mSOZV6xuFihDdhUiBxyU+n1yuAbAu7/v8C49cBeVdKHycUV2rvTHVRdNZaEl67hChE3H1GckeQDzFQSyQn6F2xq+eL1ejCadZgA0otiaSh1zhKWyZQhzvihBVdYpT/Ndg+e9OLiP5NmfAAzFc0YC2kNiFVQUPOu9YOtEIpOdXzP9aAZ1WHuY5dcL814tfq5UnTr9X9/v+WF7E+p2iBRvEu5qQptpG03FMIhcfuEKkTWqIL+QbW2uFszGmm7T+zPlX+pU0DNt1TxxjTOSHXGFaMvsqykq8ZOtOoNQkqWgSNBYBk4KiK2oH8R2shOKS79vkXXZF9adlveMJzlberi4tx0jLgJ2R1RS1pnM0Ib1DNKM1qlv6ZNeWmPwEhDKjXgtR44tCYMg1dSDRv3oPeuAWLtx8bKTFLzFQMgub5QQsXY7X+Hz6geooMG0vPFBck3lKniieLqIQNEu5AoTgZOZWjjNM2Z1eRpk/rCUpa1X/WE6j7TI2Ck/nKKUuAuHzNBsdfheRlVCkYycMhWKstMKuKMvQOMsZdaTK0qAdDZPXY4HaoZanPDuKmWm4pfxaYhNnhK2pFx338jyf0jaQ4mJx3SWLNSuCLkUCZlPqUWE+3rE7+e0EMm+qDWoKmfDWQlA4hSrndNv9g2rXXW1l/vUglVBGNX6xm97cb0QODMsbYblCjRpJmWFofUGZ0eMzbsNQiI7s7GKq2/a3+6jo9tGWx+MLFYbh0wfkNVGz/QLMan9++UZnQwxnaYRdC/iTVjSs7kcwqDiWpqXv98OlI/K9ydJCl96ehxVlbE2LeZMlcZgIrL1F8bkwlKj6jk6b7dW60CnQE3DL05qo1LLDKCL547Zo2UVdpHDWhvTjpxBynB9QzStdBmY4kKm2+VuYwWu1TfU4QLEunYepfMVCsupjmTEURRs4akgQT/7bXdIFGcQaa00rcOAvrnfdrIH+2O2d2JMYvg0/33h5EO5BZAA4z4q1RtPCv/9biEAgIS8NrlmHDoW6+m9xnb7KNAQLhZGEzBoH3GiVmkgzhV6Aw0XapNP0+hDbqTAUTAETczgNut1g80UKJ1ICOul6uzOADdpsp032FxCnHYzLbxSpOrHLBBE8a3cJxl4vTz6VdKTn+ViI1rx06yvq34sKPovo3w0Pm5DhjPz6x8zEZrYw6n4KncstXabrz2IoU2VEJFOw/6psYhpudf+wS7O4Dx8y88YWBkjMLJ2AEuJlNUGR/e26HZ9GB0x8pHcbtIjbsVJOBcZQJaazZZJujCEWOzK0UiLNPGv0xgZOM7AC2UmGsMpLgZlAmZQavBh1R9QTPex+RP4mcdVn9Vr8OLIsHhF90dOy+/yU1SJ0cw12gMtUANsG4Q7c8EJwTEYPmJDu9+8l3PqRHVKTORv7F5dfYVNfTdSZt766YS0GcAACAASURBVN8abrOKQisHY6ntBg2pIKrIVcUUPylTFT+NTt/llfUljakB3rlA4zuMZutlo3uI1xlN0vK/RRER1yU0otJzihYFQ1C/qME2jADIm22laYKFz9gcPmPcELmKMCCmhqObhWggBq5coQGot4pJZBQ4cxjpWsaYaxs/FhBzWuYRfhSbdKjMJQu6B82Gn8P8DZokAUpaCNIuApKHXqCnmKybs5GlJOcy7ezotpECAO+WiVMtI+VyMbhcz1DVQ8b9hxl5UGYbRbf3yKe6TwNk0MzH05q/dsIqlZoxz03NO4oPtofMRGU0LeY3HdR9KjOzEX2cG/dOgTOMcySfYp4tkOJvaO44Ng/hcUI5uDY8VX/zsXFuj0OKsbYMtcH6pKyMIbOMUMDyMHM5xmfDItRrpBr8QygrLedqo1WNFQ8hr1eIym06zZibpdEcNTMw0Yz6/SBt+EkiZ4hpMQ3qGmnCZQIkZiB9WZDqfp5+lry94/jhjNHVW2WOHtfPEDsLpEWp6Bgh8qG0T/qZFtkRyqJoJwhgYAO3qB09hIshyrgQNHQQCvp2sMBGiRVAZDoypVYMZTWzMXwAm5dRaptU5QHL+dje7TbbcIPO7QDx/qK5MOpUM5ZCG+8IHcVjQ6p1IqgQKExVfknVJEyDMgs6CCWuhXUEVlH7AUYAx7rh65pVEfxXAMdaRj84ugiu5SMY/TNoQoUwQAjkWjkYNDkIu6EZHZBVFqcCdDW85bzCtKnAmBs9AYgln8zBOECgZOT39GHD1W5+sjXvvUGbHgYRLQhxw+aK7SzwU5DMj2vTf0fzIJ5Q3SESfPGIcWpvOD177aQZBmDTENZ63v1BBpYd19gzRsStl//4zRfXZN/eujbbJyBxbmBjOsHMVLGJAiKj0mjMRCYMRcijxZ7ip0bDjWMgjYhv3rdzq2ldumljDp/QdRpllOyw9jRHGzM1CW3cNlHFxYozomGf1bzJH8vkhqldr5AJGjD6u4FqysuYcpvDPIEgxsIFtPlb0NipoWqehC+Gm+ASWmjSkmmbS8ccQV3RjGkYi2V316CTUFPiy+fHmAztyic3FqtNA0bfZIG8SNcghCowExn9fdWYSQZEWmDgF6LdyhKgtScOKkyxST1YVsr0w+R8WiBEwzEHEDU4RufBn5unfxA9DAO9RC05qFH0J+3mF98j3Z9Wahlahm7YaBzaDUL+wNwCQiYaXzt2sszkSSKNJkg7Dw5b2jXoUYHjBY0mf+Tl7dmjYm5pb0+PGHwp+zxXtQHdHZtXbQgcWQLMs8BnfJN8UwSTJYqTDifyBEZziz47J6OiQ9rYfRbOFtbNUJls+gicLqqq9O0l77TCTA3kXdntmPVSvo7VztUjS9DBSZsGjEHR+K0EMHiYor+mIHlbQLQYw0pp74CJikbzrezkA2lge6V9Nsvse1SaBxMNE3OXzFR5ffm5kY62VfQgp6vekQRrwg6YlWMEJD4TM62kSTKFPE6ZqQvJ84C6wa2XVuMsV8lEvl0a9iZpReKYdj1Bw0Kg7BfgXpSZ+ID8QoayrpaWMvON/qgpAB2KOQFSm2ZUQ6rYUVwamdmR3e4o3hFgavlbCnbz2eITynVu7RgoY84TosxWqr9Mb/Ui1bMyf9jWD59Y8zzQzJbJ5GRUNDrs8qPEvwAasinA6CafmzmBEzCtwyQjQgM3iZEkYE42DX1QJ0qzARZ/zLbCFiN8VNrrsZd3muYiZveifEQa5p4m1ACDag/Cg/CeHKD8VaWowboyoOViDXehbT2MLMwsMxl5oG4SZdlhkS74kxAU+EQEsqdpKi9almvCVOb9EB+8lyGsj0obQs6sktm44ch+M31zn7DMFIBgiR5a+/u10kztuFXjejWFWpVtOLDfA+5x0tb52IiRPKnVwUtu2cNFvug58ZMIU3t2ev4XSSAzYGe4nhOgxDTGCoGI2y4BfFbPJy8CSM6fDw4ya+z8ma1NAcY8KyNiUZJthDQUxAzZJZhhDK3BDwOsNm5ai4j/t/v4MaV+HZMJudd8MUgRWES0T8n/iePeAtZzizDEDHU+ADROn3mV2tVH8gVNPFXazpMF3AQzrap/MJZkuJBJA3kTtbld04mjxiYyiPVBaee1CQidFGajmaPl5lTYKLVYcW3YVGnG25Vh5PMZZ5R1FMdMtXrG82amlu34wGZGzVi7QowmQrnrIs5A2nCoCLdxumemi83TlCusEeaXtEjYQiTxTOhlu06+PmGjffLJaUDG84rCO9eQXbikRry1KcBo2zydeiTzbqaA8EcLr9Fsv9kGQkIDaMsIRA7ZKHP0fgGQWBbFtDyEA/IXj58WIRI1bdCeuTcTTMj0wRgq9L8BAtZwfc4YfR6ajgr698xcaJrP2MjwRGKXszg0NCp02EaugVDFPdvWW+bJNjSo7ifO1cjZByM8uk6/V4LRGlJNUnc4+Yy3KeVvnKo2GtHevxGbr55z5KZ6FH5GkblBP0rPhfpUhDNkGUw6v4O048WxrM8hAZIQ1RMiy+hqTqI6/Yls7ySd+1wQdm6N1HMf1Y5pDjBGwiRoHqQcMcPPLL3Rmhy5VjLiXxvtlILj0jyS9k/IDIQppVwIKRibQNkiB9B1ZIZEzVmKsqN2nYvtL2BC6lALeaV8STJ5MJOpSuDRO9gdhodlDhH6WCeNTFzyYcxlETU23MXOp/eVzX8s6cBatGH6YNuAMVRtmGYUu9yoWRuN2oBdOY9btCXf0r7Tz8RuCRvh05PaeJ32BlbLGOXDljnZUeLqOOK4WEhPao/8bNeW7GHN+dgm0zXOgixNBisRZ1251nre2yRgjPG1s2aKXKSFZ0LuR9SlGh+ODUg+6TFpPLThr1Qa9B2RISsEwgOEBrThIUSiv2kLlfufLv3iKydN7C2lyopKKpeHhcQdqslRl4wcH4a8kFc6UQkFraalwSNhEEqUKBX6hTQiJM8umalHpQ2h+BM3OFGKwUy1K+jaq1poo3KMeN52QwkF+IwNb7vRtUuu+d1uwZujGI7xr1OHjLD1Z1Dr6yRwsJR4r8dBXRvacw37BA/Awir622GZqPfu3Jx9+6W1BkiEdgx92TbhsDqeQ803lbyxOcDo45gMTDji+AGYIlSPk8Hisb9MQftD6k/6gs34Y9PvFWmTEz9m8rk7Zhagf8mJGn8fJEYyFdc4ggCHQDikYQ3TkjpsmB4+pioSmfgkmTWYsQgANj6hk79cuyL72c5NiiWezEdp+9k9RhpFQlfBV/nQq4U2rKP4NM9NHa/ralYz1Z9XsDj01Ug8ZVItk0DGXXiNgEgoC4fBEuD1dlwDBJ+lLer342Wmk8yQEj+QbkzB+gcl5NNw+mXxDFTH8OhLrnt3n0zn8GwOMAZChgXkAZBn+lpteMB4pQgVMkMwL1aKkfzUqkey7ysAb6ZoXpLTRv8EKUlYpEUTk1osWYDwBBkwMSukjL6N/luiVO3xIH0FSh7wxWJY8WF/V6MCZstk5boIXRDu+Oyq5dkjqgDxtLk0iyZICHvw3U/PqgRjDG3QHc6qNuRDWtsN+dB3SzPSHa7RbTc633b1vSNPurfHSYZQi41keJMIqvfOXGypjvEFAHfKHyfbh9pN+tfCr88S2z5zqPuSpDzyO8g5XAYSN76t5I9H5EIcZCxdmqyeEGn1XX3nRzUdGKmIm6xWGa9RJQKNcQEj/hm5o8/KEf/kcw9nd6t7t2s5CnRL467Trmw8zOEyJwnokyo3S84+hMpdqrE7oAeYyfyMpVjWkCpo0hzW0cTE11M2DlX6+JB3yFT657MvMTAiIHbroTL45r+pQmG5yIJ+tLdAcgdn0DRvLblbnT9Le0e10MatIejPGHHS79ASkBZ52w1ZEWYRXMAYW023l/vherfWdpiyid4mIfNPpi0wwgatj+mPUKUelQwjUhZ3CmiwqOTGThlCYshFxjDDwCOMEfDkJOPikIn1P9etyF5UAkdGhlQQtrHes6brrPNNTQdGFg4TEJ/xDzTHkKB6BCPZNJ/WHMPvAUYMv+AzhF1q0hRtOUokC9T3QsUNCVNcI/OSGfS/FFj+q6r7V5H8LfMmzT0viz0FYJpiDAAg5kimDYF1Zm3A5LExSLezKVRrfSRcKZ5ZimF1laTp6FlXDW1IWxubqnS4sYMHK73utGKaB6Wpt2U/2uFtN4iBxns5n7G1ruzb9N4IEU2QYEHjw2oTYkLT8dyeV+LEz3dtzr734jolo++SX6hMpsDG85wWy8enoJzm1QCT0BR7CD/yhyom//hzD2XP7t1lgjP6mr6funK1XX9v04ERpxzGkjn1f6ReIQAp1YyfXomZ6poxmqlR+aCFRutYhna+Tg+QGCUajFDFoH4DjXn93xtXKvTwoqTkfqtgcJPSv6avPB+SJxRHwonNu0MpZ4Bxls4LGEkAeECE0hc0hcrAWGGmNvr5VqvasME3FtrwwTeY4YelPbg20vdIDzQo1sAwd32LNe6IGFfEGcQFwL3AGkGQkltL/vARsaTf3LI2+9qW5y2cRUzXjqOYAOGpx0gYDPC+W37mBzXWgfgxe4jjH5Ar8Z9kXZGMgbVleVAm1Huexmk6MMJgjpd5whCVjy5cZiZme5rRNWKmFogDrf/KYtHdABHz5NJRE0wzkkrnjE4/Oe5H5cBvy/5WgPyhAuKnVKEQp5JWVp6nQX58xvY0I5k4UTNWjoTrCQ3UNs6oWRsKv0DgEG+MG4/3oV3IBMJEQ8iF5eoyg9s4uHV8phja4FnxzIntmiCFkKG5l1wGfP7Pr3ky+/L6Z206sjcu4fGWRipgIQHe3561OPuUwmPTxcZCtrEGy2XW0uKEZIx90qhUscQF6Ynnld5x04GRB0B5VErglGvGR7Pvq4oCLUiQfqiIGZK1l8m3pMUGXyExvB+LPySOx3Q7LL8Cv+GvVfT69U3Pa5PSsYwHLc2YsqzBNM2pdtosStpeGsxUOqHlmlFgJO/0C9ogNrk49GBNQdPIzdxeaINEcWKixBm5H9uiKHX4I/u2kcZyI++o+rmipsJlNybawhb9VQ52KPv0ykezr6x7VhaAsmrw0fNIiL7hOfJ7ffubsxZln156gzHh5o7qo5gYBphJzNiuRABrsRImjfX0zMimAyM+4xRJMgicD6u94hWq0gBMlEPhM35SZurdcsJbBQ7yQr2Qd5qVUs3RzEQ0Qyu+QHhAgHGvpOmTqpRYoUqGVToHSeRUUWDOVXYSz+n1sEeinzVYJhP5qlTt/99zllgCwGkROzvi5GL5jGjGNgxdAxjUNuZz1HLadLT3t9DGlHnZm6dSteE9cLjunpb0PQ9JMGVBQ7NueFaEt9gDXxUJYxyBac1QZxo1JGCUFLpjxoLsU0tuMFMXMx3NSPXOfw9gJHf5jJqTeRuItgK50ffXlGD00MYMjaYGjCU2ldgiE4LRRHM0H/ESNZxCW1ExAe3NBozpcnw9fEaJ3crWISTyS/l19LcBhJ636qrDCcYkYTgwevaAeSFpJQhaBUY+480CI6GNucqLdAJHFRk7X8w+LzA+YT4j1R6QvMEXiSGTBlHnbeKMzNqQSY9mxJ+FcUTIYJrCOsIyQno4MM+Pb1T/Jo7aW2SLngOkE1U0uBoQ0piphDP+y+pfZ1+RmUotaLQx45pHFgZ/859MX5B9VG0xKQDwZmX9LTPqv+p4/HwPc4XSvfMgvJoOjOWhjausggJnHrKFinUC/hATkDPzpAkxH0cphBFnV8SsjEPyB0jW/qHob5x26gf3WPc35YkmFfttgv4mhCNUQ0YIBI5CIRQNv2XyHAttECohcExq3v06P2bqr6uZqYlmND+0m6CsHtrwKVSYqRA41t1Aa0T9JTWdWAbWva1S8NSPmh450v10F5AIENLdbhGrvlSaDWByD9SAErxnRDla7sAJAZI1jT5jCGlR5fObAuN7ZapOVHVHrL65V8n7mLkUeVPN4+a8B7S6ng/VtWVoOjBipuLzvVpm6h9Iql0dQhuYK4ek0V7QBsPOv0xpaUi/6AzwHGMgeL0YRFpZAEYShTFv8RldGSZ5qzyChM/O4475GrvDha8yRQQRXd7eqDDCrdLapOyhgUhKflq9Xr684dnsJ3rQe4hhWnZHiOvFc3UThPE0bdnUpGrDGlJ5ojhtPbj3n2iWyGaZdi3pfSf33LXt1LPvdgbbnETrfkBXv9+asdBYYvoIUWcKSClH+4U0208kaAHkHmXU4D+STwyAF6tZNV0gqFG9Sgw4gpo9c0D7h0oWBh49z5RpWkfmwrcIbYS1CCYdTroexNgWmV5q6JSGNswEFTKgo5FmrSbpY5sMAVGg2KyWgFDWBIMBIFkXdGDDnEzzEUt5qKGGMDj3aV6klUrp9wPlf9Jh4DKxs5ioSGp6sDLFOOpPGNUfKFeWB/2YJO5+SWv+Zl1tovOa7uOQB9BZ64hqWz+C0T5bG5Cqjdts1oZCG9p8adsNOt19XZ3nKITGRKsleb5n4dbx2VMw0hWde4ElxgSnr9BopcbFeCH+HiPv7t25Rc96t9WJkjoHo36TzHYKvulzxHPCWorF4VhW/2vjc9lLhw6YvwnwncBzM74nX82nGbUgEwhtaNNj71+th2CJwIFNKyktN/kAGtrySYGA6g1iT2TqABCGzUQNlWfYuK3mMbeSuvGAePh/CyDr76OlZSCIrldx8436x/eEUIbJZM17sOohkomzQWawtfjQxkByU0+3Uf8Okz+rzJCyqg0UriuALnOc1eKMNEZm0wJGH3xzodpuNGIrB7+R0IY01yy5Im+Va/D7Cy7P5up73BXMVQg9+hOxzrHQm9pStCkpcRSh0yHQ900/dXs4atk335XQfFjuxEF7LqXMq+66D7XcefOBUQs0mdCGzAxPh5sYtAuBXTczKSIlTAE5QW4icT4yMiBq8OGIr511GjTP0ilr7xcA6aGLgAiTi/0sUX2Y9T0dYvHK69VvhwTlK0QUtYiciQRRlKGRfeU8dHjbJl/tWQGSB06VwGoRRpjXXHMOvVQzGjBr91bKNSMj4YYpvjjDtEf0GZs1UbyNKY4VpH+X6xl8bPE1JqBHD/QWnDyH+Oxiy0iO9+fi6xktAfbJCj2Tr4r0+akqOPJE8QRB54N5bjowcsGTByu0MYnQxpXGpqYZ+KwfAKSin1o1AIh0pFaNignIixjkb1NRHzWiIyg8Or7697TygAAh7e1tSnuLPXGsD2trq7uCACn4XD4GwBv+xo1BK0jARzxsuWZA3i/ml1482/Rz2Cd+kvjxYePUmgFSaaYyRpxsJTJwCG2U98C5gG03alEV7bwnv0cWXGznaD0TmpA5YzxPuctD82qL/BTR4skB6YKbvkg0AsOF+On2TUZqWcVGfBl6axeG3bit5hiWWlp8T1miSxslVIAxJoqz4Y/I/MI0obfMQyInSBJeq5+963dYJoiTnLUs2YORyXRtGeLEkDP6gdxFGlzNkWlDMP9qCYA7tLEJsfD+aM4CdMq2GAdAzSIaGC1OlQBd2UhYiOY0jC1ToCiAJicWbblNbPB2CZLDEhp+vUEtB/+0FpelK2C8oG03urNr02O1Nv31DMiAIoRFK8xFoR0KvYsQoKnpjqDEMsAsJVWOin+6QdwvgUgPosMSlOUkXukZNOqS2ztPE2pGzFSqNqYKjFebdoqm4VYlPON8kyCMOciEJTNJk5SmMokXe80kki+SBF5FrlpF9VTBvyBWh7m3QBX9DI8ZI38j77ZtVLsnhT+uONX3bbLSLrsuOhK8SQzrjZp2NUkVA87Ou6QFvPhvR1TgSlOqn6vinL44+LVWxsUoumCm1kqt9wUzNd3MbhXJ76P/jXx1ighIeSRdEk05W/FmyzAN1k6seyWujJsAf0BBMSVWuBFpO5bcUik0Y2nJU82IdnEwYqZeZWD0OOM5azr1JxoQQxnUWTInMBBrpOzzFht8rLG2rhEvkV9IJcbNMvXIsAGI6YAcrg2CgI5zK/aRvbPd2mq8qNAJYJ6pRIBrlIJ3tf7F/quYtWnbfK4RifyUAPwTmUowgPiSNDU2/RhY4Vr8lloInN7iM0b3JO/IEJpKjZUVQ1YNgpDqHHYCQQqsKoQzQhMSjWeGFWPjGdy/KMnqCxDeaWLNWAKjpcNpkfEPP6MSqu/GEqrYXCjxF8pMv0TE5p1VAjMLU4f2Y24j7T0uV9wyunGAApb2uBLJX1aYgsZG5DKiFZldQUWEEzLuLwJqWDzKtd4+fZ7CIBOt4nwotXSRUgj+y69E7HxXmp3430Zq6vi75VN6InRnrw5DG2JVrZ4xsKlQ/6/EthtpUndnAih1L1xw6Z8sHog2NrdXoyjUJXMVYgeWFUDiz5/G6rD+tKmLXppEVpZ51dnCN+DvvQaMp5QHit9FPWNa6e9mZ3hKHSxYWfOp8PZWhRwIW3xw/uWW3zpOAWMb04a/J5OYLA0IGJIH6C5G+wbImZJ/qk+2tDlStwRI+Y90A2D+IhqdWjpyWAfrbxyDxvq+4ly0TyQeuUumtr0MjLXlRtYa9CfME8G4QfV/lgTdBQ3cgL3X7inK7iEw3h1+njGnISQV34hdGnrf2uJGzRfM2rLfhWO6YoH0xP33HjBqs5YXF4Mor0HsyiLHUhzLPdWDmyawvEXVHpiq9GlFilLZQXY//t1P1dfm0PHjpULUkqFjIMx1GXsF7abfThGxgNl6owgH+rBSiExDZsgfRoZ/Tf8IWiPBu3z9yeY9J81NE2MmcKXpcGmckdmPmy9E39T2dnPiVuT3zjNs5/1RM3poyrViVzonmLWTgLkre6XRgOxVYMQZJ6/Qi4u9B06tpkalZrSF1kMi55TuY+8US0eGzfMyhSFavAmuOpIz7CZ2IQ/SN24Mo8SNbY2BQyeFWmS2jhIxREbIfCWUv2rCdMtlJUEdn/FninUR+8ozgYL/0rmRyiUnHQQEZmj/mChORQk+r7XdkGb8gXq3MmtjqzSjt93we059p0ZvuLLz5VkVttguPHMWufTOWgDioCKE5IXEDkhOG9jQyEwbwvP/czbc2OrzeN/tLGqvAmObthtdAGNcnxjPy30RaUjIFnJgGbIKSUQB6j7IlZBjWtosvpdNEAQH07dE/CFpBMkbZZYOlu9IrHSKSAdaSr5wSHFR5c76dXiXAesOUONmqQRjtRIq/KatCqswiTnmpsaRcLUKr0aANCXmrHmX1pSc2UM0g4qzTIxVLjWI7uhzvWFVMh6w8s2Vpqyr3oY0AmvEehRgrFzFHDclsY0gJZkY3+6kWFp8OzZP21ep5CpqF59jX9ogOfNnGIW11RAdkUU8CN4JUPgM92kijl0ndl0zegYOfVPT4mLL3xTIMYs3Kk3vgEJAbHffq0m5WCN2WAfnKIFR/rJMagQdU5qfkpAwA70aeOzXtaxED198D5y+AGPFoqaZLmWZPSkZYFX/AVYhZhhPU20zRxbWdWRJS+abzc4dzpBS7IbHrm28Ss1IZX9l243YuQAflkR5YqS1MLUN339BoHHrCDfiffjhPxKT/LjCQ0ewPhIN2dOV9g2/vy6esFeB0X3G2JCKkACtGt0X6NqWdg0RtVGb3NCUvYvaK8dSdWrczmbMrh+QArTSR6skFbpy/WWhDWnZMYDRBt+UGlKR/RM758Xkhi4vUBc3WrtvNzfaLQTKokgTpJrkr9Y9k70g/xyXr40NUsfzbNTl9uR5ehUYq7ZqjGZXnbR9BEZuNgbLsVRgnIwAyNHrNqXrzrbmZfxdrsXK3mS7MySHVzu6+nZI/a/8MqRxKaGiRyhmKnV/dNZ7xbXdMJLLX8Rnmdr8v5VJxTiELQohpe1PnKEOFTUVgjBfmcCqxk7tPQmgRp67OcGoMqVXT5qafSRJh/MmxrvV/+RRb2IMGigOTYiPlFerZRFLMUpHYG5JRkAGbdeizyGozLx7+t64JgstLMwPa+vnVIKn7Hq6SCrk4A4Xaa4W9y/fdpTAyPwJQhsMfY2tGr0z3Cll+Ry3kegcE8d6k2FUmWXkjas8Mym2z4/EVfSf0W6eFO+A4Rhrd6nf5Z0EApgQCBxHPSGtMxjbRlyXc+5UUj+VNt9W8sOPZbJyjdYUKj6BaprRFjmIIRNmkcypzdeuZT/09HuaDoyxvf9rFIT/sJoYk2IWG1KV2vuX+qa6uVmiTQyQgfnurDQp9xljaCGR4L4RVTunc09SyhWTk6kMofzGXrYr+eium8i1PPRo9uZsYHKXkeCgXtPa+6sQ++2aQvXW0AOH+kqulZQwGFX6xsRUMTKLGHXQYk27ohY6ZwQL4IHEIrslChPWHkILoHBc+jc0GlUqvJgiXUoBVI2nEWFnNBl6hM0oWWJj2ofnQGcsAu0z/nr9CusOfowWGMHK6ZhkCiIzsKr25Ot0VWp5Do18T3OAMaSCsahsGgbf0OPmQ0k9I5tiy5FD2Z2bVmbfUoHoOlHkx8iGMWCAvrRaIwYbajMDy0DJgw3+JHHCGdpMNyh4TyNdmhiRm0pXgXQkXE+C0vUVak3XFQVAKAGiQx6j0WhERVofWT9oIHwzmEuyh0hq36CYKalip9BWAhDfW4VJYhKSboiWo2Yz/RvalL+xkmi2AXH6sa6J38YhpFgOqUY9revlOArFqYKhORRd7AbGKgsdT8L8t9V28x+lIVeqdYm/UPtJ25JIrJnADAx02nC6h4RhI0EYz9UcYIyLr42C5KWB0GvUZ+bfKGc0Vm0gdekmTWbMvTu2WGsNRoUjfU/qeDZZyZyLUQN/eOnAmRLwgmYLzz9aSJhpzIekvw79Nm9SAjnBdLJo/lHm8T9sWeMFw1WSvDvTxJ094Fwblr2x5Di5Oehm5BAlK1BtcqOu712aRXHVOLWxl+ZinY5rXiRk1z3bN3jbDQku0vxij5/YZ6Yybh4UfT7NK43p5X8L13Yunb6cr2G41tx/99g8477fN+/S7HdmL7GqC0vB1e8B83rl+v65Ri7cpeskn3QAwkD3RzIGQuOETGyaTZ/BJ5C+QwAAIABJREFUJNZ/jAoH6AiOMuInhEleyWGRJgFj2gPHqykAwZ+oG3SctcHzQxsxFprMGALndD5j2hJ5njbIxPzIUMlhfkX7JIu7X4mXGLTNMGkW8kmvHTvZupkvVZexi6V96EC3Xn1TyGr5qppPkalTlg/ZTQldWVycmqmmqUNlM60kyH+lWTNtKpkduXDUGButbZjQdVBQ+4wqTKhnLEuHi3E9dzrLX5GOrvx9BBpfO/tbNcJF194qYF0vU/Xt9LOZNlfZSCp7kvBEQCBg79H8C2Yo7lFSPtOj6PoHEQUYuXU6wtGf9qWjR4zweV6JE3ssrzfhDcK9x8uMt9OZADyff28OMFauiJ4AIPijRcvUSmK2aSk6g6EVIlMIEF5S3IoR4qSYYT5aK0aZkHSJKxE7SRg+DTLnG8f1KWYWreTRhpTmELu7TAnfbApMZwvg6xpgAv/jsw+ZCUjFeFnDqToAaZ8efJ6yuGdck/C5TFOiin+2NDRFttReLlT5Vxwcam/HkkUzWtWGa0aqNqomiqcWfKU1X2lipM+nvb9VnCPNdOK50coEK+dDKhjHpI6NomBXGb2+WSCj9IkePnRaGE3SPma01h7hwt8pLCdp/yFVvjythtS7BFAsIxdCCZGWkHrnE2ydfVZTgDHNH7RUQ5khBLOR/oCCRkvzlOOJxrQ9Fxx9GNY9Sq3yesO91t6C3jOM8j6lB5gHlKODnxA0afYHEpgmRtdKE9Lej05kk5TZAgDwn8yN0bGA/HERImhGerHS/gNCxEgWzOQa07ocNzHHMiicuIHSr36zNsyHjgc3qMKESpAFWgtaR+IfRlbUbD+tG2D0+YxJ1caBULWBv9dRqVZ7LnZHrnc7fyvFN6MWPmd1qpBMhGFukOXDBGgf3UARtmc+IXTR/uabxkbQWgbGxx/Ve/ZL4AJMZixCAD2n+7Q9k2r9gIpXmnZsCjCWrJ/wZG1TaWqtTSEab82pIAHmy3zhgdoYb0yY0A2aB8FDok0jhb9ITTqH0+YCej/XkrlmdBt2EJXj0jZzZZZeKalNORXMH+0cIkuLZ0JDZBoor1bC9ZMiGh7RZ9i48NCvMw/qd0Uzukp0CgUhkWpqA8wA0xIUz9KV7oYJUyx3Fs1Ny8L4inqfTQ0w3Uz1acrMZ/yGCrE3YcKHrKJIbVWV4tXMTFM7rnW7ckwe+omH6voYYEPiPALvXdMvzpaoIzwTowiLWLAmsNpVPyeQavyNsA1j/e4SGOEO8OFPWOJ9+ZzN85YQ35lKDH9vCjC6pkheYeEJczAAc5SaQTFViuoENiU9UDBjWmhbwX/BfGUTWj6mSqDwQX740kbre0KFBASAv/wbclEZG8bIOYaMXjlmgvXeQdtglgJGgAiYn5N/+KCYVCYX0T6DJHI+C8LBzmabyAVJR9I4T0437cchyS4HSKbxhRv9HstgqcxkNi4sJATSSJVhsaGjNow9RNmcfDKWAwQYGnx5aA/yjxq7vkUkyfmuZ8w1Y/JYuVs25GUSfEyIohn0PAkXC7PAFodVhNgxNzk8KyOu7Dk7gcV/h9XKZMPRA1ao/SWFR7ZJWyLA8rrHrgjGGsHU3bc1DRhLQElGe/HLpNUCpupcOf8QKsStqM5Hq/GU8gC+DqE3DpqLGBvmGskCAOoAbe4VwEfboHEv16bwdhkTs6ky+zz25ldC3G2riCLod2Z04JNi/jKfIdcuUZIbkAyLnb/C++L12uaxAmXNFRTYaHCF9oCYAYzc43xtWPq/hJIRExJYApjmNFwarHuaoaZYjMAbpnMgKGiEhWa8S2DcLLLrfIMxXYh8yhemvEzNxWJ+P6ywFSPspmlKtbkCJtOcB2BA0VZZIpA7AA9fHmsFYme6vsbxdpi3P1MLk8+/oAlgIvF47nnIKbgynT+Q8/eOpgFjG81oG9u9cncJvMUF2mOcNBjsHK32GZBDLItwBCRMzBrhfGzK1dJkD6g724+3b7LyHTYuBb9oHNhSuoOjUdDCHEPg+6C6t9GdnA0NUfNrmaabpW3xUcMlhZCXX5+PCKiuGfPAuscVKkw+L6MaoMMZ7jJr+EhLcniN+oPiG7Lx0ODx/mMAHtaRsA4J1ysVwiDEgfbknmLbDVhm7w73fLaxJ8eI6+K8zrCKXRDXJvWDZU3crGf2iUuuN7cgEnMM6tknAYPP/201G8bMpiO8TSUTYBGc9IUl2wgz3XmD/nb/mKvkuyI4fchPGIBrpvkr59U0YGyzZOEBR21gO9lsF1HidI4WwTJTm5cmUrCfVOkTAKfvTMpKIi0ZAsO8CaoG+JlpxkukeehbY6RQAAnZJLznCW2En6u6gAZSTLHaK5IobwcZtGBnWT5l1SHuGeZ+aG6Uk0qmjTNdWo1mzYy1Q1DQOfsimanE2qKmRsgwHBQBQatKZkw8I41PYJ3eO7SWfL00zTj5wOe7IVVHvE/ur+tGANYQ+YhvUi7txwXGJdL8nk7Xz4Sfteu3dd9tpBzJCwginhFF02+WO/Fembf40HROQAZC4D0mhhuh812B+Di+Y5jZ+EqLOTYlGN23SiRu6IWfpm8ZePW+ofLxACIZO8s0y3G+TDVCANaC3wAQw4Gat6BgOA8PltRIkCC5kaakZ9H3hqQC2vz9XObPLmX8+FjwZBRAYDMMXHaNoZI8kSaBm8lZWH9v0IwBXcx7ZJYkg16Z43HteIqbJ8sUG2VZMGYR4AsLyGjqF48fUrhitw2zwfxeIzLpkGKuY2QVECrw9v4zzNeMccYfWJxxZbYlJXDigtSjMNIbi5ZLhWasLFEr8VJO4GBOv02C44MKcZDVBBhPyl/EzPyLF55Q8vgW66Rn471tE8Cqep+hK/ScIX7eLIuIdo0kJZB2hzvxV+ufzr64dkV2VM/RZjaG+6zFc6hnKeo5pinBGG80Pvs8KTgwbrnmCxsWE4/MDkgOtAt9TBfpYY2UFE5bOnA+QhE+qw8TU8W+epg7ZQ5R8EpohCZUdJ1GG9pk3Jh6FQiWkjnWVh/kQgTwmSaPd2I2nAOXdDRtFq71ZhFSpLJxraMkHOJou2Cg2+G0c0QDfktSn+tDOx6Udj8mwXJWfu0Y3TezNshNJQw0jlkb+hvH3K1UONpubLEeOMnEpY5Yyw53WbghO77tNjdNlCyLdTGISXK69+ESnFdLYBL4/60ZF1tmDs8Dc/S+3VsExqeyX8s3t1fij1sqoE7M7JPLFYP8f+ZfYYnxcdwD8WUGoP43ZfIc1Xr1C9ZRoRnrERkdHJO2WoimXg6w4KlZdgrmjEBJdgo9UCFmYF0xASEAiCWapA3mL6Ycm4DWi2xczD9CItZ1mlQ3wJe29Ug1YHva0LQ1/pOb1O67+PfE/wjQEx/EDIWAWibzmtgm3cxNS9se7Gfj63br2jbJT4WIehKzWZp6Db5faNNhm1UbOZ9CpdgdoByrTBy6CVA3+KTMvft13IsiQ2wKlVkKbhrX/nJmk7ifMbUyA+nWTaCejt3OKgdLJgihyCl7TJNLZt3PZCMFJp4Ncca3qk3/RDV9PiHBsV5r/uPtm7IvKX77gq45H8UeOubFuDLwn6lc4Y8tutamR8dmHbDHkDh/qs6BRwrNWPuj7c47q9b0BbOR85rG08/kbcJGvkrVDKTVLRUjOVHmW2wFD3VOwB6ygH6ofCUJHfMOksYHyJVLfpf65SZpqv1yc6yCeOK6YAshVvBpuR4yaPjeag91LQiKQQrh8D2bm27pmMv3CUhPiDwi0ZsQC3mZhvaoNQS6sdKMsdI/rWe0yc3SoNwn49Dqri3htgUqTOdBAwdIMx/LGWaubbPW7fDp2Iw5ECcB7DljbELwjMJGgy1xAc34DmlyWlsiFBE4EDB/s3FltkaEjIUo0o3iUkpmbn/Fmsdkf7jw6uw9GoLKs+a5cA7A+BkVnh+hHCvyBq+w8EZTm6mdATdaRDFA72rJW1wMkxbiwaEhGXIKC0ccESnOhics8Lfyp34kiQyd7sNU2ehhyGnw7fJypTbwLL862zw526LvMa3IKNF1XDb6IssmIoSyRGbWXBFPAJFgN+CHTaXh7gYxpE/s3WUAJCRDvJTEhWOS9n5d5cFxSqjGWHGxRsJhpoaRcBZKCIDl/NxzfSZbWOGg+RBREFlobVjMB+W/fl+5uhtCXrBZEkn/V/P1sEi0Fjwj8n4hqN4mzfhPZabCklLutUe+L8n/aLZVchP6ycLJw1X4jOGZkvBxo+LM/1Jj3PGTvTOfkzhfWPtU9vnVT5T5jPXdc2e7rv6/91owlqRuQEk+8DBoDj3AVlUxYBK+Uezd++ZeavHJM5LQhxQwJsf0c6sfz36xfXOZSWrmaWIyVtbWRdAlGa8VqHSTFC0cKz9er88nYYERc2MFzmAw2+dG8gjN/LDybO/TkJZHNWHLGhwDqOCHlZLaA0DQwImZmoIxH5Pu4sWFRABnrsGr7Km2f3O/l01NggNsMxuKYimEBGTL/7f26ewp+Xn9wgzKdL3KnpGuAQIHJhsw/v68yyx0EzOHEEB/suqx7F49D/r2pGY76Rct/QZaKIqWmuQrM52YZwA7jmD96obnsr+TZkVY9BPb3nFNZP2A6s6RvRaMZYti+xPpazZV2MCUYw1UBcbo7A2Soh/Qw8eHlIcjdlJg1Ib/M42TfkCxOhtmGushQ32Pg61krPr30XhKWnHk6plN76zfUJExC4aPVWbPLJspSHI38x4tjS8GuHU2mEBmQWAqQ+tDHGFWIunPkAAdwRhv1vxE/DA3oaNmpDucgVEakuqNSHA1RjOYE2yElJU46fpJ7qaChTaQX5Gf95xM6px1TrRwmbXA+un6mTj9FjWM/rNLb7LsG0rfINN2yv9kWtQ3RVTdo2SF4yRXWNhJwk3gmqo1ZGjqe2cvMqE23NLo+inp4WD2U2nVb6m87T4Jh5OyRszMLdjU7siN+o913w3/wckGl/Aq3REYydpAM71fmhE/jQ11EM0oc+hzAuMvACO6yridhE6vNO3MBPVwhpEzOWPqWofgPCl6kxRqIAhPyhdNkTFNwU443KxXMkvwvYit0b2Ajmn4h4fNHHWmEsDl0j36qqaoypsYRwIn1YwwlGgMgug0To6tJ2O7DdaAJbP8XkCmiwIQUQPCP9mYA4Cgq4F4wueF8Y3zLJgW/ePtm7K/lTZadWCXa0YzKROT2B9LLkDMbBUDfI2C/p9acoP5z8QQeQvmNIQQo/6+KzCyNjbPROcYIwFDVtKrJdgIYdHGI5ZgQbx9Zf0zIri2yqzf74n7IWn+ldZtrm9oxgTHOcljFe0DHIxTAKNrRgfjSQsUA8b7lMNa5idWOP15PqnrIv+kYLq5KaVWFZLS09WV/AoF7hlcSgoboQv8QjJ+opVIfiy1eXQrJ14IcUSTLUqHGBtnQ1oqzEnDfjSdA4lUartB31RCG2pIJfPttonSjBIGgI8JTCQHrBA7iUlp7Tasf+sAq4DgTgACGx72tZW8Vp0ffxpBw3VTnkSGDKVPdDugfpLwC6b1BvmzCJEvyzx8Vp9TLd3OmXAEUahXZe107Bw9h3fJZ3yLNB3CivXDFKVoGBMVIYLZTuAfTcwQIUza8bpXYsQxNxci7seqhcTCgXEmiycKq8JMrV+5NeTIMv9Im4xhNAZGbdbfU6V5uWbcnn0WMEq6W7Z/GsaocjWlXNKASQsRDLCZjJyX+Nky5VyS0E4wm+GeqblITiuhiRUCHyEUQEh9HtlBMI0017LK+qD50g1c2akg7YHD5OLXiqACjDSkYsPiNz2lz2BOyI+0WQE/6CP31kkjfV74GZ8NoBK2sL+ZeexTnQD1MAEFDUagnVxS4rlsesqYSManh80zgLGaZoziK0ojvurfSGlaQlBc71tlssacWgu7hEA/90BCPsADgPwzUjYIQgYQkf72PWnRryn7Zps0KZk30WKpmz1uyE6sfpK+qxkDgVOTmQoYK0ysNKUuLq1HLRRv0/uHCDwTWodKG1JNMt3aX5A9Y02bgsnHOaioILsHdpQUu/uV3bPy4MumjTB2fRR5MOeiS2ofU2HyhYsoI0hoSMWsDSb6yme8Y1o6Rny3VdAzZGe9snX6i7KtZYMmXI+ZgsNlml6vEd5vFenyDgGHoT6kqREDZWbIl9c/q8wgMaDtgDHaE3aPgV3Ft6Yah1YhxBthgReJkEEb5255yQ6x71wbeqtHiCQE23dUsfFTrSkEztEz9EMK4ajARDXGZ24cOgsw1uIzVgFjfASp2Qt72V8xTExSCpBfLYYUhpaKAppojdCwm+izsjHw2yh+/SkdtOWjkm7HDIzYP8ebwThEIhlcooyqb4JyMDKFCs3orRopBWOcecxNJQPnzs0rs02WKO4+Xd7sKdrbZfFUZ0/db9U3MhtJNyShGwb0nUq5m6pwBIIEn5EOC8QGV5rP2MHIuYDwUjqj+4IjZcajFel3RCrftcqeGq41dEC6L55eZjpDhJI2CoyxLojBlqo1yjHZOCh1/0wFGOsEY2piYj7hu0Bi0BHgUpVfEbfEbMMvjE4hJiZagyD7XlVWkFnykEZZf2vrOht44xu93AeMZFOeHZQQNNUef6VmdJ9R6XAC4+0XzbKC5DgS7ocKpLfbdqOdvVV+fjRjCYx0LSc2ePL0mWz14b1W2Pu3G1e1T+BU0+aByTKyzczjgRam8DHu6uig2PAgmcyeMeT+pnWh0zMg84f4JpU0j8rn52d62ZrBYk06InkUFrr7+GnoGQow1gvGUGNo0lnfI8XfZn7ZLPN3pmtTwvJZ6RWsI+0uJKFhARnHFtPrXtCmJVwBadKe1ouJ5LWZkZVsamjvP2W+9cVBYOSa0UqoVmlCMpoxpsOlCQCVkUV81uC3wRbLl6U+MtWMBkYJHDQSZupX1ovA2Y/P2PkwVifDUvvTQUM8lsR9BMkspS/iWtBqBNOUz6I4/ICyfCCiyPjZJdYVEo6KlVyDBhM/JvUHndpQMHX3ZAUY6wWjSfDwIu1MqVuER94zc6GBsdVYUs/zZPNTeoXptlJApLyJVonkvR4VM2gtL/gXY195qCKk18Wfa3ja1TRjHmeUZmkDRjWk8npGzFRTNXn4pOSgJQhJlYqE0DB8RuXQIojeKb/UwCgQYHKXCJxOzNQKDRnTCEufiklM2EOMr0A4U9YHrC1ykJAH1Tak9sGyHtVXszAq24iELuc1LOEFe0sBxnrBSFpXjCvqe4gSsj9oxkv9JLEu4nCnpT2otv/p9k3W5Jgu3mhCpDmmFaZYZbgiz/KpCKPUsksqwVgtzlhvPWM5G+0AIYWNVidvk+bFL42acaMsgHvlC/+1YnyENvLwUHIT1QiUNPE/908JfdhxXmxNOxWY3Zh1ZDgV2PALuX+7Th0Q2Wf/scRE17KOF+I9BRjrBWPQjGb2aDcQh5tFKpcC+R9SCc80xRHJaaULwCPyCyFo0IxUgpyUJLdoeaDpS6xOyRCt16vpSTAaHEJM0L43NrVVTbqU3C0mlcSCKcOGG0O8SVr/3l2b1X9GbKqFNjo3UyMA4r3b15TcCSa/Z0hUvIzrIlUxZD8l8dgLAax6PrMAY71gDJI6ld4kfl+pMMInl1xvfg2dAOhNev/OF7OXlcJGjM63kfteFr9MTdAumKPtPeyeAGPOGBsIMGODSS0wwqZ6pYUaEAuQU8UcnxRpQpyR/jNfXLcie05gPJcm2EcWNNxE+xqyFNIJ+QwW0uno5VlSfpn+nZvdr0QfsfI+CjDWCcaYvxZT5Mw4kkYYKfaS5sa0faATHb4i3a59OlXUhr5H4ivPoqlHnFYcUwsYjU2V33qPQht/twWfsXpDqlQ755lG0afkq84zSGC8RWlovyEw3jFlrjXMIkmAGsl7rRnUE9kqCoKJEdKDKLn1PDkh0bYdCZn0bxFcZTrSTNOwtE0CwPSeCjDWCcby0Ea6JQLZEDdt1Ag58kLVR0hha5Ov2U1A1gJGZm0AxrultclOocSpane49kxEXTupcvjFdOSj/vIWZfnQ3oTfAUYEEal29J15VCY607lIcD/CMCJAEwurzboM/lwH+qtcO7ezSKmfWICxmzvpPBxeeqheQlVvBk681DI6PtpS0YRNN1f6tySXtJr5FH2lvMdn5bp0cHwtYKRI+tn9e0wz3mmasToYc98t8dG4XpLeaWf5OoVKKFcip5fmXaSkWU9ZvQdAooH3qxaRNpgkADyg+B99ZU9bh7ZYOeE3Vwsgz8P2uKAfUWjGOjVjCsZazK3yxOS8/qPdh5+SF23e1IFvWRMYpRnpfE5Dqruso3i5meqZOBUkiX4mXEMLEMu1VREwgXgGD9E4K211Una8zkXHdepDH1FH90f3blOC+q5sp8xYA2EoOCbbCPKlKZy7HoJsAcZugpHnksfFIttX5WHFzdoRmZCaYtGPtHKsijBfHvqAsAc3bOrwmbWAkT41sLs0MWaMXduO4gaT8hItXQftEAEgJWd0R6BfD/miMS/UJx97mDJ29vbrUct9kVe7xCT/WnWiVHKQh2slUPHKww00B9XSM2gswNgZGGVeedVG9cTsXEOGbypzVnxblwOm8lG2S5TENxJIs6LokBwQf2+KJGixwDLWAkYygSgpookxszYqO4rHKy5pO+8vs0QVJ/9CfUnppUMLSczV6DsTu9wnDchXEuVph0mvIS8jK71IIKcjHY2I16kA2YL0mN0myLraDKtnQHGhzlqAsRoYVen/mCoNPvf8Y9l9Vukf+svEDJkGPa3KOJoBN7UQ9XlM8qV7HZOXSPHCB8MfiyGSejSjB/29auNOy8Ap9xlNekSlFa6BNvskbL9fpWYMGfIwqXeq26EkBhIbXiLJXUCnxnGKkuWZ6szgoDitC21JPeLDirt+T9OlKRK2GRj4mZzQOje6imyGUESDtkF+mr4LxhCob0vgnMkOqJB3ufXAWV6q9M/HY/smLPcBu/ZYykDIoYHaL2MM9Tsq7ccrv5VEb0akMdODCo89J05YSw7ftSXNaBq4LCivND2BgXYbaaU/mhEC5241i6KEqpJN9QhdaCIibTVYYZpXyTylKuP1OhfpaLHOERDeo/Pcr56thDMgh8iOIYhBf6F3zZif3Si2FU1JFwCykigZo/CYnjYrZS6no/nyOGIn8cSurXhzvLvvgtFq5jSCTFkztyeV/vgxpKoBxs9oszwg7WF5m7SEj/V2QXLXkyVTDsRQ6Z6rwxAW0efRqQ5BQcUCpU9XqTj519LWNCv+uXq67BAIjPRIfLtoDqbFxVXBiGZUcTF9darFGd0JDX1d5esNl2b+FxrxzWQoSpqIoQIqErMpU/qGzM77BEa6FMTue8Rch8rHZN7Jb2qMOX4mbTk4NRrycR33xysetAoLk0eJUCk04zXZl5bdZkXe1j3eHkd0CBLBEt/w/uU/y76sSvgWLbj362yOV659TDMOkPQe45X+c5dq3PY422RUAtCX9DNqDfjj7evZPrk2jBslp/1joLmTuFaZxgrasETEuFnmRMhZq/Zg5iQNq8humSaTD61Cm4uH9ryUfeq5R7PHlOdaqkEsZZnUohk7y031h28XlJ0T8zpKrTr+SI2B36c1wmSmvgNTmVzbb2qK1S/UX2a90t/c5yuPGULwUNj86UtvNE0ZJ0vT2+c/a30p/kVTxnaRafy2OXZU466y72lGOj6ZTyQwqlCV3ql0h3ufOlBfLDBSvc4+3CrNw2w/AuMEr1+WX1SiCpMKC6S6acrO9WRkXeNmdz+JlBGZgspkgRRZOGKcZfBcFXqoUjKEuRpbFq5VGOLPpLEJS+xTEB1BWEkadaYZAeOKfHLxyjYZOC5wPMxwTmbn6NZh2ceXXpd9QH2CaBfCHVOz+HWRP3+pfqSrlTRAEy07KjXhSYSXlXGD1vczS29SDuska9eB0KHE6q+UKkdNJU2Y6dqWp9lxplfYhKjGQa79M/U9MAbGzmdaDNDIN5mp8sk+OP9yq8pHMrP5yVKh6p758N8V2cAINdhChnBSbVGW1mXbM8TIEpLH7IVA7duv+TGYY3zPxmVUHT1USTJHC75RG5f6QNo2mu8VNjefSUhipYLm39yyRtpoi21ogBXDJc5bOiDso2XmVPcZGSPuI+Gq+4yBQOGzdf7Rqkj5D8q3/VcBjGjN42dPCYgrrE8Q8z2cbQ4bLV0DXcM18jc/okE2hEVoScm6k0h+p8xbruEZlZMd17paj5rAvnaWg3o+wHG+P6PvgdEziO3FAx+kDU/v0s9efos00oScqkcTUX1Aoyg6na3Y97Jic9s0geqlbCsdsi2YFmsADQOuTaq97CMdjebjhcJkxtPNtHFvF1nZFZ3QGANOzWFs38g1QrjQ/5Mx6A+qkTFhCeoF8dHiHIsw8irkRXcMRgBMzx2AUJVN9dtx01zvZZLVJ5fcpN6yl/rgUuKGElafX/OUunw/putQy/zYizQKoNDASw1e1XpxavbRi5dpjsYUa/sBQ7xRYKQlB9ewCjDaqDatZ5hQHHu/nm9AXMjP63NgNCyi2SzzQz9os82TWfixxddYrxjMMLQS3a1jNzIAsU3NhB/es82Sn8km2aU2gQcUarA5EqYJytv+55H63Lm0XWrvZQAPBA3ds2lvSHe1K9S+ke4AbHbzq/SZFOm+THsO2vrbbI2t6hCgz5aAIKXM8JJ3rTO1a6CvRTM+rYqSu0VOfV2hjTYZOK5fczN1jK71Ty69WcXTS82XRGPTzoKZh/9DZiqlYXmnggqbmabEt0rbf1TzLxhhQOwRn5OOdF/QZCi6023VEB4qWqK/6XKgK8N3LiSEGvfZfQ6MRhDENBG35dQyY4i00gQlOk+2NC/mPaCx8G0iMOjStl9zEPecPGo+Eozmr0Rg0HnsBINjknq9nJhJTFLzv+j2rf+WCoCEG66TNmSYK3mdIyQA8KeMgNFlUWzFANdfiaWEIHl833YbzMpEJWulWPGKxbNR4/utVTdTqYxn3uEPFJL4pqb6Vmbg2DkSAme0NON/UlMK+alEAAANsUlEQVTh31PX9cGB3YPAQUBYvFC+9Wp1tDMIW8cCF3gINK/xnGtdEObo+8imEuf8D888ZK05sEDyqpBSBLVxu7xJztT3wBjMKNdc7Fi6Zfe34al0cVuq6VR0drtaOZcLbLAqfWx8dFs03Q7IPKSHzaPSlAyioSEwhA+tH8zMYkPa+QPwdSw9WiepvGihWs/fJHPNZmuIrGHEuY+rcbMZoAE6xtDRZBhN+LRMyq0ylX3cW5ij6KjLY5R2K+F+OtOMgJEwyd0Kuv+D0uHaZOCU+XwqIBaD+u6ZizQVeJENbh3Z2iqi65xVZgCqb764xuKM+I70K8V0HmWDhUZbjJHeO2h/EhcAMfdISOMTmgr1uBIAylr/R1O/D0b9+xwYUyGZRm6stb02Av1O6fB2nXqBvlEVCWjJMWrLH3MwTcNp17OhMCHp6sZsRLTXRvw4bdBTRkK4j8g5h0pDMPgTYobWFHTgniBtjOaIviEcLs1/aVoMCL+x5XlLrIalPKHfo5kjP1IWEgkET3nqTrjLMIUqD/qLqMIftWGpkcDR57TJwDEdF8imkByBL0uohXjj4kB0AXoaCT8kP5ZpzpwTX5bQ0DwJspt0v3R0Y/zecAk7hBpacK0sC0a8kaO6jhFvCLvKOGMR9O/9cUZXHqGdfKT/4kYIJixhBvqcItmZK880XGr1Fsik9F0K0LzBME2QqGqntw2sIBoTguWAtMQAbUAG60DMYP5eqTQyhrKgbenQXdK2mbWrp50/3QHoHkecc6d8Kbfr3H8qdcN2oETlkQZVykeuVTdTy+KMYjTbZOAk5nU0K5kPea0E1B8vWmZpccQ9uaIzymHbJU1OJs6O44cNnAyrAfSMMMAvprMb90qHvANar+/JPP7W1rXWpnKPCq9NkGDmVyRVNIl12bDL7JOasWzz5kuZsKzhd2ygCdJoTA9+vST8zapUQMOh6YaGKUe2ybSZ2OAvqOXhL3e9ZH4QsxNpfQ8ICeATtuDYUlCeHqoKV6jT9U4V3pLqRuwQs5Spv64H3dQ1jZiYpPmMisoAY+W2sI7ipfmMt6szN7M20IzOplZPh0u1YiSIhLBshgqJf0fx2Depzw/ZQRBdUbi5tIimeRAdZkX4+uB74++ulkkPi8q97hQJhjUQ7P8yk7thO7yJTtQnwRifj233oOXyzA/b/kH74U/KRxsrKQ8lz4hqTE38PbQdPlBq6pJGx6Qkur/tR0PoTJAzZNCMU89PUpvi+4+JjXxR2pCGVT/evsm0KT7XPoUJTtGwykIn1PgFfzKajea7Mu2KVLoQ2wzXHPvpmObmn8zFYbpuzMt3TldeqZmpQ01weJyxvUTx0I0g3cg6H2b1dK0Bg3TeM2OhNWumIZUtl0VaE0ePS4vXHphhzG/8VEbFkYGDyVouZAIumwhAjbzUPg1G30T+yk2+yLTGTW/vYGPT0W1AdqlMTUIgzJdYoowdb9uvFDHz3dTe30ICfjZL8dJXfsdmJe+Vlv4QNIwnW61qiceUo0l/0X0Kndi8QTs2qjz/mjfejYKD37HR49si+AIsBil0Qu0huaAM2SGGyfQr/F8ECBX4T4cSqq8rUbwytFEZcE9TCMk5nav7JmmcdhuQXGPl/1KZYePbgg8bO6cjoCB6MGN/ybBXsdBrFaqhAsUTIjzp3kicuPaN3OFNdK4+D8aSlnQxnm+OCNEg3qPWoYaPlv1scjY4gz0Xi6AYqdQ6bznhGqIM3ABSWg6mkawZmEfGYrMpaUEPQC0Nz+la/1+FRizrImcsbUk78qlcd8z7nC0TErMYHxX2dtrQYVY1wRxFMn4wFy20kRQXVx1mWulb29V5WRfV/SSv36jPYSgNaYWk81E+xfmxEBj0Cgghdh6V0CHQT2z2uKwCm31htxsYsSDA+iCJmouLAowdSM6881vQcKn5OkTm2VyRE9dI61DfR/CedhSYowYUk/LuM/me62czNkio/rqC5fhNTtCgFeicVt5RPGrXNrn6lr0TzFB9wChpQOJ3zCfEnMafnSGz+BJpr7liQCfp72gskgniMFRqEKm2YErTd1QFsjW23ehg7J2tBTXONmiUkXHyp2UVMPuCYTckMaCNIXbQvGQH7VWpFy0qN8t/Xq/PsCybOMwnYNCY4SbSXj15qQUYq6xuBF30zYL1V/ZON0c1CFXxQxjSV4vceY2ImqViX0fKTESDEsR34LgGIMbGHIi7FGgHjJQgYc6xeUMwpFxbBIM1eo0wsK1iNVvDnEEAdon8NkIImKBzRLDAXDJCm8+Po+dKm93FCwwwo8kJ+qOhvRwrxEbplF6RpB0FSym24oY0Aoa6RQe5m+P83sWFt+DgqyU6yUTn92XaMNGMfTEXtXLrFWCsRdQFYjPXjNGnIwivXw6T+QdJg4ZYKG20TOwrfhozN9io7EpAQGzyoEzSrQqFrFTmznMy35aLwMFvPEJVSNSQXFPuB+oDjPJXUrvMT8A+X59hWTsC/VRpp1kyD/l5lOKhTB+Ok3sdGmZ7212SaP6SBABVKNQyPqg8W362ZPMArs6KpiPplccFTfMHgZOiNQLNz2zXUEsfoFoeR299TwHGGp5sDCWUmY6RPMnJFsT/2Wy0QMFgVIbNQHAAkiHSVJApHAKDiF/FFl4lQNK+MA70JLMH845hLhAiHDNcgBsgtcPPZL+QQgcgMUthMtHMVtkRAMxXwEhpFeQJSQOYxweUygfLu1Y+K53hGFO+UT6rAcVM5NDhvJ31iCBkDdLva1i+/C3lQO+8Q15Xzt0b3luAsQtPMTdfIwOYHus2mQW2IUoIeC+SZlwsM/Jyy3udZD4VAfFo4kF0wDRirpIsQCYP8UZ+t1THoV05frJGkRPTo58MIRYAiga0CoqoRc33chUOi0u1CTm0zyqtjoyXTYcPZtsU18NEZXgovXSovMjTAqMmC6RNe8vSRjM6nMMnh8sJB+fyKv4c163wE6subwHGLoAxvjVYrUFDxBBDQtMLcAMEFoAzQwnnlGYRmyQBgIyUtKuaG5D9LEngEeW6EnKAcST9jDjeXPmBEwcp0YBqh4R5zLN3dCw+58vyRXeLLNmnFL3dAiIAXyeyaJ3mP5Kitk2JBEcU+yx1mYshFD6+eyRKuh5+NyVQFuRM7RusAGPta1X2zrRqv80p0C7SkNA3mJCYmxAttyoD5m3T5prWlGdnzKMBTLDGNMWEhdCB9udvFB1D2nAOy5y1sWfkojM2x0egkfRNGhqpeAB5tbKA0IIQRfiCxDY5N2arM7P5aBgHIb9PQF6Ap84N0YDDCjA2YBHTU+QgjRvcfLF+FhgnT5WWGsT+LpbmozqEFDkneJydrPqKBJLeR7eBLdJ0FBsTx9su0xOt96LCJGhD/EJGlJ9mEnIIppdM0VAfEjVhAGIBwAZvgjpPV4CxzoUrByAKJxT12gbHVAvtHE0XhSwc/Q0yhuC4jd5WnR+zDYcrYYBYoBE7Rn56xo5pS2lKiowJlB+QmUkQHTaU3NI10oL8vF9+oA0KTXxZSyQPLK7LBe/sfU4XFyYYlmnGApAN2AjdPEUBxm4uYOXhzrySHRMAGsBo77OWEppZIf8PMmey2uNfKk35OqXXUbJF6ZabrZmVIaHpKF5eAwEjn5K+pDQM3ivfkNxXmFcYU4qIreqBlx2eQCuA0lhQgA7Mu+kjNnjJitOFFSjA2ANbISXty8ke/8lNWUIhaoOoguNbL5pl/WHoDDd6kBfgUiu5SfmrhD9e0D8IHoB40rqwcZoQpPfcg7YAiyZo4hPmOa49cM/FKbu/AgUYu7+G7Z4hMp4WEqnywowkFELy9hj+KSRCHSD5ozvkC9Lrhl6pEDHHpf3oe5Nnw0TtZxq4MoiQfFihBXvwCTf21AUYG7ueNZ0txivdiRPBEzqiEXynBhIGFROUBsKWZ1amBUOCeFlGZ9S/NX188aZX6AoUYDxPDyZPGAifV6YtzdTEeCXU4W/w9zsTm2ebRYY2veaoGalvLFKuz9PT7JmPKcDYM+va4VnL/MgAvNgUP8BQvy012SjRMZVHXoCLLz6yx1agAGOPLW3HJ0778LjHF/RaQoTm7Gc8VRKkL0IRF+jB9eDHFmDswcWt9dQljjUlYqppxlrPWLyvGVegAGMzPrXimnvlChRg7JWPtbipZlyBAozN+NSKa+6VK1CAsVc+1uKmmnEFCjA241MrrrlXrkABxl75WIubasYVKMDYjE+tuOZeuQIFGHvlYy1uqhlXoABjMz614pp75QoUYOyVj7W4qWZcgQKMzfjUimvulStQgLFXPtbipppxBQowNuNTK665V65AAcZe+ViLm2rGFSjA2IxPrbjmXrkCBRh75WMtbqoZV6AAYzM+teKae+UKFGDslY+1uKlmXIECjM341Ipr7pUrUICxVz7W4qaacQUKMDbjUyuuuVeuQAHGXvlYi5tqxhUowNiMT6245l65AgUYe+VjLW6qGVegbjB+YPm92VdXL89aBg+xEdXFq1iBYgW6twIOxmPZ7yxcln1x2a0alntG4+QZRm+zWNqi7KTGk7Vqyu57Hr4n+8ZzD2eZ5gvarMHiVaxAsQLdWwEGG2kk/LuX3JB9/YY3a2CuY61dMDLIk5Fld25clT24Y2M2oKU1O1NgsXsPoTi6WAGtwABh8cypk9nNk2Znvz17sQ3NBWvtgrFYtWIFihU4/yvwfwDfKt6S/FocIAAAAABJRU5ErkJggg==;" vertex="1" parent="1">
          <mxGeometry x="359.09000000000003" y="150" width="41.09" height="40" as="geometry" />
        </mxCell>
        <mxCell id="vtJU19JeG5nQ4g9oRzDV-23" value="Generate embeddings" style="text;html=1;align=center;verticalAlign=middle;whiteSpace=wrap;rounded=0;" vertex="1" parent="1">
          <mxGeometry x="280" y="155" width="60" height="30" as="geometry" />
        </mxCell>
        <mxCell id="vtJU19JeG5nQ4g9oRzDV-24" value="" style="rounded=0;whiteSpace=wrap;html=1;" vertex="1" parent="1">
          <mxGeometry x="270" y="249" width="140" height="60" as="geometry" />
        </mxCell>
        <mxCell id="vtJU19JeG5nQ4g9oRzDV-25" value="" style="shape=image;verticalLabelPosition=bottom;labelBackgroundColor=default;verticalAlign=top;aspect=fixed;imageAspect=0;image=data:image/png,iVBORw0KGgoAAAANSUhEUgAAAOMAAADdCAYAAABJ/sWRAAAgAElEQVR4Xu29B4Bc13nfe1F20XshegcIgAA72Ek1kqpUcyxHenKSF1uy4qenSLEcO0qUqDm25CSWkudYVknsR0syLauTqpRIimKFWEASIIheSFSi957/7/vOuXNmdnZ3dnYW4OzeoaBtc+/ce+75f+X/tX7n9MqKV7ECxQpc8BXoV4Dxgj+D4gKKFbAVqApGlGW/fv2yM+fOZmcLxVlslWIFGr4C/YWvAf36ZxFr7YKx4Z9cnLBYgWIFOl2Bqprx9Nmz2cD+/bM7N67KHtyxMRvQ0iot2em5ijcUK1CsQCcrMKBflp05dTK7edLs7LdnL84i1trVjCfPnM5aBwzM3vPwPdk3nns4y4YMy6RPi4UuVqBYge6ugMzT7NiR7N1Lbsi+fsObs4i1dsF46uyZrKX/gOwDy+/Nvrp6edYyeEh2ugBjdx9DcXyxAtlAgfHU8WPZ7yxcln1x2a1ZxFqnYHz/8p9lX37+cYFxaAHGYiMVK9CAFXAwHs3et+ia7EvLbivA2IA1LU5RrEBdK1CAsa5lKw4qVqDxK1CAsfFrWpyxWIG6VqAAY13LVhxUrEDjV6AAY+PXtDhjsQJ1rUABxrqWrTioWIHGr0ABxsavaXHGYgXqWoECjHUtW3FQsQKNX4ECjI1f0+KMxQrUtQIFGOtatuKgYgUavwIFGBu/psUZixWoawUKMNa1bMVBxQo0fgUKMDZ+TYszFitQ1woUYKxr2YqDihVo/AoUYGz8mhZnLFagrhUowFjXshUHFSvQ+BUowNj4NS3OWKxAXStQgLGuZSsOKlag8StQgLHxa1qcsViBulagAGNdy1YcVKxA41egAGPj17Q4Y7ECda1AAca6lq04qFiBxq9AAcbGr2lxxmIF6lqBAox1LVvjDqIXu/pIZ5U92ePv+Fq8+sYKFGC8AM/ZAKgu7OfUtLafYEhDdr4zVPLib5Ug5c/n9O5+mgKWv/ECXHzxkT22AgUYe2xpOzpxhJqPKWHEQqeaMUVnoS4vyFPr6Q8twNjTK5wru4A603z5/+U2KtouB6WrzqAxg7KsZsvyJzvIz11g9Dw9zB76mAKMPbSwVU8bQIMRKqyZmZpp6KyDqX82WNO9GEJ76syZ5PfYp/0D2MyotWG1xav3rUABxh58pj55FkVY0l7RJ4wfywMYNrA1m6hpXhcNGmbvP3L6dHbw1InsmMbvnRY4+fno6VOaFC3g5jjsAJDmXwL24Iv24D0Wp27cChRgbNxa5mcy7RVQ41owaDQs1GhWhjF6EzXf8tpxk+3fJaPGZWNbBmXHpRm3HD2UbTt2KNt14li2Yt/u7Il9O7NjGqSZvzhP+Fcig0p/Tj/XTNicMOqBGy5O2ZAVKMDYkGVMQeBayZWh6cQEgGi2/tlQmaNjW4dk04cNz5aMnJBdN35ydtXYi7J5w0dLS7bYcbs1Gmz78SPZ7pPHsmf3v5w9sXenfj6cHTp1yjTmfmnOlwXU49KYOQsUfchKzRiBGFnawsxt8FNvzOkKMDZgHZ2PcV8OIKWBQ1eEHsIYoB+GCmzThozIrhgzMXv95FnSiJMMmAB0kIbQRn+QEdKYqHw9oQG1h06fzDYfOWj/dp04mq08uDd7fM/27CVp0OMC51kLkfApCIJgo4YAiZmrFYC02y40ZgOefuNOUYCxIWtZijtE/zAHJn6eoDispTWbM2xUdplAiDm6eORYA+T0oSPMuWuXmImxD53liACJNtwvc/Wlo4eztYf2ZRuPHJA5ezjbc/J4tlPa9CWZtvv1fSYQ+0tI7I9+LvmYOQGUnLshy1CcpFsrUICxzuXzuGBkSfgaNr7TNf43aZ6WfgOy0fID5wwfld0wfkr2hsmzs0tGjsvGtA7OWgb0NyWG9nQN6NrQzdt+2UCBqFXacqBM2whu14Cc/ZxNjN6pGfDrD+/PNh89mK0+uC97av8uac8DAuSJ7FTQrPYVzajzRyD65SbEUhEeqXMnNO6wAozdXkvPlgnYM6CYVtI3LTJJl44en904fmq2bOwk04gzho0UEAfJZO2f+5Sgd8uRQ9lT+3ZlW2V24hMOkdmK1rxk1Hh9HZ4N0s8R4w5FsKSx0zJhD5w8mR08fcIAiAkL+bPp8AHzObdKU64RSLcLtKd13ty/DNoy+rRFsKTbG6HbJyjA2IUlLI8PxpyZyJYAyHMCzQDzAUcJcJMHD8tumjA1e+1FM7LLRk/IxrQMlm/nZiuvE2JN98mkhJgBiL/a/VK2QVrtiEgZfMu5InSuGnNRtmDE6GzioKHZCJm6wwa0ZMP1FbDKwzRf0YzQQMrw5aDAuUma8kWBcr1A+eyB3aY9dx0/Zr4nbO2BU8dF/gicKZkTNGV34phpqp9Lptpfqc/dF1MYCjDWsFciK8rGde/Qgxdm6Zml6maqjMls5rARAt9MacKLsvkC0fShI7MJAEngsk0eiB7MUoD38Mvbsp/t2GyAwe8jpnjmrMgeaa4hAvZIgXqsQAywMXUXS7sulbacre8B/QAUccrehmsEaMfPwryeMXDvkJZcf2i/acp1AujDLwv48jndp1RSgcUwuYP6XtFrDkaCEUZlQK/htB6XDUZ+IML6EigLMNawSeJb2mhGy57RX7WZx8oHXDRinIUpXjVxWnbpqAnZZMUQWwWoaBoStD8o8mWbTEbIF0IWj+/dnj26Z0e2WySMI8GyBII/RyYOKB8grTgomyZzdY605fzhY6Q1R9nPo/R7NOYkgXXCoCFuzkaNFPPrgk+6Q5+xS6EStOWPtm3MHti91a4FNtY+ObDB3dWMpYRbhFT4Vy37Nk1ggNlN2GgDYYrwLjynZn1rAcYqTy4PVaADg9ZL3xbNQumTrEVABCiLBcR3zViQvU5a8SJl0wyROTlAfzOfTP+d1abEp1snEN4nEPx8xxZpqP2mDS00EUiZ+DklDcXR/Y0QbZHmgsxp0Q+jBP5pQ4brs4Zls+SHEiK5dPRE/Tw0G0yIRP8RSmGD9zdteU4a103kA4pR3q9r+P5L67N7dR07ZM6adgS8kDx8X+MrajML6Tiic2HA3fPZ/EODcy0h+KL79bVlXTj0jBFTwf9OF8EUbL36usabeIW8rQBjBw8iZtJEFtJB6ht6tMCAqbhYzCjm6IIRY7Or5d/xu4HazPnGAoTa/KsFwmeUSfOMzNGn5R+uVpxwn37v5iF+Z1tTMQoFV5khVGE2KdqyfzZcaXT8G6drgRiaIZN48pCh2ZTBw7Op0pqAdKpIoJF6T6r1Tsp0/fXeHdn3BMa7tr6QbRbBYwAM113P5m8DSoF6iDT23BGjFNIZbVbCaJnbrfqMM1qToxJABwjHKFSzTcJgo+KnB0Q+2VpImBgJxrKwLn7HdZvQrxCsdXoZBRjDErlcD6lruTYsJ2fYKBA0E+SrzR85JrtOKWyvmjA9WyI/Dr+QxYzawTSiNt1pnRNf7Ztb12T37tws83R/tleb8PS5M6YNTVdQo2i+Z/BBwzW5VkW7hQqOoOFikrlp6KCROA9aGuJopkCIkIA0WiI2d67AMEHaenB/kT46B5r4mQMvZ/e8tCH7uy3PZxsFRoDYFTM1gsOTHErakHMM0rlGD/RwznUK51xt/vMYM6UhngjfwADjx26S37zq4B5lGO3S15ezPSeOW5JD+oq+dld90E53/yvsDX0ejAknmktg/yZlArGjtEG0yS4bMyl7tXzCa2QWLlLgnmwaYoaYpLkG1bH9gwYgUM9G++9rnzSiBmIFkyzGQmLeqmfDBEAmAsIyZwyQfk2VgC1dpx/M5w4XWQTxM1Lm8ywRSjcKEDeNn2ZJBviXBsb9u7N75Df+3aZVRuSYZuyKzxhAmKf8hZ9hexEGr5443XxnUvwwnbmWwRJkxE4xUQnJEMKBXIJR3iztiLb+zovr7NqiUDPCywRWoRnTHWnrwyK2yIx4//KfZV9+/vGsRQtNQLkZXybd7dpLvqHt+bDx+QZtw8bGFCSD5oYJUxS8n2oxQ7QhRpRtSJw68/vCPtIXQLdXkp6QxWdXL88e37XVTDA2vvtYrgrLksorjLFKDRTZ25RlLPNx4xWYI3YmGyZS53al3f3GtPlKv5uZjdc1A0aSz+/ZhmZcJc24v8tgLF2X30YM6ywUufRqhXLepOQGkt9HCvwm28Lb2tsnJ2WWoiERDj/cvjHbKJLpxBnl3QYztY2mbMYN18k190nNmG6MaJ6GHWUVFmYcQpgIOONbh2aLRo3NbtMGe/2kWdkk+T7UHWJuQabEbBn0F+YVcT/MQfxGBNcupaj9ctdL2V+seSJbrnCCESWB1nFt2LVWGjmjW/FgcyFitm8wl/X5owS+2wXCd0ydn90ucmmczFXXjDJTAeNmacboM9agGdszTzHfJ+mz3jJ1bvbPZi3OLpbVgJbELIakcU2X/5+vsWPYvkLy4FuvlPn8fcznzc9n2wTITOftivnczBjt02CMGiVqKKc00XL95WMNVXhivPyuiQZGpPySkeNzLWDaVP8dlpm1QZsG3+ek/EBqEjlu9KDB5httVw7pL3e9mH1h3ZMC43aT9D2xuVzLO3Obx+oExrECyG0BjLcJjGN1Xd0GozGgEfT6qnWbICH1GpmmvzFtQfaGKbPMLD3nTnF2QNlBW5VhRBgFJhdWeFRrq2lp/MjxsjrimhyWNrxv59bsf6x9SmGfHWbGAuY87MF99lJ2tU+CMcbBcvOOPSOFRYoaYYGxMu0wQ98+dV5284Rp2jBDTcojvY391/stDU0xQ3JC75Uv+KgqKDBpIXV+a8ZC85sI7ENSGBjXPJk9Ls3ovlkwU43q7/4rmtt5rWQ8pa5xTArGSdKMurfugDFfuxQgus8l8kc/OP/y7DZ9xlSFXMipRRghrFYf2mumOmVgZAVhWZDqd7FInWVaL1hozNnIyMI0f0PE0g+3b1Isdnd2kjiosc2uYbsSeun+6p6/M/Q5MLbxbsMDhgGcLbIBYoaAPeTMQjGSUyXxB8nsjBEwpDJVERT7Pili5nltHMIVOwU6sm1er82Imca5Tp8RGE8cyR4AjCJwlivbpqc0Y9wyZVksPaEZTdlBJDmDioCCmHm1WOU/XnyNCSOLKwo8BxRX/eXuF7P75SsjrDYpfAGhhQlPSIZECYied824WOs9Rr8bZPFU4rGsLabqN7eszo5I6PXTZ8RYZqEZw9NuegInBJbdx2JDnbWgPVL6JhEztwpMsI5oQ2PxgjlGbOyQNgVARNL/ZMcmS2XDRIUNRNoTSrhDPtP/NRPNOKpcMwqMj+v9FjerwTerVx73OBgxg0k8Cg5fi0BCqh6Ezb9ZeLWFMEguAJBk+nxx3YrsB9vWWx3mCWm4snQ3netSacXfEhg5fonMe/cxMwv/fHH9iuy/PL88O6hYZL+BEohRMxZmqm+PZgejP8/g79gP52wT/N68y7LXTpxhCdn4MwNlZp0TUL1rWz8RMUeUzL07e0iS/nGZW2sP77PE62Pycc6ItRyscAJgfKtM2/fMWmQB9zIztbeA0dZEZrYtI/fdajHNt0yZk/3LOZdY4gFNtUhGf0za8M9f+LVlGxFXzYkrjPMArKEyTy+RFfLB+Vdk/1TmPaa+77Oz2f9c/3T2iWce9mQArW9uphZg7CVg9KidSVmk9xCZoLcoHvaJJdfLRJ2cS1/MUjYUxbwU8K48sCdbIf+F6vo1CtwflbkVHBjTrkMCGN8ydU723pmLeq9mlNryaIPWUGb4kJaW7Epptzt03+8WmMgEAkh7tG4PSHD9uUI6T8hf7EfObGIR5Bk7ei9k2R8vvlaAvEy+5kAl34iTFl6/tP6Z7OMC4x4JQjNTLSvHhWNvfPU9nzGksyFlBxodP8xM049cfKVVQ8DcAVLCFFtEzjy0e5vSxtapquJl82Vg9yjWdbqef9qZeu9gbUqY17eamQoYe6tmjH19dOsCJkLocpn1d0gzct+A8aRAulu+Mr7iX4i4egLzHEvDtGkp9AKkCA/NUGLCH1x8dfa7c5daMTYJ9ST//a8Nz2afXPmopcuRzGCsqsmBAoy9w0w1yY5mPKsHPzCbNRzSZVb2+zJTF8pc4oEj2ckI+cmOjdlPtm9SZshOM1NjmVG6GYxyJw8zaEb3GXsxGHHotH4WRtF9D24ZKCEmX1lg/GezMVNHmJlKKdivxB5/4rlHsl/v2iKfT8H/Cs0IMGlHQgsSzNR3a93I0AG1uENfWv9s9qmVj6iiJWjGwmcsNwia32cMMSs97FaZTnOVMfIGgfH98y41MLKRyJt8UmwpsS5S2E5aMN+lukl3i2+ExO2Q4N1dMObB9HbsL09FCHHzDmy0Hidwgh/tWu6s1tCLoN8sAuYDEmjko3rBcz9La/u0wPQjZdRg8tsh4R7MTZC2A7x0QsC0f50SKyzJXv/tkxUC+fO5QOBkInA8ebwwU/PH37vA6BvpjUoXe99cByOxMWoOH1eN4eeU7nefwOiVBJijUSuEthcBmI3SjL5Rq0Eu1o/4Y+gIlJVgtDjjpBmWgUMMsLtxRrvzRHLAfhKSIKTz7xTawGSNpj7WBCVa33pxrQHymLKRyKixlwX+ByvRfpqxqaQY0l4EFwFXYL389L/Z8Fz2FWnHw2JWCzY1L1IrieJeA8Zgps4OZipSnSr6M2L9Dp46bdkfgPEXMlNNGptpG5OWS2xgd83UVFPk4ZYccrZrfe/GkAymXgcaso1mVIXJbcqIefsUwDij22A0LOZ5bKE5sq7tOoHp3y662uKGlGwBKnxrSwcUkXPXljVWUI2wA80j9J6ZYl5fc9H07M1T5hoQiU1ipdL57n4d84+qdPkJIFavWANxYaaW20S9BozSchA4FOjeLqn+/yp7ZIlCE2amohkNjMuz+wyM1PoFAIasmbJWHHX6jDnUgi9loO9AMzooS0isqkMRGIHgOBcycLi/d0ybp/zaWQ1IhwvlXuFzrPj6zLlstoL275q+QCGOuerbM9HirmhI1pO6TZpkvaAECRpvIV8mKhNorupAZw8d5QXRej9rijH7tDrc3blxlUrOKMDe57NHQpKBK9Xai5/Ld+8r+6c+yKbGPEf5OyJw5qj4FQLn9+QzLlK8jM1zUJI414wK7rufEpLC40ZPmL26zVR0RAC3mZ9B8rfdMiXYeY5m2JtVNGS5ZjytIuih1hALMNImcnx30+FMr+mF/wYouBj9G6HKFiyLdyjOSrwQX7Dk53oeL31d6VjH70eJuJmoZAHSDFXvb+uLoF8j7flTuQbUfz4nBrvITXWzXpZR293RezTjGRUKt9gGetPkOdk/n73Ys0cqwRg0Y26mNhCMUdrnieNadOoNrTI/JKLzII4oc4VBOGQB5cXI7WS1Vpqpo2Sm3qIOdeTZ3jFtrpV9dSs3NUiKNpX9ghT5qLdK+/7u3CXW1Y4Eilb1hnX0okCBnf9QaguCK+7Chh49dB/4vqpJqG3cq1ilM9cB1ongemXruPquru9qRkn2FmNTg2YUgbPIfMZqmrFtpUXDzFQ2IgyiTLEWMYZvlPYiNYyNHUuPHtmzzZKm8b+sZwzb0yMAbSBZCcbRAsRrlNSAxnrjFDRjY8AYt5sVVIfCajTkJGlEOuNdN25Kdr2ac/H9cCo4Un8v8X/Pyl3Yo7aR9AYiY+cn0opPickm2QLw5uq1BMki6B8Xv9doRj3ogQow02ENn+pDinNdohYV5xWMwd40zai43GBpxX9/yXXZHyrH08Ho7Orfq0/Nf171uBEgkCK5VuoUjKfVhUD1jCJw3jFFPqPuk4qUntGMCAiPuZKvSoocHRFulwtAuiFJ4dQ8QtKg5yByyPXFdF2rxly0jvyVEiyeV4HxXnWwMxRGPzEJ8vfOcL+jq89rxtlK6IaW/1diUy+IZjSbjdSyU5bn+fElN2QfvfgqK2yOoPsHgfEzqx61zuCnhNBYs1iLZiS0wf3hM2JCdreesZoBlrfeiPFXIYaZk+NlIlPMfLOYVvxIXIJhNF+WJmXKFmVVaH2qXjYcOqSJW0cMoNbFLhJl4QN7c+ZNXNO+C0aFMFr7t1iPFoL+70uC/m0JnHrN1DPWVv9BVfp/3oqLy6s23HeKYDydDUIzLro2+6g0Y2QXAdzfq4zoTxVmWaP2GDZvyvsN12CmisBRut/rFD7ATH19gwicFJCplo6hB9doukhAJX/3CoU7Pqbc01sUUxwbRhswxoD7otsA3dQBYViM0ulTcquKFVCfZ/bKPaoPg1HmlJKS58lnfANB/zld9xkdR26alZdQJelwytGMxcXL5ROl9YyVYEQzYqYaGDFTw74pgbGrZqq33bhFDanerqD/HdPmNIzAaQNI/aJNcTOEk0B5tTTjh5X7S4B/ooQDA382Hz6YfU0tP+4WGJ9Wps4x5kxWmqXJz73ZPC00I0F/gXE+mtHAuDRb2B0CR8ws2SdvFWNJate0kKOJOXa/iovpgVNZz9gGjGjGxQGMIe5WrhkjGLtG4OC7oRnf1AMETlWzNZI6FvY4my2TMPjX8skB4yTFdUl5o76R4uEfiD0lbc7ASLtIyB1A3EtjiR3p5T6sGd1MJZfSc1PlM4bc1JrMVGsmjKLD3/OqDYgK2FASxUmzgyjZgZkqcuIv1z2dPSH/yCZy5N3hys1UI3AaCkYRONJEEDce9O9+OlxHm8nzVUMcg7UxYDkYP7zgquxmCQUKkSMYvxbASGkaYDQrI/2AXh7KqFzLPgxG14z0YqFr2gcXXG7j12pnU92ItGSAwCBOUYuO60Xpv3P6/GyeGgcfPXvawhH4RASxV6sjW9os+HxoRhpS3aqGVO+0dLjuN6SqxeMqi0FGzbjAzVQaUHWqGYP5X8tn9ab39GEwKrQhv8zBOEPpcF0MbSTB61iozChw66ItQKIBqPagG9pmpYDRM4egdqw6yAtlHdHSriG00VDNSHc45abKDG9YbmoNuz+PdQbNeI2ZqVdaEXcKxjaaMWT0eBy1L3iJ5YvZh8HompHGxK/XZv1AF4P+uT1lKate9EoEDSKHth1WsS6tQOD6uDTkIaXYAU7HXuitw/c9DEZCG8RR3y4z9fYeCm1U4rMqGKUZYVMLMLYvzfowGJPQRlJCVbOZWqEZ80BDyNXME0hzAR9GniVSvyyLp0c0I6EN5aaqt097ual3itFk1kaX2/t3oCELMNZgPlR5Sx8GYxLaIM7YVc2YLGYa9M5LncLfy2ZjBKr+fGrGUTJTb1FoIQ1tMOPCZ22oc7fa6cfBN9UyXuraVnkme8Km4jMq3lhoxkIz5itQIheYGUJowyv92wb9t2efpbh4+yaPDQYGtENfpqNCQ64gbtII1GDe5j6j4owfC+lw1YP+9YU2XitfDTMVprfRuanVtlahGesSYX0rHS6n3k1DlUIbbUuoTippeafqGR9Tpb/AyLzADgLQZelgbQtd8idT2da/zEwVtW8ZOCJw/nDRsnYycLoKRkIb+IwicJLQBprxWbWdvHv7huxOacZNPWymWpyx0IydIrTXm6mmrGD1iFnFagGUlP7z0IYSxUVsdBraMMUWaiHjueqIg8Xric2ZuBIri7IOc7XGGcN1RAKo0mSOZV6xuFihDdhUiBxyU+n1yuAbAu7/v8C49cBeVdKHycUV2rvTHVRdNZaEl67hChE3H1GckeQDzFQSyQn6F2xq+eL1ejCadZgA0otiaSh1zhKWyZQhzvihBVdYpT/Ndg+e9OLiP5NmfAAzFc0YC2kNiFVQUPOu9YOtEIpOdXzP9aAZ1WHuY5dcL814tfq5UnTr9X9/v+WF7E+p2iBRvEu5qQptpG03FMIhcfuEKkTWqIL+QbW2uFszGmm7T+zPlX+pU0DNt1TxxjTOSHXGFaMvsqykq8ZOtOoNQkqWgSNBYBk4KiK2oH8R2shOKS79vkXXZF9adlveMJzlberi4tx0jLgJ2R1RS1pnM0Ib1DNKM1qlv6ZNeWmPwEhDKjXgtR44tCYMg1dSDRv3oPeuAWLtx8bKTFLzFQMgub5QQsXY7X+Hz6geooMG0vPFBck3lKniieLqIQNEu5AoTgZOZWjjNM2Z1eRpk/rCUpa1X/WE6j7TI2Ck/nKKUuAuHzNBsdfheRlVCkYycMhWKstMKuKMvQOMsZdaTK0qAdDZPXY4HaoZanPDuKmWm4pfxaYhNnhK2pFx338jyf0jaQ4mJx3SWLNSuCLkUCZlPqUWE+3rE7+e0EMm+qDWoKmfDWQlA4hSrndNv9g2rXXW1l/vUglVBGNX6xm97cb0QODMsbYblCjRpJmWFofUGZ0eMzbsNQiI7s7GKq2/a3+6jo9tGWx+MLFYbh0wfkNVGz/QLMan9++UZnQwxnaYRdC/iTVjSs7kcwqDiWpqXv98OlI/K9ydJCl96ehxVlbE2LeZMlcZgIrL1F8bkwlKj6jk6b7dW60CnQE3DL05qo1LLDKCL547Zo2UVdpHDWhvTjpxBynB9QzStdBmY4kKm2+VuYwWu1TfU4QLEunYepfMVCsupjmTEURRs4akgQT/7bXdIFGcQaa00rcOAvrnfdrIH+2O2d2JMYvg0/33h5EO5BZAA4z4q1RtPCv/9biEAgIS8NrlmHDoW6+m9xnb7KNAQLhZGEzBoH3GiVmkgzhV6Aw0XapNP0+hDbqTAUTAETczgNut1g80UKJ1ICOul6uzOADdpsp032FxCnHYzLbxSpOrHLBBE8a3cJxl4vTz6VdKTn+ViI1rx06yvq34sKPovo3w0Pm5DhjPz6x8zEZrYw6n4KncstXabrz2IoU2VEJFOw/6psYhpudf+wS7O4Dx8y88YWBkjMLJ2AEuJlNUGR/e26HZ9GB0x8pHcbtIjbsVJOBcZQJaazZZJujCEWOzK0UiLNPGv0xgZOM7AC2UmGsMpLgZlAmZQavBh1R9QTPex+RP4mcdVn9Vr8OLIsHhF90dOy+/yU1SJ0cw12gMtUANsG4Q7c8EJwTEYPmJDu9+8l3PqRHVKTORv7F5dfYVNfTdSZt766YS0GcAACAASURBVN8abrOKQisHY6ntBg2pIKrIVcUUPylTFT+NTt/llfUljakB3rlA4zuMZutlo3uI1xlN0vK/RRER1yU0otJzihYFQ1C/qME2jADIm22laYKFz9gcPmPcELmKMCCmhqObhWggBq5coQGot4pJZBQ4cxjpWsaYaxs/FhBzWuYRfhSbdKjMJQu6B82Gn8P8DZokAUpaCNIuApKHXqCnmKybs5GlJOcy7ezotpECAO+WiVMtI+VyMbhcz1DVQ8b9hxl5UGYbRbf3yKe6TwNk0MzH05q/dsIqlZoxz03NO4oPtofMRGU0LeY3HdR9KjOzEX2cG/dOgTOMcySfYp4tkOJvaO44Ng/hcUI5uDY8VX/zsXFuj0OKsbYMtcH6pKyMIbOMUMDyMHM5xmfDItRrpBr8QygrLedqo1WNFQ8hr1eIym06zZibpdEcNTMw0Yz6/SBt+EkiZ4hpMQ3qGmnCZQIkZiB9WZDqfp5+lry94/jhjNHVW2WOHtfPEDsLpEWp6Bgh8qG0T/qZFtkRyqJoJwhgYAO3qB09hIshyrgQNHQQCvp2sMBGiRVAZDoypVYMZTWzMXwAm5dRaptU5QHL+dje7TbbcIPO7QDx/qK5MOpUM5ZCG+8IHcVjQ6p1IqgQKExVfknVJEyDMgs6CCWuhXUEVlH7AUYAx7rh65pVEfxXAMdaRj84ugiu5SMY/TNoQoUwQAjkWjkYNDkIu6EZHZBVFqcCdDW85bzCtKnAmBs9AYgln8zBOECgZOT39GHD1W5+sjXvvUGbHgYRLQhxw+aK7SzwU5DMj2vTf0fzIJ5Q3SESfPGIcWpvOD177aQZBmDTENZ63v1BBpYd19gzRsStl//4zRfXZN/eujbbJyBxbmBjOsHMVLGJAiKj0mjMRCYMRcijxZ7ip0bDjWMgjYhv3rdzq2ldumljDp/QdRpllOyw9jRHGzM1CW3cNlHFxYozomGf1bzJH8vkhqldr5AJGjD6u4FqysuYcpvDPIEgxsIFtPlb0NipoWqehC+Gm+ASWmjSkmmbS8ccQV3RjGkYi2V316CTUFPiy+fHmAztyic3FqtNA0bfZIG8SNcghCowExn9fdWYSQZEWmDgF6LdyhKgtScOKkyxST1YVsr0w+R8WiBEwzEHEDU4RufBn5unfxA9DAO9RC05qFH0J+3mF98j3Z9Wahlahm7YaBzaDUL+wNwCQiYaXzt2sszkSSKNJkg7Dw5b2jXoUYHjBY0mf+Tl7dmjYm5pb0+PGHwp+zxXtQHdHZtXbQgcWQLMs8BnfJN8UwSTJYqTDifyBEZziz47J6OiQ9rYfRbOFtbNUJls+gicLqqq9O0l77TCTA3kXdntmPVSvo7VztUjS9DBSZsGjEHR+K0EMHiYor+mIHlbQLQYw0pp74CJikbzrezkA2lge6V9Nsvse1SaBxMNE3OXzFR5ffm5kY62VfQgp6vekQRrwg6YlWMEJD4TM62kSTKFPE6ZqQvJ84C6wa2XVuMsV8lEvl0a9iZpReKYdj1Bw0Kg7BfgXpSZ+ID8QoayrpaWMvON/qgpAB2KOQFSm2ZUQ6rYUVwamdmR3e4o3hFgavlbCnbz2eITynVu7RgoY84TosxWqr9Mb/Ui1bMyf9jWD59Y8zzQzJbJ5GRUNDrs8qPEvwAasinA6CafmzmBEzCtwyQjQgM3iZEkYE42DX1QJ0qzARZ/zLbCFiN8VNrrsZd3muYiZveifEQa5p4m1ACDag/Cg/CeHKD8VaWowboyoOViDXehbT2MLMwsMxl5oG4SZdlhkS74kxAU+EQEsqdpKi9almvCVOb9EB+8lyGsj0obQs6sktm44ch+M31zn7DMFIBgiR5a+/u10kztuFXjejWFWpVtOLDfA+5x0tb52IiRPKnVwUtu2cNFvug58ZMIU3t2ev4XSSAzYGe4nhOgxDTGCoGI2y4BfFbPJy8CSM6fDw4ya+z8ma1NAcY8KyNiUZJthDQUxAzZJZhhDK3BDwOsNm5ai4j/t/v4MaV+HZMJudd8MUgRWES0T8n/iePeAtZzizDEDHU+ADROn3mV2tVH8gVNPFXazpMF3AQzrap/MJZkuJBJA3kTtbld04mjxiYyiPVBaee1CQidFGajmaPl5lTYKLVYcW3YVGnG25Vh5PMZZ5R1FMdMtXrG82amlu34wGZGzVi7QowmQrnrIs5A2nCoCLdxumemi83TlCusEeaXtEjYQiTxTOhlu06+PmGjffLJaUDG84rCO9eQXbikRry1KcBo2zydeiTzbqaA8EcLr9Fsv9kGQkIDaMsIRA7ZKHP0fgGQWBbFtDyEA/IXj58WIRI1bdCeuTcTTMj0wRgq9L8BAtZwfc4YfR6ajgr698xcaJrP2MjwRGKXszg0NCp02EaugVDFPdvWW+bJNjSo7ifO1cjZByM8uk6/V4LRGlJNUnc4+Yy3KeVvnKo2GtHevxGbr55z5KZ6FH5GkblBP0rPhfpUhDNkGUw6v4O048WxrM8hAZIQ1RMiy+hqTqI6/Yls7ySd+1wQdm6N1HMf1Y5pDjBGwiRoHqQcMcPPLL3Rmhy5VjLiXxvtlILj0jyS9k/IDIQppVwIKRibQNkiB9B1ZIZEzVmKsqN2nYvtL2BC6lALeaV8STJ5MJOpSuDRO9gdhodlDhH6WCeNTFzyYcxlETU23MXOp/eVzX8s6cBatGH6YNuAMVRtmGYUu9yoWRuN2oBdOY9btCXf0r7Tz8RuCRvh05PaeJ32BlbLGOXDljnZUeLqOOK4WEhPao/8bNeW7GHN+dgm0zXOgixNBisRZ1251nre2yRgjPG1s2aKXKSFZ0LuR9SlGh+ODUg+6TFpPLThr1Qa9B2RISsEwgOEBrThIUSiv2kLlfufLv3iKydN7C2lyopKKpeHhcQdqslRl4wcH4a8kFc6UQkFraalwSNhEEqUKBX6hTQiJM8umalHpQ2h+BM3OFGKwUy1K+jaq1poo3KMeN52QwkF+IwNb7vRtUuu+d1uwZujGI7xr1OHjLD1Z1Dr6yRwsJR4r8dBXRvacw37BA/Awir622GZqPfu3Jx9+6W1BkiEdgx92TbhsDqeQ803lbyxOcDo45gMTDji+AGYIlSPk8Hisb9MQftD6k/6gs34Y9PvFWmTEz9m8rk7Zhagf8mJGn8fJEYyFdc4ggCHQDikYQ3TkjpsmB4+pioSmfgkmTWYsQgANj6hk79cuyL72c5NiiWezEdp+9k9RhpFQlfBV/nQq4U2rKP4NM9NHa/ralYz1Z9XsDj01Ug8ZVItk0DGXXiNgEgoC4fBEuD1dlwDBJ+lLer342Wmk8yQEj+QbkzB+gcl5NNw+mXxDFTH8OhLrnt3n0zn8GwOMAZChgXkAZBn+lpteMB4pQgVMkMwL1aKkfzUqkey7ysAb6ZoXpLTRv8EKUlYpEUTk1osWYDwBBkwMSukjL6N/luiVO3xIH0FSh7wxWJY8WF/V6MCZstk5boIXRDu+Oyq5dkjqgDxtLk0iyZICHvw3U/PqgRjDG3QHc6qNuRDWtsN+dB3SzPSHa7RbTc633b1vSNPurfHSYZQi41keJMIqvfOXGypjvEFAHfKHyfbh9pN+tfCr88S2z5zqPuSpDzyO8g5XAYSN76t5I9H5EIcZCxdmqyeEGn1XX3nRzUdGKmIm6xWGa9RJQKNcQEj/hm5o8/KEf/kcw9nd6t7t2s5CnRL467Trmw8zOEyJwnokyo3S84+hMpdqrE7oAeYyfyMpVjWkCpo0hzW0cTE11M2DlX6+JB3yFT657MvMTAiIHbroTL45r+pQmG5yIJ+tLdAcgdn0DRvLblbnT9Le0e10MatIejPGHHS79ASkBZ52w1ZEWYRXMAYW023l/vherfWdpiyid4mIfNPpi0wwgatj+mPUKUelQwjUhZ3CmiwqOTGThlCYshFxjDDwCOMEfDkJOPikIn1P9etyF5UAkdGhlQQtrHes6brrPNNTQdGFg4TEJ/xDzTHkKB6BCPZNJ/WHMPvAUYMv+AzhF1q0hRtOUokC9T3QsUNCVNcI/OSGfS/FFj+q6r7V5H8LfMmzT0viz0FYJpiDAAg5kimDYF1Zm3A5LExSLezKVRrfSRcKZ5ZimF1laTp6FlXDW1IWxubqnS4sYMHK73utGKaB6Wpt2U/2uFtN4iBxns5n7G1ruzb9N4IEU2QYEHjw2oTYkLT8dyeV+LEz3dtzr734jolo++SX6hMpsDG85wWy8enoJzm1QCT0BR7CD/yhyom//hzD2XP7t1lgjP6mr6funK1XX9v04ERpxzGkjn1f6ReIQAp1YyfXomZ6poxmqlR+aCFRutYhna+Tg+QGCUajFDFoH4DjXn93xtXKvTwoqTkfqtgcJPSv6avPB+SJxRHwonNu0MpZ4Bxls4LGEkAeECE0hc0hcrAWGGmNvr5VqvasME3FtrwwTeY4YelPbg20vdIDzQo1sAwd32LNe6IGFfEGcQFwL3AGkGQkltL/vARsaTf3LI2+9qW5y2cRUzXjqOYAOGpx0gYDPC+W37mBzXWgfgxe4jjH5Ar8Z9kXZGMgbVleVAm1Huexmk6MMJgjpd5whCVjy5cZiZme5rRNWKmFogDrf/KYtHdABHz5NJRE0wzkkrnjE4/Oe5H5cBvy/5WgPyhAuKnVKEQp5JWVp6nQX58xvY0I5k4UTNWjoTrCQ3UNs6oWRsKv0DgEG+MG4/3oV3IBMJEQ8iF5eoyg9s4uHV8phja4FnxzIntmiCFkKG5l1wGfP7Pr3ky+/L6Z206sjcu4fGWRipgIQHe3561OPuUwmPTxcZCtrEGy2XW0uKEZIx90qhUscQF6Ynnld5x04GRB0B5VErglGvGR7Pvq4oCLUiQfqiIGZK1l8m3pMUGXyExvB+LPySOx3Q7LL8Cv+GvVfT69U3Pa5PSsYwHLc2YsqzBNM2pdtosStpeGsxUOqHlmlFgJO/0C9ogNrk49GBNQdPIzdxeaINEcWKixBm5H9uiKHX4I/u2kcZyI++o+rmipsJlNybawhb9VQ52KPv0ykezr6x7VhaAsmrw0fNIiL7hOfJ7ffubsxZln156gzHh5o7qo5gYBphJzNiuRABrsRImjfX0zMimAyM+4xRJMgicD6u94hWq0gBMlEPhM35SZurdcsJbBQ7yQr2Qd5qVUs3RzEQ0Qyu+QHhAgHGvpOmTqpRYoUqGVToHSeRUUWDOVXYSz+n1sEeinzVYJhP5qlTt/99zllgCwGkROzvi5GL5jGjGNgxdAxjUNuZz1HLadLT3t9DGlHnZm6dSteE9cLjunpb0PQ9JMGVBQ7NueFaEt9gDXxUJYxyBac1QZxo1JGCUFLpjxoLsU0tuMFMXMx3NSPXOfw9gJHf5jJqTeRuItgK50ffXlGD00MYMjaYGjCU2ldgiE4LRRHM0H/ESNZxCW1ExAe3NBozpcnw9fEaJ3crWISTyS/l19LcBhJ636qrDCcYkYTgwevaAeSFpJQhaBUY+480CI6GNucqLdAJHFRk7X8w+LzA+YT4j1R6QvMEXiSGTBlHnbeKMzNqQSY9mxJ+FcUTIYJrCOsIyQno4MM+Pb1T/Jo7aW2SLngOkE1U0uBoQ0piphDP+y+pfZ1+RmUotaLQx45pHFgZ/859MX5B9VG0xKQDwZmX9LTPqv+p4/HwPc4XSvfMgvJoOjOWhjausggJnHrKFinUC/hATkDPzpAkxH0cphBFnV8SsjEPyB0jW/qHob5x26gf3WPc35YkmFfttgv4mhCNUQ0YIBI5CIRQNv2XyHAttECohcExq3v06P2bqr6uZqYlmND+0m6CsHtrwKVSYqRA41t1Aa0T9JTWdWAbWva1S8NSPmh450v10F5AIENLdbhGrvlSaDWByD9SAErxnRDla7sAJAZI1jT5jCGlR5fObAuN7ZapOVHVHrL65V8n7mLkUeVPN4+a8B7S6ng/VtWVoOjBipuLzvVpm6h9Iql0dQhuYK4ek0V7QBsPOv0xpaUi/6AzwHGMgeL0YRFpZAEYShTFv8RldGSZ5qzyChM/O4475GrvDha8yRQQRXd7eqDDCrdLapOyhgUhKflq9Xr684dnsJ3rQe4hhWnZHiOvFc3UThPE0bdnUpGrDGlJ5ojhtPbj3n2iWyGaZdi3pfSf33LXt1LPvdgbbnETrfkBXv9+asdBYYvoIUWcKSClH+4U0208kaAHkHmXU4D+STwyAF6tZNV0gqFG9Sgw4gpo9c0D7h0oWBh49z5RpWkfmwrcIbYS1CCYdTroexNgWmV5q6JSGNswEFTKgo5FmrSbpY5sMAVGg2KyWgFDWBIMBIFkXdGDDnEzzEUt5qKGGMDj3aV6klUrp9wPlf9Jh4DKxs5ioSGp6sDLFOOpPGNUfKFeWB/2YJO5+SWv+Zl1tovOa7uOQB9BZ64hqWz+C0T5bG5Cqjdts1oZCG9p8adsNOt19XZ3nKITGRKsleb5n4dbx2VMw0hWde4ElxgSnr9BopcbFeCH+HiPv7t25Rc96t9WJkjoHo36TzHYKvulzxHPCWorF4VhW/2vjc9lLhw6YvwnwncBzM74nX82nGbUgEwhtaNNj71+th2CJwIFNKyktN/kAGtrySYGA6g1iT2TqABCGzUQNlWfYuK3mMbeSuvGAePh/CyDr76OlZSCIrldx8436x/eEUIbJZM17sOohkomzQWawtfjQxkByU0+3Uf8Okz+rzJCyqg0UriuALnOc1eKMNEZm0wJGH3xzodpuNGIrB7+R0IY01yy5Im+Va/D7Cy7P5up73BXMVQg9+hOxzrHQm9pStCkpcRSh0yHQ900/dXs4atk335XQfFjuxEF7LqXMq+66D7XcefOBUQs0mdCGzAxPh5sYtAuBXTczKSIlTAE5QW4icT4yMiBq8OGIr511GjTP0ilr7xcA6aGLgAiTi/0sUX2Y9T0dYvHK69VvhwTlK0QUtYiciQRRlKGRfeU8dHjbJl/tWQGSB06VwGoRRpjXXHMOvVQzGjBr91bKNSMj4YYpvjjDtEf0GZs1UbyNKY4VpH+X6xl8bPE1JqBHD/QWnDyH+Oxiy0iO9+fi6xktAfbJCj2Tr4r0+akqOPJE8QRB54N5bjowcsGTByu0MYnQxpXGpqYZ+KwfAKSin1o1AIh0pFaNignIixjkb1NRHzWiIyg8Or7697TygAAh7e1tSnuLPXGsD2trq7uCACn4XD4GwBv+xo1BK0jARzxsuWZA3i/ml1482/Rz2Cd+kvjxYePUmgFSaaYyRpxsJTJwCG2U98C5gG03alEV7bwnv0cWXGznaD0TmpA5YzxPuctD82qL/BTR4skB6YKbvkg0AsOF+On2TUZqWcVGfBl6axeG3bit5hiWWlp8T1miSxslVIAxJoqz4Y/I/MI0obfMQyInSBJeq5+963dYJoiTnLUs2YORyXRtGeLEkDP6gdxFGlzNkWlDMP9qCYA7tLEJsfD+aM4CdMq2GAdAzSIaGC1OlQBd2UhYiOY0jC1ToCiAJicWbblNbPB2CZLDEhp+vUEtB/+0FpelK2C8oG03urNr02O1Nv31DMiAIoRFK8xFoR0KvYsQoKnpjqDEMsAsJVWOin+6QdwvgUgPosMSlOUkXukZNOqS2ztPE2pGzFSqNqYKjFebdoqm4VYlPON8kyCMOciEJTNJk5SmMokXe80kki+SBF5FrlpF9VTBvyBWh7m3QBX9DI8ZI38j77ZtVLsnhT+uONX3bbLSLrsuOhK8SQzrjZp2NUkVA87Ou6QFvPhvR1TgSlOqn6vinL44+LVWxsUoumCm1kqt9wUzNd3MbhXJ76P/jXx1ighIeSRdEk05W/FmyzAN1k6seyWujJsAf0BBMSVWuBFpO5bcUik0Y2nJU82IdnEwYqZeZWD0OOM5azr1JxoQQxnUWTInMBBrpOzzFht8rLG2rhEvkV9IJcbNMvXIsAGI6YAcrg2CgI5zK/aRvbPd2mq8qNAJYJ6pRIBrlIJ3tf7F/quYtWnbfK4RifyUAPwTmUowgPiSNDU2/RhY4Vr8lloInN7iM0b3JO/IEJpKjZUVQ1YNgpDqHHYCQQqsKoQzQhMSjWeGFWPjGdy/KMnqCxDeaWLNWAKjpcNpkfEPP6MSqu/GEqrYXCjxF8pMv0TE5p1VAjMLU4f2Y24j7T0uV9wyunGAApb2uBLJX1aYgsZG5DKiFZldQUWEEzLuLwJqWDzKtd4+fZ7CIBOt4nwotXSRUgj+y69E7HxXmp3430Zq6vi75VN6InRnrw5DG2JVrZ4xsKlQ/6/EthtpUndnAih1L1xw6Z8sHog2NrdXoyjUJXMVYgeWFUDiz5/G6rD+tKmLXppEVpZ51dnCN+DvvQaMp5QHit9FPWNa6e9mZ3hKHSxYWfOp8PZWhRwIW3xw/uWW3zpOAWMb04a/J5OYLA0IGJIH6C5G+wbImZJ/qk+2tDlStwRI+Y90A2D+IhqdWjpyWAfrbxyDxvq+4ly0TyQeuUumtr0MjLXlRtYa9CfME8G4QfV/lgTdBQ3cgL3X7inK7iEw3h1+njGnISQV34hdGnrf2uJGzRfM2rLfhWO6YoH0xP33HjBqs5YXF4Mor0HsyiLHUhzLPdWDmyawvEXVHpiq9GlFilLZQXY//t1P1dfm0PHjpULUkqFjIMx1GXsF7abfThGxgNl6owgH+rBSiExDZsgfRoZ/Tf8IWiPBu3z9yeY9J81NE2MmcKXpcGmckdmPmy9E39T2dnPiVuT3zjNs5/1RM3poyrViVzonmLWTgLkre6XRgOxVYMQZJ6/Qi4u9B06tpkalZrSF1kMi55TuY+8US0eGzfMyhSFavAmuOpIz7CZ2IQ/SN24Mo8SNbY2BQyeFWmS2jhIxREbIfCWUv2rCdMtlJUEdn/FninUR+8ozgYL/0rmRyiUnHQQEZmj/mChORQk+r7XdkGb8gXq3MmtjqzSjt93we059p0ZvuLLz5VkVttguPHMWufTOWgDioCKE5IXEDkhOG9jQyEwbwvP/czbc2OrzeN/tLGqvAmObthtdAGNcnxjPy30RaUjIFnJgGbIKSUQB6j7IlZBjWtosvpdNEAQH07dE/CFpBMkbZZYOlu9IrHSKSAdaSr5wSHFR5c76dXiXAesOUONmqQRjtRIq/KatCqswiTnmpsaRcLUKr0aANCXmrHmX1pSc2UM0g4qzTIxVLjWI7uhzvWFVMh6w8s2Vpqyr3oY0AmvEehRgrFzFHDclsY0gJZkY3+6kWFp8OzZP21ep5CpqF59jX9ogOfNnGIW11RAdkUU8CN4JUPgM92kijl0ndl0zegYOfVPT4mLL3xTIMYs3Kk3vgEJAbHffq0m5WCN2WAfnKIFR/rJMagQdU5qfkpAwA70aeOzXtaxED198D5y+AGPFoqaZLmWZPSkZYFX/AVYhZhhPU20zRxbWdWRJS+abzc4dzpBS7IbHrm28Ss1IZX9l243YuQAflkR5YqS1MLUN339BoHHrCDfiffjhPxKT/LjCQ0ewPhIN2dOV9g2/vy6esFeB0X3G2JCKkACtGt0X6NqWdg0RtVGb3NCUvYvaK8dSdWrczmbMrh+QArTSR6skFbpy/WWhDWnZMYDRBt+UGlKR/RM758Xkhi4vUBc3WrtvNzfaLQTKokgTpJrkr9Y9k70g/xyXr40NUsfzbNTl9uR5ehUYq7ZqjGZXnbR9BEZuNgbLsVRgnIwAyNHrNqXrzrbmZfxdrsXK3mS7MySHVzu6+nZI/a/8MqRxKaGiRyhmKnV/dNZ7xbXdMJLLX8Rnmdr8v5VJxTiELQohpe1PnKEOFTUVgjBfmcCqxk7tPQmgRp67OcGoMqVXT5qafSRJh/MmxrvV/+RRb2IMGigOTYiPlFerZRFLMUpHYG5JRkAGbdeizyGozLx7+t64JgstLMwPa+vnVIKn7Hq6SCrk4A4Xaa4W9y/fdpTAyPwJQhsMfY2tGr0z3Cll+Ry3kegcE8d6k2FUmWXkjas8Mym2z4/EVfSf0W6eFO+A4Rhrd6nf5Z0EApgQCBxHPSGtMxjbRlyXc+5UUj+VNt9W8sOPZbJyjdYUKj6BaprRFjmIIRNmkcypzdeuZT/09HuaDoyxvf9rFIT/sJoYk2IWG1KV2vuX+qa6uVmiTQyQgfnurDQp9xljaCGR4L4RVTunc09SyhWTk6kMofzGXrYr+eium8i1PPRo9uZsYHKXkeCgXtPa+6sQ++2aQvXW0AOH+kqulZQwGFX6xsRUMTKLGHXQYk27ohY6ZwQL4IHEIrslChPWHkILoHBc+jc0GlUqvJgiXUoBVI2nEWFnNBl6hM0oWWJj2ofnQGcsAu0z/nr9CusOfowWGMHK6ZhkCiIzsKr25Ot0VWp5Do18T3OAMaSCsahsGgbf0OPmQ0k9I5tiy5FD2Z2bVmbfUoHoOlHkx8iGMWCAvrRaIwYbajMDy0DJgw3+JHHCGdpMNyh4TyNdmhiRm0pXgXQkXE+C0vUVak3XFQVAKAGiQx6j0WhERVofWT9oIHwzmEuyh0hq36CYKalip9BWAhDfW4VJYhKSboiWo2Yz/RvalL+xkmi2AXH6sa6J38YhpFgOqUY9revlOArFqYKhORRd7AbGKgsdT8L8t9V28x+lIVeqdYm/UPtJ25JIrJnADAx02nC6h4RhI0EYz9UcYIyLr42C5KWB0GvUZ+bfKGc0Vm0gdekmTWbMvTu2WGsNRoUjfU/qeDZZyZyLUQN/eOnAmRLwgmYLzz9aSJhpzIekvw79Nm9SAjnBdLJo/lHm8T9sWeMFw1WSvDvTxJ094Fwblr2x5Di5Oehm5BAlK1BtcqOu712aRXHVOLWxl+ZinY5rXiRk1z3bN3jbDQku0vxij5/YZ6Yybh4UfT7NK43p5X8L13Yunb6cr2G41tx/99g8477fN+/S7HdmL7GqC0vB1e8B83rl+v65Ri7cpeskn3QAwkD3RzIGQuOETGyaTZ/BJ5C+QwAAIABJREFUJNZ/jAoH6AiOMuInhEleyWGRJgFj2gPHqykAwZ+oG3SctcHzQxsxFprMGALndD5j2hJ5njbIxPzIUMlhfkX7JIu7X4mXGLTNMGkW8kmvHTvZupkvVZexi6V96EC3Xn1TyGr5qppPkalTlg/ZTQldWVycmqmmqUNlM60kyH+lWTNtKpkduXDUGButbZjQdVBQ+4wqTKhnLEuHi3E9dzrLX5GOrvx9BBpfO/tbNcJF194qYF0vU/Xt9LOZNlfZSCp7kvBEQCBg79H8C2Yo7lFSPtOj6PoHEQUYuXU6wtGf9qWjR4zweV6JE3ssrzfhDcK9x8uMt9OZADyff28OMFauiJ4AIPijRcvUSmK2aSk6g6EVIlMIEF5S3IoR4qSYYT5aK0aZkHSJKxE7SRg+DTLnG8f1KWYWreTRhpTmELu7TAnfbApMZwvg6xpgAv/jsw+ZCUjFeFnDqToAaZ8efJ6yuGdck/C5TFOiin+2NDRFttReLlT5Vxwcam/HkkUzWtWGa0aqNqomiqcWfKU1X2lipM+nvb9VnCPNdOK50coEK+dDKhjHpI6NomBXGb2+WSCj9IkePnRaGE3SPma01h7hwt8pLCdp/yFVvjythtS7BFAsIxdCCZGWkHrnE2ydfVZTgDHNH7RUQ5khBLOR/oCCRkvzlOOJxrQ9Fxx9GNY9Sq3yesO91t6C3jOM8j6lB5gHlKODnxA0afYHEpgmRtdKE9Lej05kk5TZAgDwn8yN0bGA/HERImhGerHS/gNCxEgWzOQa07ocNzHHMiicuIHSr36zNsyHjgc3qMKESpAFWgtaR+IfRlbUbD+tG2D0+YxJ1caBULWBv9dRqVZ7LnZHrnc7fyvFN6MWPmd1qpBMhGFukOXDBGgf3UARtmc+IXTR/uabxkbQWgbGxx/Ve/ZL4AJMZixCAD2n+7Q9k2r9gIpXmnZsCjCWrJ/wZG1TaWqtTSEab82pIAHmy3zhgdoYb0yY0A2aB8FDok0jhb9ITTqH0+YCej/XkrlmdBt2EJXj0jZzZZZeKalNORXMH+0cIkuLZ0JDZBoor1bC9ZMiGh7RZ9i48NCvMw/qd0Uzukp0CgUhkWpqA8wA0xIUz9KV7oYJUyx3Fs1Ny8L4inqfTQ0w3Uz1acrMZ/yGCrE3YcKHrKJIbVWV4tXMTFM7rnW7ckwe+omH6voYYEPiPALvXdMvzpaoIzwTowiLWLAmsNpVPyeQavyNsA1j/e4SGOEO8OFPWOJ9+ZzN85YQ35lKDH9vCjC6pkheYeEJczAAc5SaQTFViuoENiU9UDBjWmhbwX/BfGUTWj6mSqDwQX740kbre0KFBASAv/wbclEZG8bIOYaMXjlmgvXeQdtglgJGgAiYn5N/+KCYVCYX0T6DJHI+C8LBzmabyAVJR9I4T0437cchyS4HSKbxhRv9HstgqcxkNi4sJATSSJVhsaGjNow9RNmcfDKWAwQYGnx5aA/yjxq7vkUkyfmuZ8w1Y/JYuVs25GUSfEyIohn0PAkXC7PAFodVhNgxNzk8KyOu7Dk7gcV/h9XKZMPRA1ao/SWFR7ZJWyLA8rrHrgjGGsHU3bc1DRhLQElGe/HLpNUCpupcOf8QKsStqM5Hq/GU8gC+DqE3DpqLGBvmGskCAOoAbe4VwEfboHEv16bwdhkTs6ky+zz25ldC3G2riCLod2Z04JNi/jKfIdcuUZIbkAyLnb/C++L12uaxAmXNFRTYaHCF9oCYAYzc43xtWPq/hJIRExJYApjmNFwarHuaoaZYjMAbpnMgKGiEhWa8S2DcLLLrfIMxXYh8yhemvEzNxWJ+P6ywFSPspmlKtbkCJtOcB2BA0VZZIpA7AA9fHmsFYme6vsbxdpi3P1MLk8+/oAlgIvF47nnIKbgynT+Q8/eOpgFjG81oG9u9cncJvMUF2mOcNBjsHK32GZBDLItwBCRMzBrhfGzK1dJkD6g724+3b7LyHTYuBb9oHNhSuoOjUdDCHEPg+6C6t9GdnA0NUfNrmaabpW3xUcMlhZCXX5+PCKiuGfPAuscVKkw+L6MaoMMZ7jJr+EhLcniN+oPiG7Lx0ODx/mMAHtaRsA4J1ysVwiDEgfbknmLbDVhm7w73fLaxJ8eI6+K8zrCKXRDXJvWDZU3crGf2iUuuN7cgEnMM6tknAYPP/201G8bMpiO8TSUTYBGc9IUl2wgz3XmD/nb/mKvkuyI4fchPGIBrpvkr59U0YGyzZOEBR21gO9lsF1HidI4WwTJTm5cmUrCfVOkTAKfvTMpKIi0ZAsO8CaoG+JlpxkukeehbY6RQAAnZJLznCW2En6u6gAZSTLHaK5IobwcZtGBnWT5l1SHuGeZ+aG6Uk0qmjTNdWo1mzYy1Q1DQOfsimanE2qKmRsgwHBQBQatKZkw8I41PYJ3eO7SWfL00zTj5wOe7IVVHvE/ur+tGANYQ+YhvUi7txwXGJdL8nk7Xz4Sfteu3dd9tpBzJCwginhFF02+WO/Fembf40HROQAZC4D0mhhuh812B+Di+Y5jZ+EqLOTYlGN23SiRu6IWfpm8ZePW+ofLxACIZO8s0y3G+TDVCANaC3wAQw4Gat6BgOA8PltRIkCC5kaakZ9H3hqQC2vz9XObPLmX8+FjwZBRAYDMMXHaNoZI8kSaBm8lZWH9v0IwBXcx7ZJYkg16Z43HteIqbJ8sUG2VZMGYR4AsLyGjqF48fUrhitw2zwfxeIzLpkGKuY2QVECrw9v4zzNeMccYfWJxxZbYlJXDigtSjMNIbi5ZLhWasLFEr8VJO4GBOv02C44MKcZDVBBhPyl/EzPyLF55Q8vgW66Rn471tE8Cqep+hK/ScIX7eLIuIdo0kJZB2hzvxV+ufzr64dkV2VM/RZjaG+6zFc6hnKeo5pinBGG80Pvs8KTgwbrnmCxsWE4/MDkgOtAt9TBfpYY2UFE5bOnA+QhE+qw8TU8W+epg7ZQ5R8EpohCZUdJ1GG9pk3Jh6FQiWkjnWVh/kQgTwmSaPd2I2nAOXdDRtFq71ZhFSpLJxraMkHOJou2Cg2+G0c0QDfktSn+tDOx6Udj8mwXJWfu0Y3TezNshNJQw0jlkb+hvH3K1UONpubLEeOMnEpY5Yyw53WbghO77tNjdNlCyLdTGISXK69+ESnFdLYBL4/60ZF1tmDs8Dc/S+3VsExqeyX8s3t1fij1sqoE7M7JPLFYP8f+ZfYYnxcdwD8WUGoP43ZfIc1Xr1C9ZRoRnrERkdHJO2WoimXg6w4KlZdgrmjEBJdgo9UCFmYF0xASEAiCWapA3mL6Ycm4DWi2xczD9CItZ1mlQ3wJe29Ug1YHva0LQ1/pOb1O67+PfE/wjQEx/EDIWAWibzmtgm3cxNS9se7Gfj63br2jbJT4WIehKzWZp6Db5faNNhm1UbOZ9CpdgdoByrTBy6CVA3+KTMvft13IsiQ2wKlVkKbhrX/nJmk7ifMbUyA+nWTaCejt3OKgdLJgihyCl7TJNLZt3PZCMFJp4Ncca3qk3/RDV9PiHBsV5r/uPtm7IvKX77gq45H8UeOubFuDLwn6lc4Y8tutamR8dmHbDHkDh/qs6BRwrNWPuj7c47q9b0BbOR85rG08/kbcJGvkrVDKTVLRUjOVHmW2wFD3VOwB6ygH6ofCUJHfMOksYHyJVLfpf65SZpqv1yc6yCeOK6YAshVvBpuR4yaPjeag91LQiKQQrh8D2bm27pmMv3CUhPiDwi0ZsQC3mZhvaoNQS6sdKMsdI/rWe0yc3SoNwn49Dqri3htgUqTOdBAwdIMx/LGWaubbPW7fDp2Iw5ECcB7DljbELwjMJGgy1xAc34DmlyWlsiFBE4EDB/s3FltkaEjIUo0o3iUkpmbn/Fmsdkf7jw6uw9GoLKs+a5cA7A+BkVnh+hHCvyBq+w8EZTm6mdATdaRDFA72rJW1wMkxbiwaEhGXIKC0ccESnOhics8Lfyp34kiQyd7sNU2ehhyGnw7fJypTbwLL862zw526LvMa3IKNF1XDb6IssmIoSyRGbWXBFPAJFgN+CHTaXh7gYxpE/s3WUAJCRDvJTEhWOS9n5d5cFxSqjGWHGxRsJhpoaRcBZKCIDl/NxzfSZbWOGg+RBREFlobVjMB+W/fl+5uhtCXrBZEkn/V/P1sEi0Fjwj8n4hqN4mzfhPZabCklLutUe+L8n/aLZVchP6ycLJw1X4jOGZkvBxo+LM/1Jj3PGTvTOfkzhfWPtU9vnVT5T5jPXdc2e7rv6/91owlqRuQEk+8DBoDj3AVlUxYBK+Uezd++ZeavHJM5LQhxQwJsf0c6sfz36xfXOZSWrmaWIyVtbWRdAlGa8VqHSTFC0cKz9er88nYYERc2MFzmAw2+dG8gjN/LDybO/TkJZHNWHLGhwDqOCHlZLaA0DQwImZmoIxH5Pu4sWFRABnrsGr7Km2f3O/l01NggNsMxuKYimEBGTL/7f26ewp+Xn9wgzKdL3KnpGuAQIHJhsw/v68yyx0EzOHEEB/suqx7F49D/r2pGY76Rct/QZaKIqWmuQrM52YZwA7jmD96obnsr+TZkVY9BPb3nFNZP2A6s6RvRaMZYti+xPpazZV2MCUYw1UBcbo7A2Soh/Qw8eHlIcjdlJg1Ib/M42TfkCxOhtmGushQ32Pg61krPr30XhKWnHk6plN76zfUJExC4aPVWbPLJspSHI38x4tjS8GuHU2mEBmQWAqQ+tDHGFWIunPkAAdwRhv1vxE/DA3oaNmpDucgVEakuqNSHA1RjOYE2yElJU46fpJ7qaChTaQX5Gf95xM6px1TrRwmbXA+un6mTj9FjWM/rNLb7LsG0rfINN2yv9kWtQ3RVTdo2SF4yRXWNhJwk3gmqo1ZGjqe2cvMqE23NLo+inp4WD2U2nVb6m87T4Jh5OyRszMLdjU7siN+o913w3/wckGl/Aq3REYydpAM71fmhE/jQ11EM0oc+hzAuMvACO6yridhE6vNO3MBPVwhpEzOWPqWofgPCl6kxRqIAhPyhdNkTFNwU443KxXMkvwvYit0b2Ajmn4h4fNHHWmEsDl0j36qqaoypsYRwIn1YwwlGgMgug0To6tJ2O7DdaAJbP8XkCmiwIQUQPCP9mYA4Cgq4F4wueF8Y3zLJgW/ePtm7K/lTZadWCXa0YzKROT2B9LLkDMbBUDfI2C/p9acoP5z8QQeQvmNIQQo/6+KzCyNjbPROcYIwFDVtKrJdgIYdHGI5ZgQbx9Zf0zIri2yqzf74n7IWn+ldZtrm9oxgTHOcljFe0DHIxTAKNrRgfjSQsUA8b7lMNa5idWOP15PqnrIv+kYLq5KaVWFZLS09WV/AoF7hlcSgoboQv8QjJ+opVIfiy1eXQrJ14IcUSTLUqHGBtnQ1oqzEnDfjSdA4lUartB31RCG2pIJfPttonSjBIGgI8JTCQHrBA7iUlp7Tasf+sAq4DgTgACGx72tZW8Vp0ffxpBw3VTnkSGDKVPdDugfpLwC6b1BvmzCJEvyzx8Vp9TLd3OmXAEUahXZe107Bw9h3fJZ3yLNB3CivXDFKVoGBMVIYLZTuAfTcwQIUza8bpXYsQxNxci7seqhcTCgXEmiycKq8JMrV+5NeTIMv9Im4xhNAZGbdbfU6V5uWbcnn0WMEq6W7Z/GsaocjWlXNKASQsRDLCZjJyX+Nky5VyS0E4wm+GeqblITiuhiRUCHyEUQEh9HtlBMI0017LK+qD50g1c2akg7YHD5OLXiqACjDSkYsPiNz2lz2BOyI+0WQE/6CP31kkjfV74GZ8NoBK2sL+ZeexTnQD1MAEFDUagnVxS4rlsesqYSManh80zgLGaZoziK0ojvurfSGlaQlBc71tlssacWgu7hEA/90BCPsADgPwzUjYIQgYQkf72PWnRryn7Zps0KZk30WKpmz1uyE6sfpK+qxkDgVOTmQoYK0ysNKUuLq1HLRRv0/uHCDwTWodKG1JNMt3aX5A9Y02bgsnHOaioILsHdpQUu/uV3bPy4MumjTB2fRR5MOeiS2ofU2HyhYsoI0hoSMWsDSb6yme8Y1o6Rny3VdAzZGe9snX6i7KtZYMmXI+ZgsNlml6vEd5vFenyDgGHoT6kqREDZWbIl9c/q8wgMaDtgDHaE3aPgV3Ft6Yah1YhxBthgReJkEEb5255yQ6x71wbeqtHiCQE23dUsfFTrSkEztEz9EMK4ajARDXGZ24cOgsw1uIzVgFjfASp2Qt72V8xTExSCpBfLYYUhpaKAppojdCwm+izsjHw2yh+/SkdtOWjkm7HDIzYP8ebwThEIhlcooyqb4JyMDKFCs3orRopBWOcecxNJQPnzs0rs02WKO4+Xd7sKdrbZfFUZ0/db9U3MhtJNyShGwb0nUq5m6pwBIIEn5EOC8QGV5rP2MHIuYDwUjqj+4IjZcajFel3RCrftcqeGq41dEC6L55eZjpDhJI2CoyxLojBlqo1yjHZOCh1/0wFGOsEY2piYj7hu0Bi0BHgUpVfEbfEbMMvjE4hJiZagyD7XlVWkFnykEZZf2vrOht44xu93AeMZFOeHZQQNNUef6VmdJ9R6XAC4+0XzbKC5DgS7ocKpLfbdqOdvVV+fjRjCYx0LSc2ePL0mWz14b1W2Pu3G1e1T+BU0+aByTKyzczjgRam8DHu6uig2PAgmcyeMeT+pnWh0zMg84f4JpU0j8rn52d62ZrBYk06InkUFrr7+GnoGQow1gvGUGNo0lnfI8XfZn7ZLPN3pmtTwvJZ6RWsI+0uJKFhARnHFtPrXtCmJVwBadKe1ouJ5LWZkZVsamjvP2W+9cVBYOSa0UqoVmlCMpoxpsOlCQCVkUV81uC3wRbLl6U+MtWMBkYJHDQSZupX1ovA2Y/P2PkwVifDUvvTQUM8lsR9BMkspS/iWtBqBNOUz6I4/ICyfCCiyPjZJdYVEo6KlVyDBhM/JvUHndpQMHX3ZAUY6wWjSfDwIu1MqVuER94zc6GBsdVYUs/zZPNTeoXptlJApLyJVonkvR4VM2gtL/gXY195qCKk18Wfa3ja1TRjHmeUZmkDRjWk8npGzFRTNXn4pOSgJQhJlYqE0DB8RuXQIojeKb/UwCgQYHKXCJxOzNQKDRnTCEufiklM2EOMr0A4U9YHrC1ykJAH1Tak9sGyHtVXszAq24iELuc1LOEFe0sBxnrBSFpXjCvqe4gSsj9oxkv9JLEu4nCnpT2otv/p9k3W5Jgu3mhCpDmmFaZYZbgiz/KpCKPUsksqwVgtzlhvPWM5G+0AIYWNVidvk+bFL42acaMsgHvlC/+1YnyENvLwUHIT1QiUNPE/908JfdhxXmxNOxWY3Zh1ZDgV2PALuX+7Th0Q2Wf/scRE17KOF+I9BRjrBWPQjGb2aDcQh5tFKpcC+R9SCc80xRHJaaULwCPyCyFo0IxUgpyUJLdoeaDpS6xOyRCt16vpSTAaHEJM0L43NrVVTbqU3C0mlcSCKcOGG0O8SVr/3l2b1X9GbKqFNjo3UyMA4r3b15TcCSa/Z0hUvIzrIlUxZD8l8dgLAax6PrMAY71gDJI6ld4kfl+pMMInl1xvfg2dAOhNev/OF7OXlcJGjM63kfteFr9MTdAumKPtPeyeAGPOGBsIMGODSS0wwqZ6pYUaEAuQU8UcnxRpQpyR/jNfXLcie05gPJcm2EcWNNxE+xqyFNIJ+QwW0uno5VlSfpn+nZvdr0QfsfI+CjDWCcaYvxZT5Mw4kkYYKfaS5sa0faATHb4i3a59OlXUhr5H4ivPoqlHnFYcUwsYjU2V33qPQht/twWfsXpDqlQ755lG0afkq84zSGC8RWlovyEw3jFlrjXMIkmAGsl7rRnUE9kqCoKJEdKDKLn1PDkh0bYdCZn0bxFcZTrSTNOwtE0CwPSeCjDWCcby0Ea6JQLZEDdt1Ag58kLVR0hha5Ov2U1A1gJGZm0AxrultclOocSpane49kxEXTupcvjFdOSj/vIWZfnQ3oTfAUYEEal29J15VCY607lIcD/CMCJAEwurzboM/lwH+qtcO7ezSKmfWICxmzvpPBxeeqheQlVvBk681DI6PtpS0YRNN1f6tySXtJr5FH2lvMdn5bp0cHwtYKRI+tn9e0wz3mmasToYc98t8dG4XpLeaWf5OoVKKFcip5fmXaSkWU9ZvQdAooH3qxaRNpgkADyg+B99ZU9bh7ZYOeE3Vwsgz8P2uKAfUWjGOjVjCsZazK3yxOS8/qPdh5+SF23e1IFvWRMYpRnpfE5Dqruso3i5meqZOBUkiX4mXEMLEMu1VREwgXgGD9E4K211Una8zkXHdepDH1FH90f3blOC+q5sp8xYA2EoOCbbCPKlKZy7HoJsAcZugpHnksfFIttX5WHFzdoRmZCaYtGPtHKsijBfHvqAsAc3bOrwmbWAkT41sLs0MWaMXduO4gaT8hItXQftEAEgJWd0R6BfD/miMS/UJx97mDJ29vbrUct9kVe7xCT/WnWiVHKQh2slUPHKww00B9XSM2gswNgZGGVeedVG9cTsXEOGbypzVnxblwOm8lG2S5TENxJIs6LokBwQf2+KJGixwDLWAkYygSgpookxszYqO4rHKy5pO+8vs0QVJ/9CfUnppUMLSczV6DsTu9wnDchXEuVph0mvIS8jK71IIKcjHY2I16kA2YL0mN0myLraDKtnQHGhzlqAsRoYVen/mCoNPvf8Y9l9Vukf+svEDJkGPa3KOJoBN7UQ9XlM8qV7HZOXSPHCB8MfiyGSejSjB/29auNOy8Ap9xlNekSlFa6BNvskbL9fpWYMGfIwqXeq26EkBhIbXiLJXUCnxnGKkuWZ6szgoDitC21JPeLDirt+T9OlKRK2GRj4mZzQOje6imyGUESDtkF+mr4LxhCob0vgnMkOqJB3ufXAWV6q9M/HY/smLPcBu/ZYykDIoYHaL2MM9Tsq7ccrv5VEb0akMdODCo89J05YSw7ftSXNaBq4LCivND2BgXYbaaU/mhEC5241i6KEqpJN9QhdaCIibTVYYZpXyTylKuP1OhfpaLHOERDeo/Pcr56thDMgh8iOIYhBf6F3zZif3Si2FU1JFwCykigZo/CYnjYrZS6no/nyOGIn8cSurXhzvLvvgtFq5jSCTFkztyeV/vgxpKoBxs9oszwg7WF5m7SEj/V2QXLXkyVTDsRQ6Z6rwxAW0efRqQ5BQcUCpU9XqTj519LWNCv+uXq67BAIjPRIfLtoDqbFxVXBiGZUcTF9darFGd0JDX1d5esNl2b+FxrxzWQoSpqIoQIqErMpU/qGzM77BEa6FMTue8Rch8rHZN7Jb2qMOX4mbTk4NRrycR33xysetAoLk0eJUCk04zXZl5bdZkXe1j3eHkd0CBLBEt/w/uU/y76sSvgWLbj362yOV659TDMOkPQe45X+c5dq3PY422RUAtCX9DNqDfjj7evZPrk2jBslp/1joLmTuFaZxgrasETEuFnmRMhZq/Zg5iQNq8humSaTD61Cm4uH9ryUfeq5R7PHlOdaqkEsZZnUohk7y031h28XlJ0T8zpKrTr+SI2B36c1wmSmvgNTmVzbb2qK1S/UX2a90t/c5yuPGULwUNj86UtvNE0ZJ0vT2+c/a30p/kVTxnaRafy2OXZU466y72lGOj6ZTyQwqlCV3ql0h3ufOlBfLDBSvc4+3CrNw2w/AuMEr1+WX1SiCpMKC6S6acrO9WRkXeNmdz+JlBGZgspkgRRZOGKcZfBcFXqoUjKEuRpbFq5VGOLPpLEJS+xTEB1BWEkadaYZAeOKfHLxyjYZOC5wPMxwTmbn6NZh2ceXXpd9QH2CaBfCHVOz+HWRP3+pfqSrlTRAEy07KjXhSYSXlXGD1vczS29SDuska9eB0KHE6q+UKkdNJU2Y6dqWp9lxplfYhKjGQa79M/U9MAbGzmdaDNDIN5mp8sk+OP9yq8pHMrP5yVKh6p758N8V2cAINdhChnBSbVGW1mXbM8TIEpLH7IVA7duv+TGYY3zPxmVUHT1USTJHC75RG5f6QNo2mu8VNjefSUhipYLm39yyRtpoi21ogBXDJc5bOiDso2XmVPcZGSPuI+Gq+4yBQOGzdf7Rqkj5D8q3/VcBjGjN42dPCYgrrE8Q8z2cbQ4bLV0DXcM18jc/okE2hEVoScm6k0h+p8xbruEZlZMd17paj5rAvnaWg3o+wHG+P6PvgdEziO3FAx+kDU/v0s9efos00oScqkcTUX1Aoyg6na3Y97Jic9s0geqlbCsdsi2YFmsADQOuTaq97CMdjebjhcJkxtPNtHFvF1nZFZ3QGANOzWFs38g1QrjQ/5Mx6A+qkTFhCeoF8dHiHIsw8irkRXcMRgBMzx2AUJVN9dtx01zvZZLVJ5fcpN6yl/rgUuKGElafX/OUunw/putQy/zYizQKoNDASw1e1XpxavbRi5dpjsYUa/sBQ7xRYKQlB9ewCjDaqDatZ5hQHHu/nm9AXMjP63NgNCyi2SzzQz9os82TWfixxddYrxjMMLQS3a1jNzIAsU3NhB/es82Sn8km2aU2gQcUarA5EqYJytv+55H63Lm0XWrvZQAPBA3ds2lvSHe1K9S+ke4AbHbzq/SZFOm+THsO2vrbbI2t6hCgz5aAIKXM8JJ3rTO1a6CvRTM+rYqSu0VOfV2hjTYZOK5fczN1jK71Ty69WcXTS82XRGPTzoKZh/9DZiqlYXmnggqbmabEt0rbf1TzLxhhQOwRn5OOdF/QZCi6023VEB4qWqK/6XKgK8N3LiSEGvfZfQ6MRhDENBG35dQyY4i00gQlOk+2NC/mPaCx8G0iMOjStl9zEPecPGo+Eozmr0Rg0HnsBINjknq9nJhJTFLzv+j2rf+WCoCEG66TNmSYK3mdIyQA8KeMgNFlUWzFANdfiaWEIHl833YbzMpEJWulWPGKxbNR4/utVTdTqYxn3uEPFJL4pqb6Vmbg2DkSAme0NON/UlMK+alEAAANsUlEQVTh31PX9cGB3YPAQUBYvFC+9Wp1tDMIW8cCF3gINK/xnGtdEObo+8imEuf8D888ZK05sEDyqpBSBLVxu7xJztT3wBjMKNdc7Fi6Zfe34al0cVuq6VR0drtaOZcLbLAqfWx8dFs03Q7IPKSHzaPSlAyioSEwhA+tH8zMYkPa+QPwdSw9WiepvGihWs/fJHPNZmuIrGHEuY+rcbMZoAE6xtDRZBhN+LRMyq0ylX3cW5ij6KjLY5R2K+F+OtOMgJEwyd0Kuv+D0uHaZOCU+XwqIBaD+u6ZizQVeJENbh3Z2iqi65xVZgCqb764xuKM+I70K8V0HmWDhUZbjJHeO2h/EhcAMfdISOMTmgr1uBIAylr/R1O/D0b9+xwYUyGZRm6stb02Av1O6fB2nXqBvlEVCWjJMWrLH3MwTcNp17OhMCHp6sZsRLTXRvw4bdBTRkK4j8g5h0pDMPgTYobWFHTgniBtjOaIviEcLs1/aVoMCL+x5XlLrIalPKHfo5kjP1IWEgkET3nqTrjLMIUqD/qLqMIftWGpkcDR57TJwDEdF8imkByBL0uohXjj4kB0AXoaCT8kP5ZpzpwTX5bQ0DwJspt0v3R0Y/zecAk7hBpacK0sC0a8kaO6jhFvCLvKOGMR9O/9cUZXHqGdfKT/4kYIJixhBvqcItmZK880XGr1Fsik9F0K0LzBME2QqGqntw2sIBoTguWAtMQAbUAG60DMYP5eqTQyhrKgbenQXdK2mbWrp50/3QHoHkecc6d8Kbfr3H8qdcN2oETlkQZVykeuVTdTy+KMYjTbZOAk5nU0K5kPea0E1B8vWmZpccQ9uaIzymHbJU1OJs6O44cNnAyrAfSMMMAvprMb90qHvANar+/JPP7W1rXWpnKPCq9NkGDmVyRVNIl12bDL7JOasWzz5kuZsKzhd2ygCdJoTA9+vST8zapUQMOh6YaGKUe2ybSZ2OAvqOXhL3e9ZH4QsxNpfQ8ICeATtuDYUlCeHqoKV6jT9U4V3pLqRuwQs5Spv64H3dQ1jZiYpPmMisoAY+W2sI7ipfmMt6szN7M20IzOplZPh0u1YiSIhLBshgqJf0fx2Depzw/ZQRBdUbi5tIimeRAdZkX4+uB74++ulkkPi8q97hQJhjUQ7P8yk7thO7yJTtQnwRifj233oOXyzA/b/kH74U/KRxsrKQ8lz4hqTE38PbQdPlBq6pJGx6Qkur/tR0PoTJAzZNCMU89PUpvi+4+JjXxR2pCGVT/evsm0KT7XPoUJTtGwykIn1PgFfzKajea7Mu2KVLoQ2wzXHPvpmObmn8zFYbpuzMt3TldeqZmpQ01weJyxvUTx0I0g3cg6H2b1dK0Bg3TeM2OhNWumIZUtl0VaE0ePS4vXHphhzG/8VEbFkYGDyVouZAIumwhAjbzUPg1G30T+yk2+yLTGTW/vYGPT0W1AdqlMTUIgzJdYoowdb9uvFDHz3dTe30ICfjZL8dJXfsdmJe+Vlv4QNIwnW61qiceUo0l/0X0Kndi8QTs2qjz/mjfejYKD37HR49si+AIsBil0Qu0huaAM2SGGyfQr/F8ECBX4T4cSqq8rUbwytFEZcE9TCMk5nav7JmmcdhuQXGPl/1KZYePbgg8bO6cjoCB6MGN/ybBXsdBrFaqhAsUTIjzp3kicuPaN3OFNdK4+D8aSlnQxnm+OCNEg3qPWoYaPlv1scjY4gz0Xi6AYqdQ6bznhGqIM3ABSWg6mkawZmEfGYrMpaUEPQC0Nz+la/1+FRizrImcsbUk78qlcd8z7nC0TErMYHxX2dtrQYVY1wRxFMn4wFy20kRQXVx1mWulb29V5WRfV/SSv36jPYSgNaYWk81E+xfmxEBj0Cgghdh6V0CHQT2z2uKwCm31htxsYsSDA+iCJmouLAowdSM6881vQcKn5OkTm2VyRE9dI61DfR/CedhSYowYUk/LuM/me62czNkio/rqC5fhNTtCgFeicVt5RPGrXNrn6lr0TzFB9wChpQOJ3zCfEnMafnSGz+BJpr7liQCfp72gskgniMFRqEKm2YErTd1QFsjW23ehg7J2tBTXONmiUkXHyp2UVMPuCYTckMaCNIXbQvGQH7VWpFy0qN8t/Xq/PsCybOMwnYNCY4SbSXj15qQUYq6xuBF30zYL1V/ZON0c1CFXxQxjSV4vceY2ImqViX0fKTESDEsR34LgGIMbGHIi7FGgHjJQgYc6xeUMwpFxbBIM1eo0wsK1iNVvDnEEAdon8NkIImKBzRLDAXDJCm8+Po+dKm93FCwwwo8kJ+qOhvRwrxEbplF6RpB0FSym24oY0Aoa6RQe5m+P83sWFt+DgqyU6yUTn92XaMNGMfTEXtXLrFWCsRdQFYjPXjNGnIwivXw6T+QdJg4ZYKG20TOwrfhozN9io7EpAQGzyoEzSrQqFrFTmznMy35aLwMFvPEJVSNSQXFPuB+oDjPJXUrvMT8A+X59hWTsC/VRpp1kyD/l5lOKhTB+Ok3sdGmZ7212SaP6SBABVKNQyPqg8W362ZPMArs6KpiPplccFTfMHgZOiNQLNz2zXUEsfoFoeR299TwHGGp5sDCWUmY6RPMnJFsT/2Wy0QMFgVIbNQHAAkiHSVJApHAKDiF/FFl4lQNK+MA70JLMH845hLhAiHDNcgBsgtcPPZL+QQgcgMUthMtHMVtkRAMxXwEhpFeQJSQOYxweUygfLu1Y+K53hGFO+UT6rAcVM5NDhvJ31iCBkDdLva1i+/C3lQO+8Q15Xzt0b3luAsQtPMTdfIwOYHus2mQW2IUoIeC+SZlwsM/Jyy3udZD4VAfFo4kF0wDRirpIsQCYP8UZ+t1THoV05frJGkRPTo58MIRYAiga0CoqoRc33chUOi0u1CTm0zyqtjoyXTYcPZtsU18NEZXgovXSovMjTAqMmC6RNe8vSRjM6nMMnh8sJB+fyKv4c163wE6subwHGLoAxvjVYrUFDxBBDQtMLcAMEFoAzQwnnlGYRmyQBgIyUtKuaG5D9LEngEeW6EnKAcST9jDjeXPmBEwcp0YBqh4R5zLN3dCw+58vyRXeLLNmnFL3dAiIAXyeyaJ3mP5Kitk2JBEcU+yx1mYshFD6+eyRKuh5+NyVQFuRM7RusAGPta1X2zrRqv80p0C7SkNA3mJCYmxAttyoD5m3T5prWlGdnzKMBTLDGNMWEhdCB9udvFB1D2nAOy5y1sWfkojM2x0egkfRNGhqpeAB5tbKA0IIQRfiCxDY5N2arM7P5aBgHIb9PQF6Ap84N0YDDCjA2YBHTU+QgjRvcfLF+FhgnT5WWGsT+LpbmozqEFDkneJydrPqKBJLeR7eBLdJ0FBsTx9su0xOt96LCJGhD/EJGlJ9mEnIIppdM0VAfEjVhAGIBwAZvgjpPV4CxzoUrByAKJxT12gbHVAvtHE0XhSwc/Q0yhuC4jd5WnR+zDYcrYYBYoBE7Rn56xo5pS2lKiowJlB+QmUkQHTaU3NI10oL8vF9+oA0KTXxZSyQPLK7LBe/sfU4XFyYYlmnGApAN2AjdPEUBxm4uYOXhzrySHRMAGsBo77OWEppZIf8PMmey2uNfKk35OqXXUbJF6ZabrZmVIaHpKF5eAwEjn5K+pDQM3ivfkNxXmFcYU4qIreqBlx2eQCuA0lhQgA7Mu+kjNnjJitOFFSjA2ANbISXty8ke/8lNWUIhaoOoguNbL5pl/WHoDDd6kBfgUiu5SfmrhD9e0D8IHoB40rqwcZoQpPfcg7YAiyZo4hPmOa49cM/FKbu/AgUYu7+G7Z4hMp4WEqnywowkFELy9hj+KSRCHSD5ozvkC9Lrhl6pEDHHpf3oe5Nnw0TtZxq4MoiQfFihBXvwCTf21AUYG7ueNZ0txivdiRPBEzqiEXynBhIGFROUBsKWZ1amBUOCeFlGZ9S/NX188aZX6AoUYDxPDyZPGAifV6YtzdTEeCXU4W/w9zsTm2ebRYY2veaoGalvLFKuz9PT7JmPKcDYM+va4VnL/MgAvNgUP8BQvy012SjRMZVHXoCLLz6yx1agAGOPLW3HJ0778LjHF/RaQoTm7Gc8VRKkL0IRF+jB9eDHFmDswcWt9dQljjUlYqppxlrPWLyvGVegAGMzPrXimnvlChRg7JWPtbipZlyBAozN+NSKa+6VK1CAsVc+1uKmmnEFCjA241MrrrlXrkABxl75WIubasYVKMDYjE+tuOZeuQIFGHvlYy1uqhlXoABjMz614pp75QoUYOyVj7W4qWZcgQKMzfjUimvulStQgLFXPtbipppxBQowNuNTK665V65AAcZe+ViLm2rGFSjA2IxPrbjmXrkCBRh75WMtbqoZV6AAYzM+teKae+UKFGDslY+1uKlmXIECjM341Ipr7pUrUICxVz7W4qaacQUKMDbjUyuuuVeuQAHGXvlYi5tqxhUowNiMT6245l65AgUYe+VjLW6qGVegbjB+YPm92VdXL89aBg+xEdXFq1iBYgW6twIOxmPZ7yxcln1x2a0alntG4+QZRm+zWNqi7KTGk7Vqyu57Hr4n+8ZzD2eZ5gvarMHiVaxAsQLdWwEGG2kk/LuX3JB9/YY3a2CuY61dMDLIk5Fld25clT24Y2M2oKU1O1NgsXsPoTi6WAGtwABh8cypk9nNk2Znvz17sQ3NBWvtgrFYtWIFihU4/yvwfwDfKt6S/FocIAAAAABJRU5ErkJggg==;" vertex="1" parent="1">
          <mxGeometry x="359.09000000000003" y="259" width="41.09" height="40" as="geometry" />
        </mxCell>
        <mxCell id="vtJU19JeG5nQ4g9oRzDV-26" value="Store in knowledge base" style="text;html=1;align=center;verticalAlign=middle;whiteSpace=wrap;rounded=0;" vertex="1" parent="1">
          <mxGeometry x="294.5" y="264" width="60" height="30" as="geometry" />
        </mxCell>
        <mxCell id="vtJU19JeG5nQ4g9oRzDV-29" value="" style="endArrow=classic;startArrow=classic;html=1;rounded=0;exitX=0.5;exitY=0;exitDx=0;exitDy=0;entryX=0.5;entryY=1;entryDx=0;entryDy=0;" edge="1" parent="1" source="vtJU19JeG5nQ4g9oRzDV-2" target="vtJU19JeG5nQ4g9oRzDV-4">
          <mxGeometry width="50" height="50" relative="1" as="geometry">
            <mxPoint x="470" y="150" as="sourcePoint" />
            <mxPoint x="520" y="100" as="targetPoint" />
          </mxGeometry>
        </mxCell>
      </root>
    </mxGraphModel>
  </diagram>
</mxfile>
